<svg xmlns="http://www.w3.org/2000/svg" xml:space="preserve" style="fill-rule:evenodd;clip-rule:evenodd" viewBox="0 0 5343 4184"><path d="M108.59 8.59h5125c6.575 0 13.053.651 19.499 1.92 6.445 1.27 12.695 3.19 18.782 5.697a100.3 100.3 0 0 1 17.285 9.245c5.436 3.646 10.515 7.78 15.137 12.435 4.655 4.622 8.789 9.7 12.435 15.136a100.3 100.3 0 0 1 9.245 17.286c2.506 6.087 4.427 12.337 5.696 18.782a100.5 100.5 0 0 1 1.921 19.499v3966.67c0 6.576-.651 13.054-1.921 19.499-1.269 6.445-3.19 12.695-5.696 18.783a100.3 100.3 0 0 1-9.245 17.285c-3.646 5.436-7.78 10.514-12.435 15.137-4.622 4.655-9.701 8.789-15.137 12.434a100 100 0 0 1-17.285 9.245c-6.087 2.507-12.337 4.427-18.782 5.697a100.6 100.6 0 0 1-19.499 1.92h-5125c-6.576 0-13.054-.651-19.499-1.92-6.445-1.27-12.695-3.19-18.782-5.697a100 100 0 0 1-17.286-9.245c-5.436-3.645-10.514-7.779-15.136-12.434-4.655-4.623-8.789-9.701-12.435-15.137a100.3 100.3 0 0 1-9.245-17.285c-2.507-6.088-4.427-12.338-5.697-18.783a100.6 100.6 0 0 1-1.92-19.499V108.59c0-6.576.651-13.054 1.92-19.499 1.27-6.445 3.19-12.695 5.697-18.782a100.3 100.3 0 0 1 9.245-17.286c3.646-5.436 7.78-10.514 12.435-15.136 4.622-4.655 9.7-8.789 15.136-12.435a100.3 100.3 0 0 1 17.286-9.245c6.087-2.507 12.337-4.427 18.782-5.697a100.6 100.6 0 0 1 19.499-1.92" style="fill:#89d0e7;fill-rule:nonzero"/><path d="M108.59 8.59h5125c6.575 0 13.053.651 19.499 1.92 6.445 1.27 12.695 3.19 18.782 5.697a100.3 100.3 0 0 1 17.285 9.245c5.436 3.646 10.515 7.78 15.137 12.435 4.655 4.622 8.789 9.7 12.435 15.136a100.3 100.3 0 0 1 9.245 17.286c2.506 6.087 4.427 12.337 5.696 18.782a100.5 100.5 0 0 1 1.921 19.499v158.333H8.59V108.59c0-6.576.651-13.054 1.92-19.499 1.27-6.445 3.19-12.695 5.697-18.782a100.3 100.3 0 0 1 9.245-17.286c3.646-5.436 7.78-10.514 12.435-15.136 4.622-4.655 9.7-8.789 15.136-12.435a100.3 100.3 0 0 1 17.286-9.245c6.087-2.507 12.337-4.427 18.782-5.697a100.6 100.6 0 0 1 19.499-1.92" style="fill:#12a2d1;fill-rule:nonzero"/><path d="M8.59 270.439h5325v3.971H8.59z" style="fill:#86cbe3;fill-rule:nonzero"/><path d="M8.59 268.16h5325v3.288H8.59z" style="fill:#7ec2d8;fill-rule:nonzero"/><path d="M8.59 266.923h5325v2.507H8.59z" style="fill:#12a2d1;fill-rule:nonzero"/><path d="M108.59 8.59h5125c6.575 0 13.053.651 19.499 1.92 6.445 1.27 12.695 3.19 18.782 5.697a100.3 100.3 0 0 1 17.285 9.245c5.436 3.646 10.515 7.78 15.137 12.435 4.655 4.622 8.789 9.7 12.435 15.136a100.3 100.3 0 0 1 9.245 17.286c2.506 6.087 4.427 12.337 5.696 18.782a100.5 100.5 0 0 1 1.921 19.499v3966.67c0 6.576-.651 13.054-1.921 19.499-1.269 6.445-3.19 12.695-5.696 18.783a100.3 100.3 0 0 1-9.245 17.285c-3.646 5.436-7.78 10.514-12.435 15.137-4.622 4.655-9.701 8.789-15.137 12.434a100 100 0 0 1-17.285 9.245c-6.087 2.507-12.337 4.427-18.782 5.697a100.6 100.6 0 0 1-19.499 1.92h-5125c-6.576 0-13.054-.651-19.499-1.92-6.445-1.27-12.695-3.19-18.782-5.697a100 100 0 0 1-17.286-9.245c-5.436-3.645-10.514-7.779-15.136-12.434-4.655-4.623-8.789-9.701-12.435-15.137a100.3 100.3 0 0 1-9.245-17.285c-2.507-6.088-4.427-12.338-5.697-18.783a100.6 100.6 0 0 1-1.92-19.499V108.59c0-6.576.651-13.054 1.92-19.499 1.27-6.445 3.19-12.695 5.697-18.782a100.3 100.3 0 0 1 9.245-17.286c3.646-5.436 7.78-10.514 12.435-15.136 4.622-4.655 9.7-8.789 15.136-12.435a100.3 100.3 0 0 1 17.286-9.245c6.087-2.507 12.337-4.427 18.782-5.697a100.6 100.6 0 0 1 19.499-1.92Z" style="fill:none;fill-rule:nonzero;stroke:#12a2d1;stroke-width:4.17px"/><path d="M155.269 190.928c33.236 0 56.023-24.544 56.023-56.055 0-32.291-22.787-55.729-56.023-55.729-32.942 0-56.054 23.438-56.054 55.729 0 31.511 23.112 56.055 56.054 56.055m0-16.927c-22.493 0-36.914-17.416-36.914-39.128 0-22.298 14.421-38.769 36.914-38.769 22.624 0 37.045 16.471 37.045 38.769 0 21.712-14.421 39.128-37.045 39.128m119.202-55.729-13.769 31.64c-1.563 3.646-2.995 7.943-4.427 13.314-1.27-5.371-2.865-9.668-4.427-13.314l-13.77-31.64h-19.01v.455l33.398 70.769h7.455l33.561-70.769v-.455zm58.758-1.921c-21.387 0-36.426 16.309-36.426 37.044 0 22.168 15.527 37.533 38.151 37.533 10.938 0 19.499-3.32 27.572-9.798l-7.292-11.101c-4.915 4.297-10.612 6.641-18.685 6.641-11.393 0-20.28-5.99-22.493-17.415h50.683c.293-2.832.619-5.697.619-8.203 0-21.224-12.175-34.701-32.129-34.701m-.326 14.095c9.017 0 15.69 5.859 16.146 17.09h-34.831c1.921-10.905 9.343-17.09 18.685-17.09m83.292-13.769c-9.18 0-16.308 4.101-20.443 12.044l-3.32-10.449h-11.719v70.605h17.253v-38.476c0-11.231 6.836-17.741 16.797-17.741 3.646 0 6.478.651 9.18 1.595l4.427-14.584c-3.321-1.888-7.259-2.994-12.175-2.994m71.709 1.595-13.769 31.64c-1.563 3.646-2.995 7.943-4.427 13.314-1.27-5.371-2.865-9.668-4.427-13.314l-13.77-31.64h-19.01v.455l33.398 70.769h7.455l33.561-70.769v-.455zm38.967-14.746c6.477 0 10.774-4.428 10.774-10.124 0-5.86-4.134-10.449-10.774-10.449-6.641 0-10.775 4.589-10.775 10.286s4.134 10.287 10.775 10.287m-8.724 85.351h17.252v-70.605h-17.252zm69.523-72.526c-21.386 0-36.425 16.309-36.425 37.044 0 22.168 15.527 37.533 38.151 37.533 10.937 0 19.498-3.32 27.571-9.798l-7.291-11.101c-4.916 4.297-10.612 6.641-18.685 6.641-11.394 0-20.28-5.99-22.494-17.415h50.684c.293-2.832.618-5.697.618-8.203 0-21.224-12.174-34.701-32.129-34.701m-.325 14.095c9.017 0 15.69 5.859 16.146 17.09H568.66c1.921-10.905 9.342-17.09 18.685-17.09m123.013-12.174-10.905 31.347c-.944 2.67-1.921 5.534-2.702 8.692-1.27-3.158-2.539-6.022-4.102-8.854l-13.769-27.702h-3.646l-13.802 27.702c-1.4 2.832-2.67 5.533-3.939 8.691a130 130 0 0 0-2.539-8.529l-10.938-31.347h-18.359v.455l26.465 70.769h5.208l19.792-39.421 19.629 39.421h5.403l26.433-70.769v-.455zm41.022 21.354c5.533 0 11.1-3.321 11.1-10.742 0-7.292-5.567-10.612-11.1-10.612-5.371 0-10.938 3.32-10.938 10.612 0 7.421 5.567 10.742 10.938 10.742m0 51.139c5.533 0 11.1-3.32 11.1-10.742 0-7.292-5.567-10.775-11.1-10.775-5.371 0-10.938 3.483-10.938 10.775 0 7.422 5.567 10.742 10.938 10.742m112.9-110.189h-5.696l-50.847 107.976v.325h19.629l8.887-19.466h50.358l8.854 19.466h19.466v-.488zm-2.864 30.078c2.539 6.967 4.752 12.663 7.292 18.36l11.718 25.651h-37.988l11.686-25.651c2.539-5.86 4.753-11.393 7.292-18.36m64.439 78.223h17.415l-.163-113.997h-17.252zm37.683 0h17.416l-.163-113.997h-17.253zm123.502 2.051c18.359 0 32.943-7.292 43.392-20.085l-11.719-12.044c-7.129 9.342-17.578 15.202-31.347 15.202-21.843 0-36.589-17.123-36.589-39.128 0-22.624 15.202-38.769 37.207-38.769 13.151 0 22.656 4.427 30.404 11.556l9.668-12.663c-12.045-10.938-24.219-15.853-40.528-15.853-32.617 0-55.892 23.438-55.892 55.729 0 31.055 22.168 56.055 55.404 56.055m57-2.051h17.416l-.163-113.997h-17.253zm65.87-71.875c-9.506 0-19.141 2.539-29.59 7.259l4.883 13.151c7.291-3.483 15.039-5.696 22.005-5.696 9.049 0 14.42 3.645 14.42 10.937v3.158c-2.539-.163-5.208-.326-8.854-.326-21.549 0-35.807 8.887-35.807 25.033 0 12.5 9.18 19.791 22.168 19.791 11.556 0 19.954-4.589 25.195-12.044l3.158 10.612h11.556v-45.605c0-17.09-11.068-26.27-29.134-26.27m-5.697 60.319c-6.348 0-10.124-2.995-10.124-8.561 0-7.747 7.259-12.175 19.792-12.175 3.158 0 5.371.163 8.236.456-.326 12.826-7.78 20.28-17.904 20.28m62.867-73.795c6.478 0 10.775-4.428 10.775-10.124 0-5.86-4.135-10.449-10.775-10.449s-10.775 4.589-10.775 10.286 4.134 10.287 10.775 10.287m-8.724 85.351h17.252v-70.605h-17.252zm119.394-72.526c-10.612 0-18.359 4.915-22.949 12.533-3.646-7.78-11.1-12.533-21.224-12.533-9.993 0-17.741 4.753-22.493 13.151l-3.483-11.23h-11.719v70.605h17.252v-37.825c0-9.506 4.916-19.174 15.691-19.174 7.747 0 11.556 6.023 11.556 13.314v43.685h17.089v-37.825c0-9.506 4.916-19.174 15.853-19.174 6.966 0 11.394 4.916 11.394 13.444v43.555h17.252v-45.443c0-16.634-8.691-27.083-24.219-27.083m65.54 74.121c15.527 0 26.139-8.236 26.139-21.387 0-11.718-8.854-17.578-21.224-22.168-7.584-2.701-12.825-5.371-12.825-9.96 0-4.46 4.59-6.023 9.993-6.023 4.753 0 10.45 1.433 15.658 4.102l6.022-11.556c-7.585-4.427-15.039-6.315-23.112-6.315-13.476 0-25.032 6.803-25.032 19.792 0 11.556 8.724 17.415 19.954 21.679 6.966 2.702 13.639 5.209 13.639 10.449 0 4.428-4.134 7.292-10.481 7.292-6.641 0-13.282-2.051-19.304-5.859l-6.803 12.174c8.235 5.241 16.927 7.78 27.376 7.78m138.09-109.277-19.173 30.403c-2.995 4.916-5.697 9.343-8.073 14.909-2.539-5.403-5.078-9.83-8.236-14.909l-19.303-30.403h-21.224v.488l39.258 60.482v46.712h18.684v-46.712l39.258-60.482v-.488zm45.91 35.156c-21.387 0-36.426 16.309-36.426 37.044 0 22.168 15.527 37.533 38.151 37.533 10.938 0 19.499-3.32 27.572-9.798l-7.292-11.101c-4.915 4.297-10.612 6.641-18.685 6.641-11.393 0-20.28-5.99-22.493-17.415h50.683c.293-2.832.619-5.697.619-8.203 0-21.224-12.175-34.701-32.129-34.701m-.326 14.095c9.017 0 15.69 5.859 16.146 17.09h-34.831c1.921-10.905 9.343-17.09 18.685-17.09m75.046-13.444c-9.506 0-19.141 2.539-29.59 7.259l4.883 13.151c7.291-3.483 15.039-5.696 22.005-5.696 9.049 0 14.42 3.645 14.42 10.937v3.158c-2.539-.163-5.208-.326-8.854-.326-21.549 0-35.807 8.887-35.807 25.033 0 12.5 9.18 19.791 22.168 19.791 11.556 0 19.954-4.589 25.195-12.044l3.158 10.612h11.556v-45.605c0-17.09-11.068-26.27-29.134-26.27m-5.697 60.319c-6.348 0-10.124-2.995-10.124-8.561 0-7.747 7.259-12.175 19.792-12.175 3.158 0 5.371.163 8.236.456-.326 12.826-7.78 20.28-17.904 20.28m89.627-60.644c-9.18 0-16.309 4.101-20.443 12.044l-3.32-10.449h-11.719v70.605h17.252v-38.476c0-11.231 6.836-17.741 16.797-17.741 3.646 0 6.478.651 9.18 1.595l4.427-14.584c-3.32-1.888-7.259-2.994-12.174-2.994m82.49 73.795c8.073 0 14.876-2.376 21.354-6.51l-5.534-12.989c-3.939 2.54-7.747 3.646-11.881 3.646-4.59 0-7.748-2.05-7.748-9.017v-32.617h21.843v-14.713h-21.843V95.615h-16.797l-.455 22.657h-12.5v13.769l12.5.944v34.343c0 15.852 8.398 23.144 21.061 23.144m64.61.456c22.168 0 37.988-15.495 37.988-37.37 0-21.842-15.82-37.207-37.988-37.207s-37.858 15.365-37.858 37.207c0 21.875 15.69 37.37 37.858 37.37m0-15.365c-12.044 0-20.443-9.017-20.443-22.005s8.399-22.005 20.443-22.005c12.174 0 20.41 9.017 20.41 22.005s-8.236 22.005-20.41 22.005m92.46 13.314h38.639c33.073 0 54.753-22.493 54.753-53.678 0-31.348-22.299-54.004-54.916-54.004H2025.5zm18.685-16.146V97.373h18.977c22.657 0 36.752 15.983 36.752 37.826 0 21.842-13.933 37.532-36.589 37.532zm118.895-55.729c-9.505 0-19.141 2.539-29.59 7.259l4.883 13.151c7.292-3.483 15.039-5.696 22.005-5.696 9.05 0 14.421 3.645 14.421 10.937v3.158c-2.539-.163-5.209-.326-8.854-.326-21.55 0-35.808 8.887-35.808 25.033 0 12.5 9.18 19.791 22.168 19.791 11.556 0 19.955-4.589 25.196-12.044l3.157 10.612h11.556v-45.605c0-17.09-11.068-26.27-29.134-26.27m-5.697 60.319c-6.347 0-10.123-2.995-10.123-8.561 0-7.747 7.259-12.175 19.791-12.175 3.158 0 5.371.163 8.236.456-.325 12.826-7.78 20.28-17.904 20.28m79.487 13.151c8.073 0 14.877-2.376 21.355-6.51l-5.534-12.989c-3.939 2.54-7.748 3.646-11.882 3.646-4.59 0-7.747-2.05-7.747-9.017v-32.617h21.842v-14.713h-21.842V95.615h-16.797l-.456 22.657h-12.5v13.769l12.5.944v34.343c0 15.852 8.399 23.144 21.061 23.144m63.18-74.121c-21.387 0-36.426 16.309-36.426 37.044 0 22.168 15.527 37.533 38.151 37.533 10.938 0 19.499-3.32 27.572-9.798l-7.292-11.101c-4.915 4.297-10.612 6.641-18.685 6.641-11.393 0-20.28-5.99-22.493-17.415h50.683c.293-2.832.619-5.697.619-8.203 0-21.224-12.175-34.701-32.129-34.701m-.326 14.095c9.017 0 15.69 5.859 16.146 17.09h-34.831c1.921-10.905 9.343-17.09 18.685-17.09m134.946 51.888c20.411 0 31.511-11.849 31.511-33.431V78.558h-9.766v70.182c0 15.918-7.78 24.447-21.745 24.447-8.561 0-16.048-2.539-22.949-8.105l-4.948 7.975c8.561 6.282 17.546 9.277 27.897 9.277m79.64-68.848c-8.398 0-16.927 2.116-25.944 6.316l3.158 7.78c7.357-3.451 14.681-5.534 21.907-5.534 10.189 0 16.797 4.655 16.797 13.932v4.525c-3.45-.456-7.194-.619-12.142-.619-19.531 0-33.17 8.561-33.17 23.405 0 11.393 8.268 18.457 21.159 18.457 11.686 0 20.247-5.241 25.032-13.216l1.66 12.012h6.739v-44.108c0-15.007-10.026-22.95-25.196-22.95m-6.738 59.701c-8.236 0-13.053-3.906-13.053-10.482 0-9.765 9.31-15.169 24.902-15.169 4.362 0 7.194.163 10.807.618-.455 15.137-9.017 25.033-22.656 25.033m86.698-60.286c-11.231 0-19.336 5.533-23.242 12.597l-2.116-11.263h-6.901v66.309h9.179v-35.71c0-13.802 8.822-23.405 22.168-23.405 11.101 0 15.332 7.227 15.332 18.457v40.658h9.147v-40.495c0-17.253-8.105-27.148-23.567-27.148m91.35 1.334v33.008c0 14.095-7.812 25.944-20.996 25.944-11.849 0-16.048-7.65-16.048-18.457v-40.495h-9.147V154.6c0 16.178 7.649 27.148 24.153 27.148 10.938 0 18.425-5.696 22.331-12.76l1.823 11.556h7.031v-66.309zm56.69-.749c-8.398 0-16.927 2.116-25.944 6.316l3.158 7.78c7.357-3.451 14.681-5.534 21.907-5.534 10.189 0 16.797 4.655 16.797 13.932v4.525c-3.45-.456-7.194-.619-12.142-.619-19.531 0-33.17 8.561-33.17 23.405 0 11.393 8.268 18.457 21.159 18.457 11.686 0 20.247-5.241 25.032-13.216l1.66 12.012h6.739v-44.108c0-15.007-10.026-22.95-25.196-22.95m-6.738 59.701c-8.236 0-13.053-3.906-13.053-10.482 0-9.765 9.309-15.169 24.902-15.169 4.362 0 7.194.163 10.807.618-.456 15.137-9.017 25.033-22.656 25.033m82.498-60.286c-9.309 0-15.592 4.199-19.335 11.1l-1.823-9.766h-6.901v66.309h9.179v-38.412c0-12.89 7.324-20.54 18.132-20.54 3.743 0 6.315.749 8.854 1.66l2.702-8.105c-2.995-1.368-6.608-2.246-10.808-2.246m71.54 1.334-17.22 42.448c-1.53 3.776-3.027 7.65-4.525 12.305-1.497-4.655-3.125-8.399-4.785-12.305l-19.043-42.448h-9.603v.293l28.939 64.356-14.714 34.375v.293h9.603l40.821-99.024v-.293zm74.41 57.455c-2.539 0-6.608 0-9.895.162 1.953-2.408 4.362-5.566 6.152-7.942l21.907-28.809c10.027-13.509 13.184-19.954 13.184-29.264 0-14.844-10.351-25.944-26.693-25.944-12.011 0-20.866 6.315-27.897 15.592l7.194 5.567c5.111-7.194 11.686-12.142 20.541-12.142 10.807 0 17.122 7.487 17.122 17.545 0 6.576-3.027 12.435-10.221 22.038l-37.045 49.349v2.702h59.408v-8.854zm82.95 10.351c21.745 0 34.961-19.792 34.961-51.139 0-31.218-13.216-51.009-34.961-51.009s-34.798 19.791-34.798 51.009c0 31.347 13.053 51.139 34.798 51.139m0-9.147c-15.593 0-24.903-16.341-24.903-41.992s9.31-41.992 24.903-41.992c15.755 0 25.032 16.341 25.032 41.992s-9.277 41.992-25.032 41.992m72.9-1.204c-2.54 0-6.609 0-9.896.162 1.953-2.408 4.362-5.566 6.152-7.942l21.908-28.809c10.026-13.509 13.183-19.954 13.183-29.264 0-14.844-10.351-25.944-26.693-25.944-12.011 0-20.865 6.315-27.897 15.592l7.194 5.567c5.111-7.194 11.687-12.142 20.541-12.142 10.807 0 17.122 7.487 17.122 17.545 0 6.576-3.027 12.435-10.221 22.038l-37.045 49.349v2.702h59.408v-8.854zm71.85-51.888c-3.744 0-7.487.455-11.394 1.204l4.037-30.762h37.793V81.39h-45.736l-6.315 48.145 1.66 1.66c4.948-1.791 11.1-2.995 17.546-2.995 13.346 0 26.4 5.404 26.4 22.038 0 13.672-9.896 22.819-23.08 22.819-10.058 0-17.708-3.776-22.656-10.677l-6.608 6.022c6.445 8.691 16.341 13.802 28.646 13.802 19.043 0 33.463-12.923 33.463-31.966 0-19.499-14.551-30.436-33.756-30.436m77.56 22.656h84.277v7.487h-84.277zm137.4 38.086h32.845c31.348 0 51.888-21.289 51.888-50.847 0-29.687-21.126-51.139-52.05-51.139h-32.683zm9.896-8.985V87.542h22.787c25.52 0 42.317 18.295 42.317 42.155 0 23.698-16.666 41.862-42.155 41.862zm123.764-58.951c-19.661 0-33.463 15.429-33.463 34.635 0 20.54 14.095 34.961 34.212 34.961 10.482 0 18.587-3.613 25.326-10.059l-5.241-6.608c-5.111 5.241-10.938 8.106-20.248 8.106-12.435 0-23.242-8.399-24.739-22.494h53.092c.293-2.246.456-4.362.456-6.445 0-19.369-10.97-32.096-29.395-32.096m-.162 8.528c12.142 0 20.247 7.813 20.54 21.908h-44.238c1.79-13.216 11.393-21.908 23.698-21.908m75.452 61.068c11.556 0 18.75-3.451 25.651-9.896l-5.111-6.608c-5.404 5.078-10.807 7.943-19.792 7.943-13.802 0-24.446-10.515-24.446-26.4 0-15.592 10.774-25.944 24.577-25.944 7.812 0 13.053 2.083 18.457 6.738l5.24-6.282c-6.738-6.022-14.095-9.017-23.697-9.017-18.002 0-33.887 12.597-33.887 34.505 0 22.786 16.504 34.961 33.008 34.961m68.56-69.596c-19.661 0-33.463 15.429-33.463 34.635 0 20.54 14.095 34.961 34.212 34.961 10.482 0 18.587-3.613 25.326-10.059l-5.241-6.608c-5.111 5.241-10.938 8.106-20.248 8.106-12.435 0-23.242-8.399-24.739-22.494h53.092c.293-2.246.456-4.362.456-6.445 0-19.369-10.97-32.096-29.395-32.096m-.162 8.528c12.141 0 20.247 7.813 20.54 21.908h-44.238c1.79-13.216 11.393-21.908 23.698-21.908m121.482-8.235c-11.1 0-18.75 5.24-23.079 13.346-3.158-8.399-10.515-13.346-20.573-13.346-9.57 0-17.22 4.654-21.582 12.727l-2.116-11.393h-6.901v66.309h9.18v-34.505c0-12.435 6.868-24.61 20.377-24.61 10.059 0 14.714 7.813 14.714 16.96v42.155h9.147v-34.505c0-12.435 6.901-24.61 20.247-24.61 9.31 0 14.714 6.478 14.714 17.123v41.992h9.147v-41.537c0-16.048-8.106-26.106-23.275-26.106m80.25 0c-10.807 0-20.247 4.785-25.651 12.89.163-5.859.326-12.012.326-18.294V72.992h-9.18v107.552h7.064l1.334-11.556c5.567 8.105 14.877 13.053 26.107 13.053 19.662 0 33.301-14.713 33.301-34.961 0-19.629-13.802-34.179-33.301-34.179m-.586 60.449c-15.299 0-25.195-10.97-25.195-25.944 0-15.007 10.189-25.977 25.195-25.977 14.681 0 24.74 10.807 24.74 25.977 0 15.136-10.059 25.944-24.74 25.944m81.166-60.742c-19.661 0-33.463 15.429-33.463 34.635 0 20.54 14.095 34.961 34.212 34.961 10.482 0 18.587-3.613 25.325-10.059l-5.24-6.608c-5.111 5.241-10.938 8.106-20.248 8.106-12.435 0-23.242-8.399-24.739-22.494h53.092c.293-2.246.456-4.362.456-6.445 0-19.369-10.97-32.096-29.395-32.096m-.163 8.528c12.142 0 20.248 7.813 20.541 21.908h-44.238c1.79-13.216 11.393-21.908 23.697-21.908m75.293-8.235c-9.31 0-15.593 4.199-19.336 11.1l-1.823-9.766h-6.901v66.309h9.179v-38.412c0-12.89 7.325-20.54 18.132-20.54 3.743 0 6.315.749 8.854 1.66l2.702-8.105c-2.995-1.368-6.608-2.246-10.807-2.246m75.3 58.789c-2.539 0-6.609 0-9.896.162 1.953-2.408 4.362-5.566 6.152-7.942l21.908-28.809c10.026-13.509 13.183-19.954 13.183-29.264 0-14.844-10.351-25.944-26.692-25.944-12.012 0-20.866 6.315-27.898 15.592l7.194 5.567c5.111-7.194 11.687-12.142 20.541-12.142 10.807 0 17.122 7.487 17.122 17.545 0 6.576-3.027 12.435-10.221 22.038l-37.044 49.349v2.702h59.407v-8.854zm82.96 10.351c21.745 0 34.961-19.792 34.961-51.139 0-31.218-13.216-51.009-34.961-51.009s-34.798 19.791-34.798 51.009c0 31.347 13.053 51.139 34.798 51.139m0-9.147c-15.592 0-24.902-16.341-24.902-41.992s9.31-41.992 24.902-41.992c15.755 0 25.033 16.341 25.033 41.992s-9.278 41.992-25.033 41.992m72.89-1.204c-2.539 0-6.608 0-9.896.162 1.953-2.408 4.362-5.566 6.152-7.942l21.908-28.809c10.026-13.509 13.183-19.954 13.183-29.264 0-14.844-10.351-25.944-26.692-25.944-12.012 0-20.866 6.315-27.898 15.592l7.194 5.567c5.111-7.194 11.687-12.142 20.541-12.142 10.807 0 17.122 7.487 17.122 17.545 0 6.576-3.027 12.435-10.221 22.038l-37.044 49.349v2.702h59.407v-8.854zm71.86-51.888c-3.744 0-7.487.455-11.393 1.204l4.036-30.762h37.793V81.39h-45.736l-6.315 48.145 1.66 1.66c4.948-1.791 11.101-2.995 17.546-2.995 13.346 0 26.4 5.404 26.4 22.038 0 13.672-9.896 22.819-23.08 22.819-10.058 0-17.708-3.776-22.656-10.677l-6.608 6.022c6.445 8.691 16.341 13.802 28.646 13.802 19.043 0 33.463-12.923 33.463-31.966 0-19.499-14.55-30.436-33.756-30.436" style="fill:#fefefe;fill-rule:nonzero"/><path d="M5300.26 389.171v-.005c0-48.775-40.135-88.91-88.91-88.91H126.826c-46.887 0-84.896 38.01-84.896 84.896v3655.97c0 56.777 46.027 102.803 102.803 102.803h5052.73c56.777 0 102.803-46.026 102.803-102.803V389.172z" style="fill:url(#a);fill-rule:nonzero"/><path d="M125.256 300.256h5091.67c5.469 0 10.905.521 16.244 1.596a85 85 0 0 1 15.657 4.752c5.046 2.083 9.831 4.655 14.388 7.682a84 84 0 0 1 12.63 10.385 84 84 0 0 1 10.385 12.63 83.7 83.7 0 0 1 7.682 14.388 85 85 0 0 1 4.752 15.657 82 82 0 0 1 1.595 16.244v3658.33c0 6.576-.651 13.086-1.92 19.499-1.27 6.445-3.19 12.695-5.697 18.782a100 100 0 0 1-9.245 17.286c-3.645 5.436-7.779 10.514-12.434 15.136-4.623 4.655-9.701 8.789-15.137 12.435a100.3 100.3 0 0 1-17.285 9.245c-6.088 2.506-12.338 4.427-18.783 5.697a100.3 100.3 0 0 1-19.499 1.92H141.929c-6.575 0-13.053-.651-19.499-1.92-6.445-1.27-12.695-3.191-18.782-5.697a100 100 0 0 1-17.285-9.245c-5.436-3.646-10.515-7.78-15.137-12.435-4.655-4.622-8.789-9.7-12.435-15.136a100.3 100.3 0 0 1-9.245-17.286c-2.506-6.087-4.427-12.337-5.696-18.782a100 100 0 0 1-1.921-19.499V383.59a82.3 82.3 0 0 1 1.595-16.244 85 85 0 0 1 4.753-15.657c2.083-5.046 4.655-9.831 7.682-14.388a84 84 0 0 1 10.384-12.63 84 84 0 0 1 12.63-10.385c4.558-3.027 9.343-5.599 14.388-7.682a85 85 0 0 1 15.658-4.752 82 82 0 0 1 16.243-1.596z" style="fill:none;fill-rule:nonzero;stroke:#0c85b0;stroke-width:4.17px"/><path d="M75.256 3983.59v-3525a125.8 125.8 0 0 1 9.506-47.852c3.157-7.552 6.998-14.778 11.556-21.582a122.3 122.3 0 0 1 15.56-18.945 122.3 122.3 0 0 1 18.945-15.56c6.803-4.557 14.03-8.398 21.582-11.556a126 126 0 0 1 23.47-7.096 125 125 0 0 1 24.381-2.409h4941.67c8.203 0 16.341.814 24.382 2.409a124.8 124.8 0 0 1 23.437 7.096c7.585 3.158 14.811 6.999 21.615 11.556a122.3 122.3 0 0 1 18.945 15.56 122.3 122.3 0 0 1 15.56 18.945c4.557 6.804 8.398 14.03 11.556 21.582a126 126 0 0 1 7.096 23.47 125 125 0 0 1 2.409 24.382v3525c0 8.203-.814 16.341-2.409 24.381a124.8 124.8 0 0 1-7.096 23.438c-3.158 7.584-6.999 14.811-11.556 21.614a122.3 122.3 0 0 1-15.56 18.946 122.3 122.3 0 0 1-18.945 15.56c-6.804 4.557-14.03 8.398-21.615 11.556a124.8 124.8 0 0 1-23.437 7.096 125 125 0 0 1-24.382 2.409H200.256c-8.203 0-16.341-.814-24.381-2.409a126 126 0 0 1-23.47-7.096c-7.552-3.158-14.779-6.999-21.582-11.556a122.3 122.3 0 0 1-18.945-15.56 122.3 122.3 0 0 1-15.56-18.946c-4.558-6.803-8.399-14.03-11.556-21.614a125 125 0 0 1-7.097-23.438 125 125 0 0 1-2.409-24.381Z" style="fill:#e8f6ed;fill-rule:nonzero;stroke:#037307;stroke-width:8.33px"/><path d="M108.59 1316.92v-825c0-8.203.814-16.341 2.409-24.381a126 126 0 0 1 7.096-23.47c3.158-7.553 6.999-14.779 11.556-21.582a122.3 122.3 0 0 1 15.56-18.946 122.3 122.3 0 0 1 18.945-15.56c6.804-4.557 14.03-8.398 21.582-11.556a126 126 0 0 1 23.47-7.096 125 125 0 0 1 24.382-2.409h4875c8.203 0 16.341.814 24.381 2.409a124.8 124.8 0 0 1 23.438 7.096c7.584 3.158 14.811 6.999 21.614 11.556a122.4 122.4 0 0 1 18.946 15.56 122.4 122.4 0 0 1 15.56 18.946c4.557 6.803 8.398 14.029 11.556 21.582a126 126 0 0 1 7.096 23.47 125 125 0 0 1 2.409 24.381v825c0 8.203-.814 16.341-2.409 24.382a124.8 124.8 0 0 1-7.096 23.437c-3.158 7.585-6.999 14.811-11.556 21.615a122.3 122.3 0 0 1-15.56 18.945 122.3 122.3 0 0 1-18.946 15.56c-6.803 4.557-14.03 8.398-21.614 11.556a124.8 124.8 0 0 1-23.438 7.096 125 125 0 0 1-24.381 2.409h-4875a125 125 0 0 1-24.382-2.409 126 126 0 0 1-23.47-7.096c-7.552-3.158-14.778-6.999-21.582-11.556a122.3 122.3 0 0 1-18.945-15.56 122.3 122.3 0 0 1-15.56-18.945c-4.557-6.804-8.398-14.03-11.556-21.615a124.8 124.8 0 0 1-7.096-23.437 125 125 0 0 1-2.409-24.382Z" style="fill:#fdfdfd;fill-rule:nonzero;stroke:#3fa111;stroke-width:4.17px"/><path d="m531.237 1168.97 34.115-28.939c-40.82-51.66-65.104-132.259-65.104-218.522 0-86.295 24.284-166.894 65.104-218.554l-34.115-28.939c-49.088 56.836-82.161 148.274-82.161 247.493 0 99.186 33.073 190.625 82.161 247.461m180.837-447.427c-68.197 0-113.672 46.517-113.672 113.151 0 69.238 47.526 105.924 103.353 105.924 27.376 0 51.139-6.705 69.206-24.284-11.361 61.491-56.836 102.8-136.914 108.497l7.259 50.618c133.789-10.319 190.625-96.094 190.625-215.951 0-75.423-36.686-137.955-119.857-137.955m1.562 169.987c-31.022 0-56.835-19.108-56.835-57.878 0-36.165 24.804-58.887 56.835-58.887 34.083 0 58.366 23.243 58.366 57.878 0 37.695-23.763 58.887-58.366 58.887m210.625 36.556c37.403 0 57.227-27.865 57.227-56.446 0-28.255-19.824-56.119-57.227-56.119-37.76 0-57.194 27.864-57.194 56.119 0 28.581 19.434 56.446 57.194 56.446m-15.397 141.178h34.831l143.392-249.349h-34.473zm15.397-169.043c-19.043 0-25.651-15.755-25.651-28.581 0-12.858 6.608-28.613 25.651-28.613 19.076 0 25.684 15.755 25.684 28.613 0 12.826-6.608 28.581-25.684 28.581m145.573 173.438c37.76 0 57.194-27.865 57.194-56.088 0-28.613-19.434-56.477-57.194-56.477s-56.836 27.864-56.836 56.477c0 28.223 19.076 56.088 56.836 56.088m0-27.507c-19.075 0-25.651-15.755-25.651-28.581s6.576-28.613 25.651-28.613c19.434 0 25.684 15.788 25.684 28.613 0 12.826-6.25 28.581-25.684 28.581m116.096-372.135-33.561 28.939c40.3 51.66 64.584 132.259 64.584 218.554 0 86.263-24.284 166.862-64.584 218.522l33.561 28.939c49.089-56.836 82.683-148.275 82.683-247.461 0-99.219-33.594-190.657-82.683-247.493" style="fill:#006008;fill-rule:nonzero"/><path d="m1764.12 812.138 65.267-65.267-65.267-65.267-130.534 130.534 130.534 130.534 130.534-130.534-32.65-32.65-97.884 97.917-65.267-65.267 32.617-32.65zm244.856 47.363 52.507-157.584h43.717l-77.669 212.923h-37.467l-77.539-212.923h43.261zm197.592-163.021c27.278 0 48.339 7.39 63.378 21.778 15.235 14.485 23.568 31.022 25.228 49.479l.619 6.738h-38.151l-1.074-4.752c-2.702-11.524-7.943-20.704-15.951-27.409-8.008-6.771-19.303-9.896-33.756-9.896-17.839 0-32.26 6.217-43.23 18.717-11.36 12.989-16.699 32.976-16.699 59.766 0 21.94 4.981 39.811 15.202 53.451 9.863 13.118 24.642 19.466 44.173 19.466 17.774 0 31.348-6.739 40.658-20.41 5.11-7.52 8.952-17.448 11.458-29.721l1.009-4.915h38.412l-.749 6.869c-2.539 22.493-10.905 41.373-25.098 56.608-17.057 18.424-40.006 27.799-68.978 27.799-24.934 0-45.865-7.65-62.825-22.754-21.973-19.661-33.301-49.935-33.301-91.015 0-31.218 8.366-56.739 24.87-76.693 18.099-22.005 43.001-33.106 74.805-33.106m157.194 5.437V914.84h-39.779V701.917zM1743.03 1015.26l-39.941 87.467c-2.214 4.753-5.144 11.165-6.967 16.309-1.66-4.59-3.678-8.985-6.803-15.756l-40.527-88.02h-12.631v.39l57.943 125.196h4.004l57.943-125.196v-.39zm47.12 42.7c-10.254 0-20.703 2.572-31.706 7.715l3.841 9.538c8.985-4.232 17.969-6.771 26.758-6.771 12.468 0 20.54 5.664 20.54 17.024v5.502c-4.199-.554-8.789-.716-14.843-.716-23.828 0-40.528 10.449-40.528 28.58 0 13.933 10.092 22.559 25.847 22.559 14.323 0 24.772-6.413 30.631-16.146l2.018 14.681h8.236v-53.906c0-18.327-12.272-28.06-30.794-28.06m-8.236 72.982c-10.091 0-15.95-4.753-15.95-12.826 0-11.914 11.36-18.522 30.436-18.522 5.306 0 8.789.195 13.183.716-.553 18.522-11.002 30.632-27.669 30.632m100.806-73.692c-11.361 0-19.043 5.143-23.633 13.574l-2.213-11.914h-8.431v81.022h11.198v-46.94c0-15.755 8.984-25.098 22.168-25.098 4.59 0 7.715.912 10.84 2.019l3.287-9.929c-3.678-1.627-8.073-2.734-13.216-2.734m35.59-19.63c4.948 0 8.431-3.483 8.431-8.04 0-4.786-3.288-8.464-8.431-8.464s-8.431 3.678-8.431 8.464c0 4.394 3.288 8.04 8.431 8.04m-5.697 102.311h11.198v-81.022h-11.198zm69.307-81.971c-10.254 0-20.704 2.572-31.706 7.715l3.841 9.538c8.984-4.232 17.969-6.771 26.758-6.771 12.467 0 20.54 5.664 20.54 17.024v5.502c-4.199-.554-8.789-.716-14.844-.716-23.828 0-40.527 10.449-40.527 28.58 0 13.933 10.091 22.559 25.846 22.559 14.323 0 24.772-6.413 30.632-16.146l2.018 14.681h8.236v-53.906c0-18.327-12.272-28.06-30.794-28.06m-8.236 72.982c-10.091 0-15.951-4.753-15.951-12.826 0-11.914 11.361-18.522 30.437-18.522 5.305 0 8.789.195 13.183.716-.553 18.522-11.003 30.632-27.669 30.632m108.716-73.692c-13.216 0-24.772 5.859-31.348 15.755.163-7.129.358-14.648.358-22.363v-42.155h-11.198v131.445h8.627l1.66-14.128c6.771 9.896 18.131 15.951 31.901 15.951 23.991 0 40.69-17.969 40.69-42.708 0-24.024-16.862-41.797-40.69-41.797m-.749 73.893c-18.685 0-30.794-13.379-30.794-31.738 0-18.327 12.467-31.706 30.794-31.706 17.969 0 30.241 13.184 30.241 31.706s-12.272 31.738-30.241 31.738m69.859-93.523c4.948 0 8.431-3.483 8.431-8.04 0-4.786-3.288-8.464-8.431-8.464s-8.431 3.678-8.431 8.464c0 4.394 3.288 8.04 8.431 8.04m-5.697 102.311h11.198v-81.022h-11.198zm39.977-.001h11.165l-.162-131.445h-11.198zm45.47-102.31c4.948 0 8.431-3.483 8.431-8.04 0-4.786-3.288-8.464-8.431-8.464s-8.431 3.678-8.431 8.464c0 4.394 3.288 8.04 8.431 8.04m-5.697 102.311h11.198v-81.022h-11.198zm66.927 1.469c8.431 0 15.951-3.125 22.005-7.682l-4.947-8.464c-5.144 3.678-10.287 5.501-15.951 5.501-7.161 0-11.393-3.483-11.393-13.737v-48.209h28.971v-9.896h-28.971v-26.953h-11.166v26.953h-15.755v9.147l15.755.749v48.209c0 16.7 8.236 24.382 21.452 24.382m96.08-82.49-21.094 51.888c-1.823 4.557-3.679 9.342-5.501 15.006-1.823-5.664-3.842-10.253-5.86-15.006l-23.275-51.888h-11.751v.358l35.384 78.646-17.969 41.992v.358h11.752l49.87-120.996v-.358zm125.2 83.23c22.005 0 39.063-10.287 49.316-25.131l-8.626-6.77c-9.147 12.272-23.079 20.703-40.69 20.703-30.241 0-51.139-24.024-51.139-53.548 0-30.241 21.061-53.158 51.139-53.158 17.773 0 29.883 6.25 39.779 16.504l7.161-7.324c-13.216-13.379-27.311-20.345-46.94-20.345-37.044 0-63.249 27.474-63.249 64.323 0 35.579 25.684 64.746 63.249 64.746m104.86-.19c24.74 0 42.188-17.61 42.188-42.545s-17.448-42.513-42.188-42.513c-24.381 0-41.796 17.578-41.796 42.513s17.415 42.545 41.796 42.545m0-10.449c-17.968 0-30.436-13.216-30.436-32.096 0-18.685 12.468-32.064 30.436-32.064 18.327 0 30.795 13.379 30.795 32.064 0 18.88-12.631 32.096-30.795 32.096m86.55 9.899c15.95 0 27.506-9.18 27.506-22.721 0-13.575-11.198-19.987-25.846-25.489-9.538-3.678-17.057-7.324-17.057-14.681 0-7.519 7.324-10.254 15.592-10.254 6.575 0 13.184 1.823 19.043 5.144l4.948-8.073c-7.324-4.785-15.755-7.357-24.544-7.357-13.77 0-26.237 6.999-26.237 20.54 0 13.021 11.002 19.271 24.218 24.382 9.701 3.874 18.685 7.91 18.685 15.788 0 7.324-6.413 12.272-16.308 12.272-8.985 0-16.7-2.214-23.828-7.324l-5.697 8.789c8.626 5.859 18.164 8.984 29.525 8.984m75.53 0c8.431 0 15.951-3.125 22.005-7.682l-4.948-8.464c-5.143 3.678-10.286 5.501-15.95 5.501-7.162 0-11.393-3.483-11.393-13.737v-48.209h28.971v-9.896h-28.971v-26.953h-11.166v26.953h-15.755v9.147l15.755.749v48.209c0 16.7 8.236 24.382 21.452 24.382m84.51-126.14h12.109v124.674h-12.109zm84.15 41.99c-13.737 0-23.633 6.771-28.418 15.397l-2.572-13.737h-8.431v81.022h11.198v-43.62c0-16.894 10.807-28.613 27.116-28.613 13.574 0 18.717 8.789 18.717 22.559v49.674h11.166v-49.512c0-21.061-9.896-33.17-28.776-33.17m122.1-48.76v42.155c0 7.715.196 15.039.358 22.005-6.575-9.538-18.131-15.397-31.347-15.397-23.828 0-40.69 17.773-40.69 41.797 0 24.739 16.699 42.708 40.69 42.708 14.127 0 25.325-6.217 31.901-16.309l1.66 14.486h8.626V1008.49zm-30.241 122.656c-17.968 0-30.24-13.216-30.24-31.738s12.272-31.706 30.24-31.706c18.327 0 30.599 13.379 30.599 31.706 0 18.359-11.914 31.738-30.599 31.738m105.041-74.256c-24.023 0-40.885 18.88-40.885 42.35 0 25.098 17.22 42.708 41.796 42.708 12.826 0 22.754-4.394 30.99-12.272l-6.413-8.073c-6.25 6.413-13.379 9.896-24.739 9.896-15.235 0-28.418-10.254-30.274-27.506h64.909c.358-2.735.554-5.306.554-7.878 0-23.665-13.379-39.225-35.938-39.225m-.195 10.449c14.876 0 24.772 9.538 25.13 26.758h-54.069c2.181-16.146 13.932-26.758 28.939-26.758m46.385 72.591h12.468l16.894-23.47c2.539-3.483 4.558-6.771 7.129-11.003 2.376 4.232 4.395 7.325 6.966 10.808l16.699 23.665h12.826v-.358l-30.078-42.35 27.148-37.956v-.358h-12.467l-14.486 20.15c-2.018 2.929-4.394 6.412-6.608 10.091-2.181-3.841-4.199-6.966-6.413-9.896l-14.29-20.345h-12.826v.358l27.116 37.956-30.078 42.35z" style="fill-rule:nonzero"/><path d="M3608.59 574.345h1433.33c5.469 0 10.905.553 16.244 1.595a85 85 0 0 1 15.657 4.753 81.6 81.6 0 0 1 14.388 7.715 82 82 0 0 1 12.63 10.351 84 84 0 0 1 10.385 12.63c3.027 4.558 5.598 9.343 7.682 14.421a84 84 0 0 1 4.752 15.625 82.5 82.5 0 0 1 1.595 16.243v501.823c0 5.469-.52 10.873-1.595 16.244a84 84 0 0 1-4.752 15.625c-2.084 5.078-4.655 9.863-7.682 14.42a84 84 0 0 1-10.385 12.631 82 82 0 0 1-12.63 10.351 81.6 81.6 0 0 1-14.388 7.715 85 85 0 0 1-15.657 4.753 85 85 0 0 1-16.244 1.595H3608.59a85 85 0 0 1-16.244-1.595 85 85 0 0 1-15.657-4.753 80.4 80.4 0 0 1-14.388-7.715 82 82 0 0 1-12.63-10.351 84 84 0 0 1-10.385-12.631c-3.027-4.557-5.599-9.342-7.682-14.42a84 84 0 0 1-4.752-15.625 82.5 82.5 0 0 1-1.596-16.244V657.678a82.5 82.5 0 0 1 1.596-16.243 84 84 0 0 1 4.752-15.625c2.083-5.078 4.655-9.863 7.682-14.421a84 84 0 0 1 10.385-12.63 82 82 0 0 1 12.63-10.351 80.4 80.4 0 0 1 14.388-7.715 85 85 0 0 1 15.657-4.753 85 85 0 0 1 16.244-1.595Z" style="fill:#fefefe;fill-rule:nonzero;stroke:#bdbdbd;stroke-width:4.17px"/><path d="M3730.6 978.905c-8.125 0-16.25.975-24.7 2.6l8.775-66.625h81.9v-19.175h-99.125l-13.65 104.325 3.575 3.575c10.725-3.9 24.05-6.5 38.025-6.5 28.925 0 57.2 11.7 57.2 47.775 0 29.575-21.45 49.4-50.05 49.4-21.775 0-38.35-8.125-49.075-23.075l-14.3 13c13.975 18.85 35.425 29.9 62.075 29.9 41.275 0 72.475-27.95 72.475-69.225 0-42.25-31.525-65.975-73.125-65.975M3906.1 1113.45c43.55 0 72.15-23.4 72.15-62.075 0-28.6-19.5-50.05-40.95-55.575 18.2-6.825 34.125-22.75 34.125-47.775 0-33.15-25.675-55.575-65-55.575s-65.975 22.425-65.975 55.575c0 26.325 15.925 41.275 35.425 47.775-24.7 6.175-41.925 26.975-41.925 55.25 0 38.35 28.6 62.4 72.15 62.4m.325-127.4c-26.65 0-44.85-13.975-44.85-37.7 0-21.45 18.525-36.4 44.85-36.4 26 0 43.875 14.95 43.875 36.4 0 22.75-17.55 37.7-43.875 37.7m-.325 107.575c-28.925 0-50.7-16.575-50.7-42.575 0-26.975 20.475-45.175 50.05-45.175 31.2 0 51.025 17.225 51.025 45.175 0 26.65-21.125 42.575-50.375 42.575M3880.82 733.394h-18.099l13.932 90.333h12.663l25.846-57.911h.228l8.464 57.911h12.695l44.238-90.333h-18.099l-26.92 60.385h-.228l-8.626-61.556h-10.189l-27.376 61.556h-.228zm113.15 55.437h8.594c18.066 0 29.752-9.147 32.715-27.963 3.19-20.084-7.748-27.474-26.303-27.474h-23.502l-13.998 88.575h17.286zm6.51-41.114h3.06c9.636 0 15.951 1.661 14.128 13.054-1.823 11.491-7.682 13.737-17.904 13.737h-3.515zm73.8 36.882c12.207-1.986 20.215-13.281 21.973-24.544 2.994-18.913-7.878-26.661-25.391-26.661h-23.372l-13.998 88.575h17.285l5.632-35.71h.228l15.853 35.71h20.931zm-11.751-37.109h2.343c9.18 0 15.756 2.115 14.063 13.053-1.725 10.775-8.854 13.607-18.392 13.607h-2.214zm99.121-6.576c-4.46-5.99-14.746-9.863-22.624-9.863-14.909 0-27.734 11.849-30.046 26.53-2.181 13.737 5.274 19.498 15.918 24.218 6.511 2.702 14.551 5.274 13.086 14.421-1.074 6.836-6.347 12.826-13.411 12.826-7.389 0-12.663-6.12-13.932-12.924l-12.891 10.938c4.525 10.189 12.305 17.252 24.544 17.252 18.067 0 31.12-12.565 33.92-30.306 4.687-29.72-31.413-23.502-29.07-38.411.912-5.762 6.869-9.993 12.403-9.993 5.762 0 9.538 2.832 12.109 7.291zm-430.37 23.73h41.048v22.559h-41.048zm42.64 30.306h22.689v40.723h-22.689z" style="fill-rule:nonzero"/><path d="M3785.12 760.738c8.789.098 14.648-6.413 14.648-15.104 0-17.318-13.281-36.426-13.281-36.426s-14.974 18.75-15.593 35.059c-.455 12.077 6.088 16.374 14.226 16.471m12.34 15.625c-.098-8.789 6.38-14.648 15.039-14.648 17.253 0 36.263 13.314 36.263 13.314s-18.652 14.941-34.896 15.56c-12.011.455-16.308-6.088-16.406-14.226"/><path d="m4029.87 948.499 7.52 39.583c.098.684.456 1.237.781 1.465.391.26 1.009.423 1.791.228l12.955-2.8c4.753-1.107 8.496-.39 11.556 1.628 3.028 1.986 5.078 5.111 6.088 9.863l10.612 44.499 11.979-2.409c5.208-1.009 8.854 3.939 7.194 9.115l-11.947 36.263c-1.562 4.85-7.878 6.054-11.361 2.213l-26.139-28.678c-3.711-4.069-2.539-9.994 2.767-11.035l11.523-2.312-9.44-41.243c-.162-.651-.52-1.172-.911-1.432-.391-.261-1.042-.391-1.758-.228l-13.021 2.832c-4.72 1.139-8.496.39-11.556-1.628-3.027-1.986-5.078-4.948-6.054-9.928l-9.994-41.244c-1.465-5.045.944-9.896 6.055-11.295 5.176-1.4 9.896 1.53 11.36 6.543m87.51 49.551h39.811v13.314h-39.811zm80.14 40.4c19.726 0 32.78-11.068 32.78-26.27 0-9.309-4.916-18.392-16.407-22.265 8.008-4.134 12.403-11.979 12.403-19.727 0-13.053-11.068-23.079-27.474-23.079-11.459 0-20.378 4.264-28.386 13.216l8.659 8.529c4.948-4.948 10.547-8.269 18.132-8.269 8.398 0 13.737 4.948 13.737 11.459 0 6.282-4.916 12.532-15.853 12.532h-9.603v12.826h11.328c8.529 0 17.871 3.06 17.871 13.314 0 8.138-6.934 13.997-18.001 13.997-8.138 0-14.258-3.451-19.466-8.919l-8.952 9.342c7.357 8.268 17.61 13.314 29.232 13.314m56.39 0c4.655 0 9.473-2.93 9.473-9.18 0-6.413-4.818-9.342-9.473-9.342s-9.472 2.929-9.472 9.342c0 6.25 4.817 9.18 9.472 9.18m53.73-15.07c-2.409 0-5.729 0-8.822.131 1.888-1.986 3.874-4.525 5.339-6.511l14.421-19.336c8.919-11.751 11.848-17.871 11.848-26.4 0-13.346-9.993-24.153-25.976-24.153-12.142 0-21.094 6.022-27.734 16.146l10.384 8.007c4.394-6.022 9.472-9.863 16.145-9.863 7.064 0 11.329 4.785 11.329 11.458 0 4.525-2.149 8.92-7.487 16.277l-31.185 41.862v5.859h56.25v-13.477zm-42.09 39.25h18.587c4.72 0 8.561 1.009 11.523 2.963 2.962 1.985 5.111 4.752 6.511 8.333 1.399 3.581 2.083 7.812 2.083 12.663 0 4.915-.716 9.212-2.116 12.89-1.432 3.679-3.613 6.511-6.575 8.561-2.995 2.019-6.771 3.028-11.426 3.028h-18.587zm12.727 11.524v25.618h3.614q2.49 0 4.297-.781a6.8 6.8 0 0 0 2.864-2.376c.749-1.075 1.302-2.377 1.628-3.972.358-1.595.521-3.45.521-5.566 0-2.832-.293-5.208-.912-7.129-.651-1.921-1.627-3.385-2.995-4.329-1.367-.977-3.157-1.465-5.403-1.465zm-27.997 36.906h-12.728v-37.142h-11.393v-11.296h35.514v11.296h-11.393zm-40.24-.03v-18.359l14.909-30.078h-13.509l-7.324 17.708h-.521l-7.324-17.708h-13.965l14.909 30.468v17.969z" style="fill:#16b098;fill-rule:nonzero"/><path d="M4856.7 820.309h-16.83V734.99h20.736l25 65.201 24.87-65.201h20.703v85.319h-16.797v-56.446l-21.712 56.446h-14.258l-21.712-56.316zm-89.258 0h-17.448l34.733-85.319h16.699l34.896 85.319h-17.448l-7.812-19.369h-35.84zm25.716-63.379-11.849 29.264h23.666zm-91.341 65.332c-8.073 0-15.169-1.823-21.354-5.469-6.153-3.678-11.003-8.887-14.486-15.625-3.418-6.836-5.143-14.746-5.143-23.763 0-8.691 1.758-16.374 5.241-23.047q5.371-10.107 15.234-15.723c6.608-3.743 14.291-5.599 23.047-5.599 11.231 0 20.475 3.093 27.8 9.245 7.324 6.185 11.914 14.714 13.769 25.619h-17.285c-1.237-6.088-4.037-10.938-8.431-14.519-4.297-3.58-9.57-5.371-15.853-5.371-8.04 0-14.421 2.702-19.141 8.073-4.687 5.274-7.063 12.37-7.063 21.322 0 6.022 1.074 11.295 3.157 15.853 2.214 4.459 5.274 7.91 9.147 10.351 3.907 2.442 8.464 3.646 13.672 3.646 5.86 0 10.612-1.693 14.258-5.111s5.469-7.747 5.469-13.053h-24.121v-14.127h28.645c6.023 0 10.612 1.497 13.77 4.524 3.19 2.93 4.753 7.194 4.753 12.793v28.028h-14.616v-24.61h-.261c-.879 8.203-4.004 14.714-9.375 19.499-5.371 4.72-12.304 7.064-20.833 7.064m-92.513-55.013c2.93 0 5.306-2.377 5.306-5.339v-23.242c-.001-2.911-2.395-5.305-5.306-5.306h-16.016a3.76 3.76 0 0 1-3.743-3.744v-13.151c0-2.962-2.376-5.338-5.306-5.338h-14.569c-2.918 0-5.32 2.402-5.32 5.32v13.462c0 2.93 2.376 5.306 5.338 5.306h12.924a3.73 3.73 0 0 1 3.71 3.71v22.983c0 2.962 2.376 5.339 5.306 5.339zm-46.712-22.657c0-2.929-2.377-5.306-5.339-5.306h-23.242c-2.911.001-5.305 2.395-5.306 5.306v16.016c0 2.083-1.66 3.744-3.711 3.744h-13.184c-2.911.001-5.305 2.395-5.306 5.306v14.55c0 2.963 2.377 5.339 5.306 5.339h13.444c2.93 0 5.306-2.376 5.306-5.339v-12.923c0-2.051 1.693-3.711 3.744-3.711h22.968c2.918 0 5.32-2.402 5.32-5.32v-17.662m-22.624 46.68c-2.962 0-5.339 2.376-5.339 5.306v23.261c0 2.918 2.402 5.32 5.32 5.32h16.036a3.73 3.73 0 0 1 3.71 3.71v13.184c0 2.93 2.376 5.306 5.338 5.306h14.551c2.911-.001 5.305-2.395 5.306-5.306v-13.444c0-2.929-2.376-5.338-5.306-5.338h-12.923c-2.084 0-3.744-1.66-3.744-3.711v-22.982c-.001-2.911-2.395-5.305-5.306-5.306zm46.647 22.656c.001 2.911 2.395 5.305 5.306 5.306h23.275c2.911-.001 5.305-2.395 5.306-5.306v-16.016a3.73 3.73 0 0 1 3.71-3.71h13.184c2.93 0 5.306-2.409 5.306-5.339v-14.551c-.001-2.911-2.395-5.305-5.306-5.306h-13.444c-2.91.002-5.304 2.396-5.306 5.306v12.924c0 2.05-1.692 3.743-3.743 3.743h-22.982c-2.911.001-5.305 2.395-5.306 5.306z" style="fill:#1f1f1f;fill-rule:nonzero"/><path d="M4591.98 1043.72V895.218h-5.371l-120.02 161.816v5.046h105.762v45.605h19.629v-45.605h24.707v-18.36zm-19.303 0h-74.74c4.753-5.371 8.854-10.774 12.988-16.471l49.089-66.829c4.101-5.99 8.529-11.394 13.281-18.034-.618 8.561-.618 15.202-.618 22.786z" style="fill-rule:nonzero"/><path d="M4660.61 1110.49c6.413 0 13.119-4.2 13.119-12.826 0-8.919-6.706-13.118-13.119-13.118-6.673 0-13.086 4.199-13.086 13.118 0 8.626 6.413 12.826 13.086 12.826m92.24-19.24c-4.72 0-12.239 0-18.392.261 3.646-4.427 8.106-10.287 11.426-14.746l40.69-53.516c18.685-25.065 24.544-37.044 24.544-54.329 0-27.604-19.238-48.21-49.609-48.21-22.298 0-38.737 11.686-51.855 28.971L4723.032 960c9.473-13.378 21.745-22.591 38.184-22.591 20.085 0 31.771 13.933 31.771 32.617 0 12.273-5.566 23.145-18.945 40.951l-68.815 91.699v5.013h110.351v-16.439zm144.63-170.544c-34.538 0-57.976 25.065-57.976 59.343 0 38.183 26.498 57.421 56.022 57.421 16.732 0 32.064-5.013 42.644-18.392-5.306 44.304-31.218 71.322-79.427 75.228l2.246 16.179c70.214-6.966 96.126-52.409 96.126-118.718 0-39.583-19.238-71.061-59.635-71.061m.292 100.586c-22.037 0-39.876-13.932-39.876-41.243 0-25.619 17.025-42.351 39.876-42.351 25.066 0 40.951 18.685 40.951 42.09 0 27.572-18.392 41.504-40.951 41.504" style="fill:#202020;fill-rule:nonzero"/><path d="M108.59 3950.26V1608.59c0-8.203.814-16.341 2.409-24.382a126 126 0 0 1 7.096-23.47c3.158-7.552 6.999-14.778 11.556-21.582a122.3 122.3 0 0 1 15.56-18.945 122.3 122.3 0 0 1 18.945-15.56c6.804-4.557 14.03-8.398 21.615-11.556a124.8 124.8 0 0 1 23.437-7.096 125 125 0 0 1 24.382-2.409h4875c8.203 0 16.341.814 24.381 2.409a124.8 124.8 0 0 1 23.438 7.096c7.584 3.158 14.811 6.999 21.614 11.556a122.3 122.3 0 0 1 18.946 15.56 122.3 122.3 0 0 1 15.56 18.945c4.557 6.804 8.398 14.03 11.556 21.582a126 126 0 0 1 7.096 23.47 125 125 0 0 1 2.409 24.382v2341.67c0 8.204-.814 16.342-2.409 24.382a124.8 124.8 0 0 1-7.096 23.437c-3.158 7.585-6.999 14.812-11.556 21.615a122.3 122.3 0 0 1-15.56 18.945 122.3 122.3 0 0 1-18.946 15.56c-6.803 4.558-14.03 8.399-21.614 11.556a125 125 0 0 1-23.438 7.097 125 125 0 0 1-24.381 2.408h-4875a125 125 0 0 1-24.382-2.408 125 125 0 0 1-23.437-7.097c-7.585-3.157-14.811-6.998-21.615-11.556a122.3 122.3 0 0 1-18.945-15.56 122.3 122.3 0 0 1-15.56-18.945c-4.557-6.803-8.398-14.03-11.556-21.615a124.8 124.8 0 0 1-7.096-23.437 125 125 0 0 1-2.409-24.382Z" style="fill:#f6f6f6;fill-rule:nonzero;stroke:#bdbdbd;stroke-width:4.17px"/><path d="M5233.59 1936.36v2134.73H502.83v-947.917l551.921-19.433 630.761-51.14 709.636-128.157 78.841-4.362 788.444-162.435 394.238-94.694 394.239-113.574 394.238-141.732 394.206-183.627 394.238-287.662z" style="fill:url(#b)"/><path d="M502.828 3103.74h551.921v967.35H502.828z" style="fill:none;fill-rule:nonzero"/><path d="M2395.15 2920.08h78.841v1151.01h-78.841z" style="fill:url(#c);fill-rule:nonzero"/><path d="m502.828 3123.17 551.921-19.433 630.761-51.14 709.636-128.157 78.841-4.362 788.444-162.435 394.238-94.694 394.239-113.574 394.238-141.732 394.206-183.627 394.238-287.662" style="fill:none;fill-rule:nonzero;stroke:url(#d);stroke-width:8.33px"/><path d="m1685.51 3052.6 709.636-128.157 78.841-4.362 788.444-162.435 394.238-94.694 394.239-113.574 394.238-141.732 394.206-183.627 394.238-287.662" style="fill:none;fill-rule:nonzero;stroke:#2e2e2e;stroke-width:8.33px"/><path d="M2453.45 2924.44a57.7 57.7 0 0 1-1.107 11.36 58.4 58.4 0 0 1-3.321 10.97c-1.464 3.516-3.255 6.901-5.403 10.059a57 57 0 0 1-7.227 8.854 61 61 0 0 1-8.854 7.259 58.8 58.8 0 0 1-10.091 5.371 58 58 0 0 1-10.938 3.321 58 58 0 0 1-11.393 1.139c-3.808 0-7.617-.391-11.36-1.139a57.4 57.4 0 0 1-10.938-3.321 58.8 58.8 0 0 1-10.091-5.371 61 61 0 0 1-8.854-7.259c-2.702-2.702-5.111-5.664-7.259-8.854a58.4 58.4 0 0 1-5.371-10.059 58.4 58.4 0 0 1-3.321-10.97 57.8 57.8 0 0 1-1.139-11.36c0-3.841.391-7.618 1.139-11.394a59 59 0 0 1 3.321-10.937 58.8 58.8 0 0 1 5.371-10.091 59 59 0 0 1 7.259-8.822c2.734-2.702 5.664-5.143 8.854-7.259s6.543-3.939 10.091-5.404a57.9 57.9 0 0 1 22.298-4.427c3.841 0 7.65.358 11.393 1.107a58 58 0 0 1 10.938 3.32c3.548 1.465 6.901 3.288 10.091 5.404s6.12 4.557 8.854 7.259a57 57 0 0 1 7.227 8.822 56.7 56.7 0 0 1 5.403 10.091 59 59 0 0 1 3.321 10.937 58.3 58.3 0 0 1 1.107 11.394" style="fill:#037307;fill-rule:nonzero"/><path d="M2507.32 2920.08c0 4.427-.846 8.691-2.539 12.76-1.692 4.102-4.101 7.682-7.226 10.807a33 33 0 0 1-10.84 7.227 32.9 32.9 0 0 1-12.728 2.539c-4.427 0-8.691-.846-12.76-2.539-4.102-1.693-7.683-4.102-10.808-7.227s-5.534-6.705-7.226-10.807a32.9 32.9 0 0 1-2.539-12.76c0-4.427.846-8.659 2.539-12.761a33.2 33.2 0 0 1 7.226-10.807c3.125-3.125 6.706-5.534 10.808-7.227a32.95 32.95 0 0 1 12.76-2.539c4.394 0 8.659.847 12.728 2.539a33 33 0 0 1 10.84 7.227 33.2 33.2 0 0 1 7.226 10.807 33.1 33.1 0 0 1 2.539 12.761" style="fill-rule:nonzero"/><path d="M2395.15 2924.44v1150.81" style="fill:none;fill-rule:nonzero;stroke:#037307;stroke-width:25px"/><path d="M2395.15 2791.11V1650.26" style="fill:none;fill-rule:nonzero;stroke:#000;stroke-opacity:.49;stroke-width:8.33px"/><path d="M1718.49 1742.61c-2.832 0-6.803 0-10.449.162 2.213-2.376 4.59-5.403 6.347-7.779l17.09-22.95c10.612-13.932 14.095-21.224 14.095-31.347 0-15.821-11.881-28.646-30.859-28.646-14.421 0-25.033 7.096-32.943 19.14l12.337 9.506c5.241-7.129 11.263-11.719 19.174-11.719 8.398 0 13.444 5.697 13.444 13.607 0 5.403-2.507 10.612-8.855 19.336l-37.044 49.707v6.966h66.797v-15.983zm80.44 17.87c24.089 0 38.64-20.899 38.64-54.297s-14.551-54.134-38.64-54.134c-24.056 0-38.639 20.736-38.639 54.134s14.583 54.297 38.639 54.297m0-16.309c-13.118 0-19.954-15.202-19.954-37.988s6.836-37.988 19.954-37.988c13.151 0 19.955 15.201 19.955 37.988s-6.804 37.988-19.955 37.988m88.82-1.561c-2.832 0-6.803 0-10.449.162 2.214-2.376 4.59-5.403 6.348-7.779l17.09-22.95c10.612-13.932 14.095-21.224 14.095-31.347 0-15.821-11.882-28.646-30.86-28.646-14.42 0-25.032 7.096-32.942 19.14l12.337 9.506c5.241-7.129 11.263-11.719 19.173-11.719 8.398 0 13.444 5.697 13.444 13.607 0 5.403-2.507 10.612-8.854 19.336l-37.044 49.707v6.966h66.796v-15.983zm70.8-50.04c-2.701 0-5.24.163-8.073.456l2.995-23.112h37.533v-15.983h-52.409l-6.185 53.515 2.865 1.889c4.72-1.726 10.449-2.833 17.089-2.833 12.989 0 23.601 5.209 23.601 18.685 0 11.394-8.073 18.685-20.28 18.685-9.343 0-16.797-3.808-21.68-9.505l-9.342 12.826c7.91 8.528 18.685 13.444 31.803 13.444 22.494 0 38.184-14.258 38.184-34.994 0-20.898-14.909-33.073-36.101-33.073m155.01-41.66-19.174 30.403c-2.994 4.916-5.696 9.343-8.072 14.909-2.54-5.404-5.079-9.831-8.236-14.909l-19.304-30.403h-21.223v.488l39.257 60.482v46.712h18.685v-46.712l39.258-60.482v-.488zm106.23 0h-79.655v17.285h30.566v90.397h18.685v-90.397h30.404zm16.31 107.68h38.64c33.073 0 54.752-22.494 54.752-53.679 0-31.347-22.298-54.003-54.915-54.003H2236.1zm18.685-16.146v-75.358h18.978c22.656 0 36.752 15.983 36.752 37.825s-13.933 37.533-36.589 37.533zM1542.14 2117.25h27.995v-30.664c37.988-4.004 62.988-28.321 62.988-62.989 0-39.355-31.315-55.013-65.006-68.685-25.977-9.993-47.331-19.336-47.331-37.337 0-18.978 18.327-25.651 35.677-25.651 18.652 0 36.328 5.99 52.995 18.001l16.016-29.655c-17.351-12.011-36.003-19.01-55.339-21.354v-30.338h-27.995v30.338c-34.668 4.33-60.351 25-60.351 60.352 0 33.984 28.678 50.976 62.011 64.648 26.335 10.677 50.326 20.02 50.326 42.676 0 15.332-15.007 26.986-37.988 26.986-23.34 0-45.671-8.334-63.347-22.331l-19.336 28.353c19.011 15.006 41.992 24.642 68.685 26.986zm175.66-256.32-69.987 44.335 15.658 28.646 29.98-17.317c3.028-1.661 5.339-2.995 7.683-4.688-.326 5.339-.652 10.352-.652 15.332v156.348h38.64V1860.93zm93.33 180.34c-11.328 0-23.34 7.324-23.34 23.307 0 15.007 11.003 23.015 23.34 23.015h2.669c-2.669 13.997-10.677 24.674-22.33 35.319l9.31 9.668c21.679-15.983 34.342-37.989 34.342-62.663 0-19.336-10.319-28.646-23.991-28.646m142.66 46.32c50.683 0 81.347-44.011 81.347-114.323 0-70.345-30.664-114.03-81.347-114.03-50.651 0-81.316 43.685-81.316 114.03 0 70.312 30.665 114.323 81.316 114.323m0-34.343c-27.67 0-41.993-31.998-41.993-79.98 0-48.015 14.323-80.013 41.993-80.013 27.669 0 41.992 31.998 41.992 80.013 0 47.982-14.323 79.98-41.992 79.98m187.02-3.317c-6.023 0-14.356 0-22.006.325 4.655-5.013 9.668-11.328 13.314-16.341l36.003-48.34c22.33-29.329 29.687-44.661 29.687-65.983 0-33.333-25-60.351-65.006-60.351-30.339 0-52.67 15.006-69.336 40.364l26.009 19.987c11.002-15.006 23.665-24.674 40.332-24.674 17.643 0 28.32 12.012 28.32 28.678 0 11.328-5.338 22.331-18.652 40.658l-78.027 104.655v14.681h140.69v-33.659zm146.99-189-69.987 44.335 15.658 28.646 29.98-17.317c3.028-1.661 5.339-2.995 7.682-4.688-.325 5.339-.651 10.352-.651 15.332v156.348h38.64V1860.93zm-282.54 347.66h15.723v-33.073h18.815c19.987 0 30.664-13.607 30.664-28.386 0-14.941-10.938-29.199-30.404-29.199h-34.798zm15.723-46.55v-30.371h17.48c9.994 0 16.113 6.804 16.113 15.332 0 7.715-5.045 15.039-16.504 15.039zm79.737 32.68v-25.456h36.133v-13.477h-36.133v-23.991h41.341v-13.867h-57.064v90.658h58.268v-13.867zm59.08 13.87h15.723v-33.073h18.815c19.987 0 30.664-13.607 30.664-28.386 0-14.941-10.937-29.199-30.404-29.199H2159.8zm15.723-46.55v-30.371h17.48c9.994 0 16.114 6.804 16.114 15.332 0 7.715-5.046 15.039-16.504 15.039zm147.857-44.79h-4.655l-27.474 41.862c-1.986 3.092-4.004 6.282-5.86 9.472-1.855-3.19-3.873-6.38-5.859-9.472l-27.344-41.862h-4.655l-13.346 91.341h15.462l6.934-48.926c.423-3.223.944-6.152 1.074-9.603 1.725 3.06 3.613 5.99 5.599 8.789l20.54 31.478h3.19l20.671-31.478c1.856-2.799 3.744-5.599 5.339-8.528.26 3.059.651 5.989 1.074 9.212l7.194 49.056h15.462z" style="fill-rule:nonzero"/><path d="M2473.99 2920.08v1155.17" style="fill:none;fill-rule:nonzero;stroke:#000;stroke-width:16.67px"/><path d="M2473.99 2820.08V1650.25" style="fill:none;fill-rule:nonzero;stroke:#000;stroke-opacity:.49;stroke-width:8.33px"/><path d="M2645.04 1658.46h-5.534l-32.617 49.707a260 260 0 0 0-6.966 11.263 260 260 0 0 0-6.966-11.263l-32.455-49.707h-5.534l-15.853 108.463h18.36l8.236-58.105c.488-3.809 1.106-7.292 1.269-11.394a114 114 0 0 0 6.673 10.45l24.382 37.369h3.776l24.544-37.369c2.214-3.321 4.427-6.674 6.348-10.157.325 3.646.781 7.129 1.269 10.938l8.529 58.268h18.392zm60.8 36.59c-9.506 0-19.141 2.539-29.59 7.259l4.883 13.151c7.291-3.483 15.039-5.696 22.005-5.696 9.049 0 14.42 3.646 14.42 10.937v3.158c-2.539-.163-5.208-.326-8.854-.326-21.549 0-35.807 8.887-35.807 25.033 0 12.5 9.18 19.791 22.168 19.791 11.556 0 19.954-4.589 25.195-12.044l3.158 10.612h11.556v-45.605c0-17.09-11.068-26.27-29.134-26.27m-5.697 60.319c-6.348 0-10.124-2.995-10.124-8.561 0-7.747 7.259-12.175 19.792-12.175 3.158 0 5.371.163 8.236.456-.326 12.826-7.78 20.28-17.904 20.28m89.617-60.649c-9.18 0-16.309 4.101-20.443 12.044l-3.321-10.449h-11.718v70.605h17.252v-38.476c0-11.231 6.836-17.741 16.797-17.741 3.646 0 6.478.651 9.18 1.595l4.427-14.584c-3.32-1.888-7.259-2.994-12.174-2.994m55.42 35.78 28.027-33.398v-.781h-19.498l-23.438 28.027v-71.419h-17.252v113.997h17.252v-30.078l25.358 30.078h19.955v-.944zm73.47-36.1c-21.387 0-36.426 16.309-36.426 37.044 0 22.168 15.528 37.533 38.151 37.533 10.938 0 19.499-3.32 27.572-9.798l-7.292-11.101c-4.915 4.297-10.612 6.641-18.685 6.641-11.393 0-20.28-5.989-22.493-17.415h50.684c.293-2.832.618-5.697.618-8.203 0-21.224-12.174-34.701-32.129-34.701m-.325 14.095c9.017 0 15.69 5.86 16.145 17.09h-34.83c1.92-10.905 9.342-17.09 18.685-17.09m74.105 60.025c8.073 0 14.876-2.376 21.354-6.51l-5.534-12.989c-3.939 2.54-7.747 3.646-11.881 3.646-4.59 0-7.748-2.05-7.748-9.017v-32.617h21.843v-14.713h-21.843v-22.657h-16.797l-.455 22.657h-12.5v13.769l12.5.944v34.343c0 15.853 8.398 23.144 21.061 23.144m125.38-44.5c15.364-4.427 24.87-16.145 24.87-31.184 0-19.174-15.202-33.594-36.589-33.594h-42.253v107.682h18.685v-40.853h16.309l25.325 40.853h21.224v-.488zm-35.287-13.476v-35.124h22.005c11.556 0 19.304 7.585 19.304 17.709 0 10.612-7.292 17.415-19.629 17.415zm105.437-15.494c-9.505 0-19.14 2.539-29.589 7.259l4.882 13.151c7.292-3.483 15.04-5.696 22.006-5.696 9.049 0 14.42 3.646 14.42 10.937v3.158c-2.539-.163-5.208-.326-8.854-.326-21.549 0-35.807 8.887-35.807 25.033 0 12.5 9.179 19.791 22.168 19.791 11.556 0 19.954-4.589 25.195-12.044l3.158 10.612h11.556v-45.605c0-17.09-11.068-26.27-29.135-26.27m-5.696 60.319c-6.348 0-10.124-2.995-10.124-8.561 0-7.747 7.259-12.175 19.792-12.175 3.157 0 5.371.163 8.236.456-.326 12.826-7.78 20.28-17.904 20.28m80.446 13.151c8.073 0 14.876-2.376 21.354-6.51l-5.534-12.989c-3.939 2.54-7.747 3.646-11.881 3.646-4.59 0-7.748-2.05-7.748-9.017v-32.617h21.843v-14.713h-21.843v-22.657h-16.797l-.455 22.657h-12.5v13.769l12.5.944v34.343c0 15.853 8.398 23.144 21.061 23.144m64.75-74.12c-21.387 0-36.426 16.309-36.426 37.044 0 22.168 15.527 37.533 38.151 37.533 10.937 0 19.499-3.32 27.572-9.798l-7.292-11.101c-4.915 4.297-10.612 6.641-18.685 6.641-11.393 0-20.28-5.989-22.494-17.415h50.684c.293-2.832.619-5.697.619-8.203 0-21.224-12.175-34.701-32.129-34.701m-.326 14.095c9.017 0 15.69 5.86 16.146 17.09h-34.831c1.921-10.905 9.343-17.09 18.685-17.09M2610.99 2125.58h27.995v-30.664c37.989-4.004 62.989-28.32 62.989-62.988 0-39.356-31.316-55.013-65.007-68.685-25.977-9.994-47.331-19.336-47.331-37.337 0-18.978 18.327-25.652 35.677-25.652 18.653 0 36.328 5.99 52.995 18.002l16.016-29.655c-17.35-12.012-36.003-19.011-55.339-21.354v-30.339h-27.995v30.339c-34.668 4.329-60.351 25-60.351 60.351 0 33.985 28.678 50.977 62.012 64.649 26.334 10.677 50.325 20.019 50.325 42.675 0 15.332-15.006 26.986-37.988 26.986-23.34 0-45.671-8.333-63.347-22.331l-19.335 28.353c19.01 15.007 41.992 24.642 68.684 26.986zm175.65-256.31-69.987 44.336 15.658 28.646 29.98-17.318c3.028-1.66 5.339-2.995 7.683-4.688-.326 5.339-.651 10.352-.651 15.332v156.348h38.639V1869.27zm93.34 180.34c-11.328 0-23.34 7.325-23.34 23.308 0 15.006 11.003 23.014 23.34 23.014h2.67c-2.67 13.997-10.678 24.675-22.331 35.319l9.31 9.668c21.679-15.983 34.342-37.988 34.342-62.663 0-19.336-10.319-28.646-23.991-28.646m120.33-180.34-69.987 44.336 15.658 28.646 29.98-17.318c3.027-1.66 5.339-2.995 7.682-4.688-.325 5.339-.651 10.352-.651 15.332v156.348h38.64V1869.27zm138.68 188.99c-6.022 0-14.355 0-22.005.326 4.655-5.013 9.668-11.328 13.314-16.341l36.002-48.34c22.331-29.33 29.688-44.662 29.688-65.983 0-33.334-25-60.352-65.007-60.352-30.338 0-52.669 15.007-69.336 40.365l26.009 19.987c11.003-15.007 23.666-24.675 40.333-24.675 17.643 0 28.32 12.012 28.32 28.679 0 11.328-5.339 22.33-18.653 40.657l-78.027 104.655v14.681h140.69v-33.659zm148.97-105.33c-5.664 0-10.97.325-16.992 1.009l6.348-48.666h79.004v-33.691h-110.352l-12.988 112.663 5.99 4.004c9.993-3.646 22.005-5.99 36.002-5.99 27.344 0 49.675 11.003 49.675 39.323 0 24.024-16.993 39.356-42.676 39.356-19.662 0-35.319-8.008-45.671-20.02l-19.661 27.018c16.666 18.002 39.323 28.321 66.992 28.321 47.331 0 80.339-29.981 80.339-73.666 0-44.01-31.316-69.661-76.01-69.661m-250.18 263.99h15.722v-33.073h18.816c19.987 0 30.664-13.607 30.664-28.385 0-14.942-10.938-29.199-30.404-29.199h-34.798zm15.722-46.549V2140h17.481c9.993 0 16.113 6.803 16.113 15.332 0 7.714-5.045 15.039-16.504 15.039zm79.728 32.689v-25.456h36.133v-13.476h-36.133v-23.991h41.341v-13.867h-57.064v90.657h58.268v-13.867zm59.08 13.86h15.723v-33.073h18.815c19.987 0 30.664-13.607 30.664-28.385 0-14.942-10.937-29.199-30.404-29.199h-34.798zm15.723-46.549V2140h17.48c9.994 0 16.114 6.803 16.114 15.332 0 7.714-5.046 15.039-16.504 15.039zm147.867-44.791h-4.655l-27.474 41.862c-1.986 3.092-4.004 6.283-5.86 9.473-1.855-3.19-3.873-6.381-5.859-9.473l-27.344-41.862h-4.655l-13.346 91.341h15.462l6.934-48.926c.423-3.222.944-6.152 1.074-9.603 1.725 3.06 3.613 5.99 5.599 8.79l20.54 31.477h3.19l20.671-31.477c1.855-2.8 3.743-5.599 5.339-8.529.26 3.06.651 5.989 1.074 9.212l7.194 49.056h15.462z" style="fill-rule:nonzero"/><path d="M4237.33 3308.59h804.59q2.051 0 4.102.097c1.367.066 2.702.163 4.069.293 1.367.131 2.702.326 4.069.521q2.001.293 4.004.684c1.367.26 2.669.586 4.004.911q1.983.486 3.938 1.075c1.302.39 2.605.846 3.874 1.302 1.302.455 2.572.944 3.841 1.464a75 75 0 0 1 3.711 1.661c1.237.586 2.474 1.204 3.679 1.823 1.204.651 2.376 1.334 3.548 2.018 1.172.716 2.343 1.432 3.45 2.181 1.14.781 2.246 1.562 3.353 2.376a61 61 0 0 1 3.223 2.507q1.57 1.308 3.092 2.669a79 79 0 0 1 2.962 2.832q1.454 1.444 2.832 2.962c.912 1.009 1.791 2.051 2.67 3.093a61 61 0 0 1 2.506 3.222 125 125 0 0 1 2.377 3.353c.748 1.107 1.464 2.279 2.181 3.451.683 1.171 1.367 2.343 2.018 3.548a191 191 0 0 1 1.823 3.646 94 94 0 0 1 1.66 3.743 78 78 0 0 1 1.465 3.841c.455 1.27.911 2.572 1.302 3.874.39 1.302.748 2.604 1.074 3.939.325 1.334.651 2.636.911 4.004q.391 2.001.684 4.004c.228 1.367.391 2.701.521 4.069.26 2.716.39 5.442.39 8.17v466.667q0 2.05-.097 4.101a85 85 0 0 1-.293 4.069 58 58 0 0 1-.521 4.069 85 85 0 0 1-.684 4.004c-.26 1.367-.586 2.67-.911 4.004a79 79 0 0 1-1.074 3.939 80 80 0 0 1-1.302 3.874 78 78 0 0 1-1.465 3.841 94 94 0 0 1-1.66 3.743 191 191 0 0 1-1.823 3.646c-.651 1.205-1.335 2.376-2.018 3.548-.717 1.172-1.433 2.344-2.181 3.451a125 125 0 0 1-2.377 3.353c-.814 1.107-1.627 2.181-2.506 3.222a121 121 0 0 1-2.67 3.093 79 79 0 0 1-2.832 2.962 79 79 0 0 1-2.962 2.832c-1.009.912-2.051 1.79-3.092 2.669a84 84 0 0 1-3.223 2.507 121 121 0 0 1-3.353 2.376c-1.107.749-2.278 1.465-3.45 2.181a124 124 0 0 1-3.548 2.018 130 130 0 0 1-3.679 1.823 75 75 0 0 1-3.711 1.66 77 77 0 0 1-3.841 1.465 75 75 0 0 1-3.874 1.302 78 78 0 0 1-3.938 1.075c-1.335.325-2.637.651-4.004.911q-2.003.39-4.004.684c-1.367.228-2.702.39-4.069.521a86 86 0 0 1-8.171.39h-804.59a87 87 0 0 1-8.17-.39 57 57 0 0 1-4.037-.521 81 81 0 0 1-4.036-.684c-1.335-.26-2.669-.586-4.004-.911a90 90 0 0 1-3.939-1.075 78 78 0 0 1-3.874-1.302 77 77 0 0 1-3.841-1.465 75 75 0 0 1-3.711-1.66 128 128 0 0 1-3.678-1.823 194 194 0 0 1-3.548-2.018 124 124 0 0 1-3.451-2.181 123 123 0 0 1-3.353-2.376 210 210 0 0 1-3.222-2.507c-1.042-.879-2.084-1.757-3.093-2.669a81 81 0 0 1-2.962-2.832 59 59 0 0 1-2.799-2.962c-.944-1.009-1.823-2.051-2.702-3.093a84 84 0 0 1-2.507-3.222 78 78 0 0 1-2.344-3.353c-.781-1.107-1.497-2.279-2.213-3.451-.684-1.172-1.367-2.343-1.986-3.548a96 96 0 0 1-1.855-3.646 93 93 0 0 1-1.66-3.743 78 78 0 0 1-1.465-3.841 78 78 0 0 1-1.27-3.874 55 55 0 0 1-1.107-3.939q-.483-1.995-.911-4.004a87 87 0 0 1-.684-4.004q-.285-2.031-.52-4.069a84 84 0 0 1-.391-8.17v-466.667a86 86 0 0 1 .391-8.17c.162-1.368.325-2.702.52-4.069q.294-2.003.684-4.004c.293-1.368.586-2.67.911-4.004q.48-1.99 1.107-3.939a78 78 0 0 1 1.27-3.874 78 78 0 0 1 1.465-3.841 93 93 0 0 1 1.66-3.743 96 96 0 0 1 1.855-3.646c.619-1.205 1.302-2.377 1.986-3.548.716-1.172 1.432-2.344 2.213-3.451a78 78 0 0 1 2.344-3.353 84 84 0 0 1 2.507-3.222c.879-1.042 1.758-2.084 2.702-3.093a59 59 0 0 1 2.799-2.962 81 81 0 0 1 2.962-2.832 121 121 0 0 1 3.093-2.669c1.074-.879 2.148-1.693 3.222-2.507q1.656-1.216 3.353-2.376c1.14-.749 2.279-1.465 3.451-2.181a194 194 0 0 1 3.548-2.018 128 128 0 0 1 3.678-1.823 75 75 0 0 1 3.711-1.661 77 77 0 0 1 3.841-1.464 78 78 0 0 1 3.874-1.302 90 90 0 0 1 3.939-1.075c1.335-.325 2.669-.651 4.004-.911a81 81 0 0 1 4.036-.684c1.335-.195 2.702-.39 4.037-.521a88 88 0 0 1 4.101-.293 84 84 0 0 1 4.069-.097" style="fill:#f5f5f5;fill-opacity:.69;fill-rule:nonzero"/><path d="M4237.33 3308.59h804.59q2.051 0 4.102.097c1.367.066 2.702.163 4.069.293 1.367.131 2.702.326 4.069.521q2.001.293 4.004.684c1.367.26 2.669.586 4.004.911q1.983.486 3.938 1.075c1.302.39 2.605.846 3.874 1.302 1.302.455 2.572.944 3.841 1.464a75 75 0 0 1 3.711 1.661c1.237.586 2.474 1.204 3.679 1.823 1.204.651 2.376 1.334 3.548 2.018 1.172.716 2.343 1.432 3.45 2.181 1.14.781 2.246 1.562 3.353 2.376a61 61 0 0 1 3.223 2.507q1.57 1.308 3.092 2.669a79 79 0 0 1 2.962 2.832q1.454 1.444 2.832 2.962c.912 1.009 1.791 2.051 2.67 3.093a61 61 0 0 1 2.506 3.222 125 125 0 0 1 2.377 3.353c.748 1.107 1.464 2.279 2.181 3.451.683 1.171 1.367 2.343 2.018 3.548a191 191 0 0 1 1.823 3.646 94 94 0 0 1 1.66 3.743 78 78 0 0 1 1.465 3.841c.455 1.27.911 2.572 1.302 3.874.39 1.302.748 2.604 1.074 3.939.325 1.334.651 2.636.911 4.004q.391 2.001.684 4.004c.228 1.367.391 2.701.521 4.069.26 2.716.39 5.442.39 8.17v466.667q0 2.05-.097 4.101a85 85 0 0 1-.293 4.069 58 58 0 0 1-.521 4.069 85 85 0 0 1-.684 4.004c-.26 1.367-.586 2.67-.911 4.004a79 79 0 0 1-1.074 3.939 80 80 0 0 1-1.302 3.874 78 78 0 0 1-1.465 3.841 94 94 0 0 1-1.66 3.743 191 191 0 0 1-1.823 3.646c-.651 1.205-1.335 2.376-2.018 3.548-.717 1.172-1.433 2.344-2.181 3.451a125 125 0 0 1-2.377 3.353c-.814 1.107-1.627 2.181-2.506 3.222a121 121 0 0 1-2.67 3.093 79 79 0 0 1-2.832 2.962 79 79 0 0 1-2.962 2.832c-1.009.912-2.051 1.79-3.092 2.669a84 84 0 0 1-3.223 2.507 121 121 0 0 1-3.353 2.376c-1.107.749-2.278 1.465-3.45 2.181a124 124 0 0 1-3.548 2.018 130 130 0 0 1-3.679 1.823 75 75 0 0 1-3.711 1.66 77 77 0 0 1-3.841 1.465 75 75 0 0 1-3.874 1.302 78 78 0 0 1-3.938 1.075c-1.335.325-2.637.651-4.004.911q-2.003.39-4.004.684c-1.367.228-2.702.39-4.069.521a86 86 0 0 1-8.171.39h-804.59a87 87 0 0 1-8.17-.39 57 57 0 0 1-4.037-.521 81 81 0 0 1-4.036-.684c-1.335-.26-2.669-.586-4.004-.911a90 90 0 0 1-3.939-1.075 78 78 0 0 1-3.874-1.302 77 77 0 0 1-3.841-1.465 75 75 0 0 1-3.711-1.66 128 128 0 0 1-3.678-1.823 194 194 0 0 1-3.548-2.018 124 124 0 0 1-3.451-2.181 123 123 0 0 1-3.353-2.376 210 210 0 0 1-3.222-2.507c-1.042-.879-2.084-1.757-3.093-2.669a81 81 0 0 1-2.962-2.832 59 59 0 0 1-2.799-2.962c-.944-1.009-1.823-2.051-2.702-3.093a84 84 0 0 1-2.507-3.222 78 78 0 0 1-2.344-3.353c-.781-1.107-1.497-2.279-2.213-3.451-.684-1.172-1.367-2.343-1.986-3.548a96 96 0 0 1-1.855-3.646 93 93 0 0 1-1.66-3.743 78 78 0 0 1-1.465-3.841 78 78 0 0 1-1.27-3.874 55 55 0 0 1-1.107-3.939q-.483-1.995-.911-4.004a87 87 0 0 1-.684-4.004q-.285-2.031-.52-4.069a84 84 0 0 1-.391-8.17v-466.667a86 86 0 0 1 .391-8.17c.162-1.368.325-2.702.52-4.069q.294-2.003.684-4.004c.293-1.368.586-2.67.911-4.004q.48-1.99 1.107-3.939a78 78 0 0 1 1.27-3.874 78 78 0 0 1 1.465-3.841 93 93 0 0 1 1.66-3.743 96 96 0 0 1 1.855-3.646c.619-1.205 1.302-2.377 1.986-3.548.716-1.172 1.432-2.344 2.213-3.451a78 78 0 0 1 2.344-3.353 84 84 0 0 1 2.507-3.222c.879-1.042 1.758-2.084 2.702-3.093a59 59 0 0 1 2.799-2.962 81 81 0 0 1 2.962-2.832 121 121 0 0 1 3.093-2.669c1.074-.879 2.148-1.693 3.222-2.507q1.656-1.216 3.353-2.376c1.14-.749 2.279-1.465 3.451-2.181a194 194 0 0 1 3.548-2.018 128 128 0 0 1 3.678-1.823 75 75 0 0 1 3.711-1.661 77 77 0 0 1 3.841-1.464 78 78 0 0 1 3.874-1.302 90 90 0 0 1 3.939-1.075c1.335-.325 2.669-.651 4.004-.911a81 81 0 0 1 4.036-.684c1.335-.195 2.702-.39 4.037-.521a88 88 0 0 1 4.101-.293 84 84 0 0 1 4.069-.097Z" style="fill:none;fill-rule:nonzero;stroke:#8fa3ae;stroke-opacity:.74;stroke-width:8.33px"/><path d="M4354.3 3479.29c-2.246 0-5.371 0-8.236.13 1.726-1.888 3.614-4.264 4.981-6.12l13.509-18.131c8.366-11.003 11.133-16.764 11.133-24.74 0-12.5-9.375-22.623-24.382-22.623-11.393 0-19.759 5.599-26.009 15.104l9.766 7.519c4.101-5.631 8.854-9.245 15.104-9.245 6.641 0 10.644 4.493 10.644 10.743 0 4.231-2.018 8.366-6.998 15.234l-29.265 39.258v5.501h52.767v-12.63zm63.49 14.13c19.01 0 30.501-16.504 30.501-42.872s-11.491-42.74-30.501-42.74c-18.978 0-30.501 16.373-30.501 42.74s11.523 42.872 30.501 42.872m0-12.859c-10.352 0-15.755-12.011-15.755-30.013 0-18.001 5.403-30.013 15.755-30.013 10.384 0 15.755 12.012 15.755 30.013s-5.371 30.013-15.755 30.013m70.13-1.271c-2.246 0-5.371 0-8.235.13 1.725-1.888 3.613-4.264 4.98-6.12l13.509-18.131c8.366-11.003 11.133-16.764 11.133-24.74 0-12.5-9.375-22.623-24.382-22.623-11.393 0-19.759 5.599-26.009 15.104l9.766 7.519c4.102-5.631 8.854-9.245 15.104-9.245 6.641 0 10.645 4.493 10.645 10.743 0 4.231-2.019 8.366-6.999 15.234l-29.264 39.258v5.501h52.767v-12.63zm81.63-14.87v-55.99h-8.138l-44.499 60.254v7.617h39.127v15.625h13.51v-15.625h9.375v-11.881zm-13.119 0h-13.867c-2.897 0-5.632 0-8.496.13 1.595-1.986 3.125-4.004 4.72-6.12l12.76-17.513c1.758-2.246 3.386-4.622 5.241-7.617-.358 3.743-.358 6.64-.358 10.384zm115.129-57.49-15.137 23.991c-2.376 3.873-4.492 7.389-6.38 11.751-1.986-4.264-4.004-7.748-6.478-11.751l-15.267-23.991h-16.732v.358l30.99 47.754v36.881h14.746v-36.881l30.989-47.754v-.358zm83.85 0h-62.858v13.606h24.121v71.387h14.746v-71.387h23.991zm12.9 84.99h30.501c26.107 0 43.229-17.741 43.229-42.383 0-24.739-17.611-42.61-43.359-42.61h-30.371zm14.746-12.76v-59.505h15.006c17.871 0 29.004 12.63 29.004 29.882s-11.002 29.623-28.906 29.623zm-403.396 288.02h21.029v-23.015c28.483-2.995 47.233-21.256 47.233-47.233 0-29.525-23.503-41.276-48.731-51.497-19.531-7.52-35.514-14.518-35.514-28.028 0-14.225 13.737-19.238 26.758-19.238 13.997 0 27.246 4.492 39.746 13.509l11.979-22.265c-12.988-8.985-26.986-14.258-41.471-15.983v-22.754h-21.029v22.754c-25.976 3.255-45.247 18.75-45.247 45.247 0 25.488 21.517 38.249 46.517 48.503 19.759 7.975 37.76 14.974 37.76 31.998 0 11.491-11.263 20.248-28.516 20.248-17.513 0-34.244-6.25-47.493-16.765l-14.518 21.257c14.258 11.263 31.51 18.489 51.497 20.247zm131.76-192.25-52.507 33.236 11.752 21.517 22.493-13.021c2.246-1.237 4.004-2.246 5.762-3.483-.26 4.004-.488 7.747-.488 11.491v117.252h29.004V3574.93zm69.99 135.25c-8.496 0-17.481 5.501-17.481 17.48 0 11.263 8.236 17.253 17.481 17.253h2.018c-2.018 10.514-8.008 18.49-16.764 26.497l6.998 7.259c16.276-12.011 25.749-28.515 25.749-47.005 0-14.485-7.747-21.484-18.001-21.484m95.28 34.74c36.979 0 61.491-20.736 61.491-49.251 0-17.481-9.245-34.506-30.762-41.732 15.006-7.748 23.242-22.526 23.242-37.012 0-24.512-20.736-43.262-51.497-43.262-21.485 0-38.249 8.008-53.223 24.773l16.244 15.983c9.244-9.245 19.726-15.495 33.984-15.495 15.755 0 25.749 9.245 25.749 21.517 0 11.719-9.245 23.47-29.753 23.47h-18.001v24.023h21.256c16.016 0 33.496 5.729 33.496 25 0 15.235-12.988 26.237-33.724 26.237-15.267 0-26.757-6.51-36.523-16.732l-16.732 17.481c13.737 15.495 32.975 25 54.753 25m128.48-169.99-52.507 33.236 11.752 21.517 22.493-13.021c2.246-1.237 4.004-2.246 5.762-3.483-.26 4.004-.488 7.747-.488 11.491v117.252h29.004V3574.93zm41.24 1.76v25.228h51.009c7.26 0 12.24 0 18.262-.228-1.758 4.492-4.004 9.733-6.25 15.983l-46.777 124.251h30.013l58.236-154.492v-10.742zm-160.84 273.57h12.793v-26.855h15.267c16.244 0 24.935-11.068 24.935-23.079 0-12.142-8.887-23.731-24.707-23.731h-28.288zm12.793-37.792v-24.708h14.193c8.105 0 13.118 5.502 13.118 12.435 0 6.283-4.134 12.273-13.444 12.273zm64.777 26.522v-20.703h29.362v-10.937h-29.362v-19.499h33.594v-11.263h-46.387v73.665h47.363v-11.263zm47.98 11.27h12.793v-26.855h15.267c16.243 0 24.935-11.068 24.935-23.079 0-12.142-8.887-23.731-24.707-23.731h-28.288zm12.793-37.792v-24.708h14.192c8.106 0 13.119 5.502 13.119 12.435 0 6.283-4.134 12.273-13.444 12.273zm120.157-36.428h-3.809l-22.331 34.017c-1.595 2.506-3.222 5.11-4.752 7.714a203 203 0 0 0-4.753-7.714l-22.233-34.017h-3.776l-10.84 74.218h12.565l5.632-39.746c.325-2.604.781-4.98.879-7.812a76 76 0 0 0 4.557 7.161l16.667 25.554h2.604l16.797-25.554c1.497-2.278 3.027-4.557 4.329-6.933.228 2.474.553 4.85.879 7.454l5.827 39.876h12.565z" style="fill-rule:nonzero"/><defs><linearGradient id="a" x1="0" x2="1" y1="0" y2="0" gradientTransform="rotate(90 -129.166 171.09)scale(6491.67)" gradientUnits="userSpaceOnUse"><stop offset="0" style="stop-color:#5db5bc;stop-opacity:1"/><stop offset=".03" style="stop-color:#56b5b4;stop-opacity:1"/><stop offset=".05" style="stop-color:#55b5b2;stop-opacity:1"/><stop offset=".08" style="stop-color:#57b5b4;stop-opacity:1"/><stop offset=".11" style="stop-color:#5ab5b7;stop-opacity:1"/><stop offset=".15" style="stop-color:#5eb5bb;stop-opacity:1"/><stop offset=".16" style="stop-color:#5eb5bc;stop-opacity:1"/><stop offset=".18" style="stop-color:#61b5bf;stop-opacity:1"/><stop offset=".19" style="stop-color:#61b5bf;stop-opacity:1"/><stop offset=".23" style="stop-color:#65b5c4;stop-opacity:1"/><stop offset=".23" style="stop-color:#66b5c5;stop-opacity:1"/><stop offset=".24" style="stop-color:#67b5c7;stop-opacity:1"/><stop offset=".25" style="stop-color:#68b5c7;stop-opacity:1"/><stop offset=".25" style="stop-color:#68b5c8;stop-opacity:1"/><stop offset=".25" style="stop-color:#69b5c8;stop-opacity:1"/><stop offset=".26" style="stop-color:#69b5c9;stop-opacity:1"/><stop offset=".26" style="stop-color:#6ab5c9;stop-opacity:1"/><stop offset=".27" style="stop-color:#6ab5ca;stop-opacity:1"/><stop offset=".27" style="stop-color:#6bb5ca;stop-opacity:1"/><stop offset=".27" style="stop-color:#6bb5cb;stop-opacity:1"/><stop offset=".28" style="stop-color:#6cb5cb;stop-opacity:1"/><stop offset=".28" style="stop-color:#6cb5cc;stop-opacity:1"/><stop offset=".29" style="stop-color:#6db5cc;stop-opacity:1"/><stop offset=".29" style="stop-color:#6db5cd;stop-opacity:1"/><stop offset=".31" style="stop-color:#6eb5ce;stop-opacity:1"/><stop offset="1" style="stop-color:#6eb5cf;stop-opacity:1"/></linearGradient><linearGradient id="b" x1="0" x2="1" y1="0" y2="0" gradientTransform="translate(502.828 3003.72)scale(4730.76)" gradientUnits="userSpaceOnUse"><stop offset="0" style="stop-color:#fff;stop-opacity:.7"/><stop offset=".21" style="stop-color:#e8f6ed;stop-opacity:.7"/><stop offset=".34" style="stop-color:#cce7c7;stop-opacity:.7"/><stop offset=".4" style="stop-color:#b8e2a7;stop-opacity:.7"/><stop offset=".42" style="stop-color:#b0e798;stop-opacity:.7"/><stop offset=".47" style="stop-color:#d3f5bb;stop-opacity:.7"/><stop offset=".55" style="stop-color:#e5f2d5;stop-opacity:.7"/><stop offset="1" style="stop-color:#e8e8e8;stop-opacity:.7"/></linearGradient><linearGradient id="c" x1="0" x2="1" y1="0" y2="0" gradientTransform="translate(2395.15 3495.59)scale(78.8411)" gradientUnits="userSpaceOnUse"><stop offset="0" style="stop-color:#8fc976;stop-opacity:.6"/><stop offset="1" style="stop-color:#6eba4a;stop-opacity:.67"/></linearGradient><linearGradient id="d" x1="0" x2="1" y1="0" y2="0" gradientTransform="translate(498.654 1483.59)scale(4734.94)" gradientUnits="userSpaceOnUse"><stop offset="0" style="stop-color:#e1e1e1;stop-opacity:1"/><stop offset=".14" style="stop-color:#bcbcbc;stop-opacity:1"/><stop offset=".16" style="stop-color:#a7a7a7;stop-opacity:1"/><stop offset=".21" style="stop-color:#646464;stop-opacity:1"/><stop offset=".21" style="stop-color:#5e5e5e;stop-opacity:1"/><stop offset=".23" style="stop-color:#4f4f4f;stop-opacity:1"/><stop offset=".23" style="stop-color:#494949;stop-opacity:1"/><stop offset=".25" style="stop-color:#2f2f2f;stop-opacity:1"/><stop offset=".26" style="stop-color:#2f322f;stop-opacity:1"/><stop offset=".28" style="stop-color:#2f3d2f;stop-opacity:1"/><stop offset=".3" style="stop-color:#2f4730;stop-opacity:1"/><stop offset=".3" style="stop-color:#2f4a30;stop-opacity:1"/><stop offset=".3" style="stop-color:#304c30;stop-opacity:1"/><stop offset=".31" style="stop-color:#304e30;stop-opacity:1"/><stop offset=".33" style="stop-color:#305a31;stop-opacity:1"/><stop offset=".35" style="stop-color:#306332;stop-opacity:1"/><stop offset=".4" style="stop-color:#317e33;stop-opacity:1"/><stop offset=".41" style="stop-color:#306432;stop-opacity:1"/><stop offset=".41" style="stop-color:#2f3e2f;stop-opacity:1"/><stop offset="1" style="stop-color:#2e2e2e;stop-opacity:1"/></linearGradient></defs></svg>