<svg xmlns="http://www.w3.org/2000/svg" xml:space="preserve" style="fill-rule:evenodd;clip-rule:evenodd" viewBox="0 0 6559 1596"><path d="M125 25h6308.33c6.576 0 13.054.651 19.499 1.921 6.445 1.269 12.695 3.19 18.783 5.696a100.3 100.3 0 0 1 17.285 9.245c5.436 3.646 10.514 7.78 15.136 12.435 4.655 4.622 8.79 9.7 12.435 15.137a100 100 0 0 1 9.245 17.285c2.507 6.087 4.427 12.337 5.697 18.782a100.6 100.6 0 0 1 1.92 19.499v1216.67c0 6.575-.651 13.053-1.92 19.498-1.27 6.446-3.19 12.696-5.697 18.783a100 100 0 0 1-9.245 17.285c-3.645 5.436-7.78 10.514-12.435 15.137-4.622 4.655-9.7 8.789-15.136 12.435a100.2 100.2 0 0 1-17.285 9.244c-6.088 2.507-12.338 4.428-18.783 5.697a100.5 100.5 0 0 1-19.499 1.921H125c-6.576 0-13.086-.651-19.499-1.921-6.445-1.269-12.695-3.19-18.782-5.697a100 100 0 0 1-17.285-9.244c-5.437-3.646-10.515-7.78-15.137-12.435-4.655-4.623-8.789-9.701-12.435-15.137a100.3 100.3 0 0 1-9.245-17.285c-2.506-6.087-4.427-12.337-5.696-18.783A100.5 100.5 0 0 1 25 1341.67V125c0-6.576.651-13.053 1.921-19.499 1.269-6.445 3.19-12.695 5.696-18.782a100.2 100.2 0 0 1 9.245-17.285c3.646-5.437 7.78-10.515 12.435-15.137 4.622-4.655 9.7-8.789 15.137-12.435a100.2 100.2 0 0 1 17.285-9.245c6.087-2.506 12.337-4.427 18.782-5.696A100.2 100.2 0 0 1 125 25" style="fill:#89d0e7;fill-rule:nonzero"/><path d="M125 0h6308.33c8.205 0 16.288.808 24.33 2.392 8.053 1.586 15.865 3.977 23.47 7.108l.044.018a125 125 0 0 1 21.59 11.543l.058.038c6.784 4.55 13.116 9.715 18.857 15.488 5.818 5.782 10.994 12.125 15.552 18.922l.039.057a125 125 0 0 1 11.542 21.59l.018.044c3.132 7.605 5.522 15.417 7.108 23.47a125.3 125.3 0 0 1 2.392 24.33v1216.67c0 8.204-.807 16.288-2.392 24.33-1.586 8.053-3.976 15.864-7.108 23.47l-.018.043a125 125 0 0 1-11.542 21.591l-.039.057c-4.55 6.784-9.715 13.117-15.488 18.858-5.781 5.817-12.125 10.993-18.921 15.552l-.058.038a125 125 0 0 1-21.59 11.542l-.044.018c-7.605 3.132-15.417 5.523-23.47 7.109a125.4 125.4 0 0 1-24.33 2.392H125c-8.208 0-16.336-.81-24.341-2.394-8.049-1.587-15.857-3.976-23.459-7.107l-.044-.018a125 125 0 0 1-21.59-11.542l-.057-.038c-6.785-4.55-13.117-9.716-18.858-15.489-5.818-5.781-10.994-12.124-15.552-18.921l-.038-.057a125.2 125.2 0 0 1-11.543-21.591l-.018-.043c-3.131-7.606-5.522-15.417-7.108-23.47A125.4 125.4 0 0 1 0 1341.67V125c0-8.205.808-16.288 2.392-24.33C3.978 92.617 6.369 84.805 9.5 77.2l.018-.044a125 125 0 0 1 11.543-21.59l.038-.057c4.55-6.785 9.715-13.117 15.488-18.858 5.782-5.818 12.125-10.994 18.922-15.552l.057-.038a125 125 0 0 1 21.59-11.543L77.2 9.5c7.602-3.13 15.41-5.52 23.459-7.106A125.2 125.2 0 0 1 125 0m0 25c-6.576 0-13.086.651-19.499 1.921-6.445 1.269-12.695 3.19-18.782 5.696a100.2 100.2 0 0 0-17.285 9.245c-5.437 3.646-10.515 7.78-15.137 12.435-4.655 4.622-8.789 9.7-12.435 15.137a100.2 100.2 0 0 0-9.245 17.285c-2.506 6.087-4.427 12.337-5.696 18.782A100.5 100.5 0 0 0 25 125v1216.67c0 6.575.651 13.053 1.921 19.498 1.269 6.446 3.19 12.696 5.696 18.783a100.3 100.3 0 0 0 9.245 17.285c3.646 5.436 7.78 10.514 12.435 15.137 4.622 4.655 9.7 8.789 15.137 12.435a100 100 0 0 0 17.285 9.244c6.087 2.507 12.337 4.428 18.782 5.697A100.2 100.2 0 0 0 125 1441.67h6308.33c6.576 0 13.054-.651 19.499-1.921 6.445-1.269 12.695-3.19 18.783-5.697a100.2 100.2 0 0 0 17.285-9.244c5.436-3.646 10.514-7.78 15.136-12.435 4.655-4.623 8.79-9.701 12.435-15.137a100 100 0 0 0 9.245-17.285c2.507-6.087 4.427-12.337 5.697-18.783a100.6 100.6 0 0 0 1.92-19.498V125c0-6.576-.651-13.053-1.92-19.499-1.27-6.445-3.19-12.695-5.697-18.782a100 100 0 0 0-9.245-17.285c-3.645-5.437-7.78-10.515-12.435-15.137-4.622-4.655-9.7-8.789-15.136-12.435a100.3 100.3 0 0 0-17.285-9.245c-6.088-2.506-12.338-4.427-18.783-5.696A100.5 100.5 0 0 0 6433.33 25z" style="fill-opacity:.28"/><path d="M125 25h6308.33c6.576 0 13.054.651 19.499 1.921 6.445 1.269 12.695 3.19 18.783 5.696a100.3 100.3 0 0 1 17.285 9.245c5.436 3.646 10.514 7.78 15.136 12.435 4.655 4.622 8.79 9.7 12.435 15.137a100 100 0 0 1 9.245 17.285c2.507 6.087 4.427 12.337 5.697 18.782a100.6 100.6 0 0 1 1.92 19.499v158.333H25V125c0-6.576.651-13.053 1.921-19.499 1.269-6.445 3.19-12.695 5.696-18.782a100.2 100.2 0 0 1 9.245-17.285c3.646-5.437 7.78-10.515 12.435-15.137 4.622-4.655 9.7-8.789 15.137-12.435a100.2 100.2 0 0 1 17.285-9.245c6.087-2.506 12.337-4.427 18.782-5.696A100.2 100.2 0 0 1 125 25" style="fill:#12a2d1;fill-rule:nonzero"/><path d="M25 286.849h6508.33v3.971H25z" style="fill:#86cbe3;fill-rule:nonzero"/><path d="M25 284.57h6508.33v3.288H25z" style="fill:#7ec2d8;fill-rule:nonzero"/><path d="M25 283.333h6508.33v2.507H25z" style="fill:#12a2d1;fill-rule:nonzero"/><path d="M125 25h6308.33c6.576 0 13.054.651 19.499 1.921 6.445 1.269 12.695 3.19 18.783 5.696a100.3 100.3 0 0 1 17.285 9.245c5.436 3.646 10.514 7.78 15.136 12.435 4.655 4.622 8.79 9.7 12.435 15.137a100 100 0 0 1 9.245 17.285c2.507 6.087 4.427 12.337 5.697 18.782a100.6 100.6 0 0 1 1.92 19.499v1216.67c0 6.575-.651 13.053-1.92 19.498-1.27 6.446-3.19 12.696-5.697 18.783a100 100 0 0 1-9.245 17.285c-3.645 5.436-7.78 10.514-12.435 15.137-4.622 4.655-9.7 8.789-15.136 12.435a100.2 100.2 0 0 1-17.285 9.244c-6.088 2.507-12.338 4.428-18.783 5.697a100.5 100.5 0 0 1-19.499 1.921H125c-6.576 0-13.086-.651-19.499-1.921-6.445-1.269-12.695-3.19-18.782-5.697a100 100 0 0 1-17.285-9.244c-5.437-3.646-10.515-7.78-15.137-12.435-4.655-4.623-8.789-9.701-12.435-15.137a100.3 100.3 0 0 1-9.245-17.285c-2.506-6.087-4.427-12.337-5.696-18.783A100.5 100.5 0 0 1 25 1341.67V125c0-6.576.651-13.053 1.921-19.499 1.269-6.445 3.19-12.695 5.696-18.782a100.2 100.2 0 0 1 9.245-17.285c3.646-5.437 7.78-10.515 12.435-15.137 4.622-4.655 9.7-8.789 15.137-12.435a100.2 100.2 0 0 1 17.285-9.245c6.087-2.506 12.337-4.427 18.782-5.696A100.2 100.2 0 0 1 125 25Z" style="fill:none;fill-rule:nonzero;stroke:#12a2d1;stroke-width:4.17px"/><path d="M171.678 207.338c33.236 0 56.022-24.544 56.022-56.055 0-32.291-22.786-55.729-56.022-55.729-32.942 0-56.054 23.438-56.054 55.729 0 31.511 23.112 56.055 56.054 56.055m0-16.927c-22.493 0-36.914-17.416-36.914-39.128 0-22.298 14.421-38.769 36.914-38.769 22.624 0 37.044 16.471 37.044 38.769 0 21.712-14.42 39.128-37.044 39.128M290.402 134.682v36.556c0 10.774-5.696 19.954-16.439 19.954-9.049 0-12.369-5.697-12.369-14.421v-42.089h-17.416v43.685c0 17.415 8.399 28.352 25.488 28.352 9.994 0 17.741-4.752 22.494-12.369l3.483 10.937h12.044v-70.605zM354.233 206.882c8.073 0 14.876-2.376 21.354-6.51l-5.534-12.989c-3.939 2.54-7.747 3.646-11.882 3.646-4.589 0-7.747-2.051-7.747-9.017v-32.617h21.842v-14.713h-21.842v-22.657h-16.797l-.456 22.657h-12.5v13.769l12.5.944v34.343c0 15.852 8.399 23.144 21.062 23.144M386.989 205.287h17.415l-.162-113.997h-17.253zM433.396 119.936c6.478 0 10.775-4.428 10.775-10.124 0-5.86-4.134-10.449-10.775-10.449-6.64 0-10.775 4.589-10.775 10.286s4.135 10.287 10.775 10.287m-8.724 85.351h17.253v-70.605h-17.253zM494.196 132.761c-21.387 0-36.426 16.309-36.426 37.044 0 22.168 15.528 37.533 38.151 37.533 10.938 0 19.499-3.32 27.572-9.798l-7.292-11.101c-4.915 4.297-10.612 6.641-18.685 6.641-11.393 0-20.28-5.99-22.493-17.415h50.683c.293-2.832.619-5.697.619-8.203 0-21.224-12.175-34.701-32.129-34.701m-.326 14.095c9.017 0 15.691 5.859 16.146 17.09h-34.83c1.92-10.905 9.342-17.09 18.684-17.09M577.162 133.087c-9.179 0-16.308 4.101-20.442 12.044l-3.321-10.449h-11.718v70.605h17.252v-38.476c0-11.231 6.836-17.741 16.797-17.741 3.646 0 6.478.651 9.18 1.595l4.427-14.584c-3.32-1.888-7.259-2.994-12.175-2.994M683.552 207.338c18.359 0 32.943-7.292 43.392-20.085l-11.719-12.044c-7.129 9.342-17.578 15.202-31.347 15.202-21.843 0-36.589-17.123-36.589-39.128 0-22.624 15.202-38.769 37.207-38.769 13.151 0 22.656 4.427 30.404 11.556l9.668-12.663c-12.045-10.938-24.219-15.853-40.528-15.853-32.617 0-55.892 23.438-55.892 55.729 0 31.055 22.168 56.055 55.404 56.055M740.547 205.287h17.415L757.8 91.29h-17.253zM806.421 133.412c-9.506 0-19.141 2.539-29.59 7.259l4.883 13.151c7.291-3.483 15.039-5.696 22.005-5.696 9.049 0 14.42 3.645 14.42 10.937v3.158c-2.539-.163-5.208-.326-8.854-.326-21.549 0-35.807 8.887-35.807 25.033 0 12.5 9.18 19.791 22.168 19.791 11.556 0 19.954-4.589 25.195-12.044l3.158 10.612h11.556v-45.605c0-17.09-11.068-26.27-29.134-26.27m-5.697 60.319c-6.348 0-10.124-2.995-10.124-8.561 0-7.747 7.259-12.175 19.792-12.175 3.157 0 5.371.163 8.236.456-.326 12.826-7.78 20.28-17.904 20.28M863.588 119.936c6.478 0 10.775-4.428 10.775-10.124 0-5.86-4.135-10.449-10.775-10.449s-10.775 4.589-10.775 10.286 4.134 10.287 10.775 10.287m-8.724 85.351h17.252v-70.605h-17.252zM974.257 132.761c-10.612 0-18.359 4.915-22.949 12.533-3.646-7.78-11.1-12.533-21.224-12.533-9.993 0-17.741 4.753-22.493 13.151l-3.483-11.23h-11.719v70.605h17.252v-37.825c0-9.506 4.916-19.174 15.691-19.174 7.747 0 11.556 6.023 11.556 13.314v43.685h17.089v-37.825c0-9.506 4.916-19.174 15.853-19.174 6.966 0 11.393 4.916 11.393 13.444v43.555h17.253v-45.443c0-16.634-8.691-27.083-24.219-27.083M1045.98 133.412c-9.505 0-19.141 2.539-29.59 7.259l4.883 13.151c7.292-3.483 15.039-5.696 22.005-5.696 9.05 0 14.421 3.645 14.421 10.937v3.158c-2.539-.163-5.209-.326-8.854-.326-21.55 0-35.808 8.887-35.808 25.033 0 12.5 9.18 19.791 22.168 19.791 11.556 0 19.955-4.589 25.196-12.044l3.157 10.612h11.556v-45.605c0-17.09-11.068-26.27-29.134-26.27m-5.697 60.319c-6.347 0-10.123-2.995-10.123-8.561 0-7.747 7.259-12.175 19.791-12.175 3.158 0 5.371.163 8.236.456-.325 12.826-7.78 20.28-17.904 20.28M1133.39 132.761c-11.556 0-19.173 5.859-23.763 12.988l-3.483-11.067h-11.719v70.605h17.253v-38.802c0-10.449 6.51-18.197 17.285-18.197 8.529 0 12.012 5.534 12.012 14.421v42.578h17.252v-44.173c0-18.066-8.691-28.353-24.837-28.353M1203.06 206.882c8.073 0 14.876-2.376 21.354-6.51l-5.534-12.989c-3.939 2.54-7.747 3.646-11.882 3.646-4.589 0-7.747-2.051-7.747-9.017v-32.617h21.843v-14.713h-21.843v-22.657h-16.797l-.456 22.657h-12.5v13.769l12.5.944v34.343c0 15.852 8.399 23.144 21.062 23.144M1258.14 206.882c15.527 0 26.139-8.236 26.139-21.387 0-11.718-8.854-17.578-21.224-22.168-7.584-2.701-12.825-5.371-12.825-9.96 0-4.46 4.589-6.023 9.993-6.023 4.753 0 10.449 1.433 15.658 4.102l6.022-11.556c-7.585-4.427-15.039-6.315-23.112-6.315-13.477 0-25.033 6.803-25.033 19.792 0 11.556 8.724 17.415 19.955 21.679 6.966 2.702 13.639 5.209 13.639 10.449 0 4.428-4.134 7.292-10.482 7.292-6.64 0-13.281-2.051-19.303-5.859l-6.804 12.174c8.236 5.241 16.928 7.78 27.377 7.78M1450.54 97.605l-18.392 54.785c-1.725 5.241-3.776 10.937-5.371 17.122a217 217 0 0 0-7.292-17.903l-21.354-47.494h-4.622l-22.136 49.707c-2.246 4.916-4.134 9.831-6.185 15.853-1.432-6.022-3.157-11.1-4.752-16.016l-18.848-56.054h-19.629v.488l37.695 107.813h5.534l26.107-57.129c1.758-3.646 3.027-7.292 4.59-11.882 1.432 4.59 2.864 8.236 4.622 11.882l26.107 57.129h5.534l37.858-107.813v-.488zM1489.16 119.936c6.478 0 10.775-4.428 10.775-10.124 0-5.86-4.134-10.449-10.775-10.449s-10.775 4.589-10.775 10.286 4.134 10.287 10.775 10.287m-8.724 85.351h17.253v-70.605h-17.253zM1544.27 206.882c8.073 0 14.876-2.376 21.354-6.51l-5.534-12.989c-3.938 2.54-7.747 3.646-11.881 3.646-4.59 0-7.748-2.051-7.748-9.017v-32.617h21.843v-14.713h-21.843v-22.657h-16.796l-.456 22.657h-12.5v13.769l12.5.944v34.343c0 15.852 8.398 23.144 21.061 23.144M1615.82 132.761c-10.286 0-17.252 4.427-21.679 11.393.13-4.264.13-7.422.13-10.742V91.29h-17.253v113.997h17.253v-36.426c0-11.23 5.859-20.573 17.122-20.573 8.529 0 12.175 5.534 12.175 14.095v42.904h17.252v-44.336c0-17.415-8.365-28.19-25-28.19M1694.04 169.675l53.841-22.819v-14.713l-53.841-22.819v16.634l34.342 13.476-34.342 13.607zm0 21.192h53.841v-13.933h-53.841zM1826.73 221.27h13.281v-14.551c18.066-1.92 29.948-13.476 29.948-29.948 0-18.652-14.876-26.106-30.892-32.617-12.337-4.72-22.461-9.179-22.461-17.708 0-9.05 8.691-12.207 16.927-12.207 8.854 0 17.253 2.864 25.163 8.561l7.617-14.095c-8.236-5.697-17.09-9.017-26.302-10.124v-14.42h-13.281v14.42c-16.472 2.051-28.646 11.849-28.646 28.646 0 16.146 13.607 24.219 29.427 30.729 12.5 5.046 23.926 9.506 23.926 20.248 0 7.291-7.129 12.825-18.067 12.825-11.067 0-21.679-3.939-30.078-10.612l-9.179 13.477c9.016 7.129 19.954 11.719 32.617 12.825zM1910.15 99.525l-33.235 21.062 7.454 13.606 14.225-8.235c1.433-.782 2.539-1.433 3.646-2.214-.163 2.539-.325 4.915-.325 7.292v74.251h18.392V99.525zM1979.66 207.175c24.089 0 38.64-20.898 38.64-54.297s-14.551-54.134-38.64-54.134c-24.056 0-38.639 20.736-38.639 54.134 0 33.399 14.583 54.297 38.639 54.297m0-16.308c-13.118 0-19.954-15.202-19.954-37.989s6.836-37.988 19.954-37.988c13.151 0 19.955 15.202 19.955 37.988s-6.804 37.989-19.955 37.989M2072.13 207.175c24.088 0 38.639-20.898 38.639-54.297s-14.551-54.134-38.639-54.134c-24.056 0-38.64 20.736-38.64 54.134 0 33.399 14.584 54.297 38.64 54.297m0-16.308c-13.119 0-19.955-15.202-19.955-37.989s6.836-37.988 19.955-37.988c13.151 0 19.954 15.202 19.954 37.988s-6.803 37.989-19.954 37.989M2167.62 150.99l42.415-52.897v-.488h-21.224l-38.607 48.307V97.605h-18.685v107.682h18.685v-48.144l41.146 48.144h22.005v-.618zM2263.1 205.287h18.685v-39.258h22.299c23.763 0 36.425-16.146 36.425-33.724 0-17.741-12.988-34.7-36.1-34.7H2263.1zm18.685-55.273v-36.101h20.736c11.882 0 19.141 8.106 19.141 18.23 0 9.179-5.99 17.871-19.629 17.871zM2354.76 205.287h17.416l-.163-113.997h-17.253zM2420.63 133.412c-9.505 0-19.141 2.539-29.59 7.259l4.883 13.151c7.292-3.483 15.039-5.696 22.005-5.696 9.05 0 14.421 3.645 14.421 10.937v3.158c-2.539-.163-5.209-.326-8.854-.326-21.55 0-35.808 8.887-35.808 25.033 0 12.5 9.18 19.791 22.168 19.791 11.556 0 19.955-4.589 25.196-12.044l3.157 10.612h11.556v-45.605c0-17.09-11.068-26.27-29.134-26.27m-5.697 60.319c-6.347 0-10.123-2.995-10.123-8.561 0-7.747 7.259-12.175 19.791-12.175 3.158 0 5.371.163 8.236.456-.326 12.826-7.78 20.28-17.904 20.28M2508.04 132.761c-11.556 0-19.173 5.859-23.763 12.988l-3.483-11.067h-11.719v70.605h17.253v-38.802c0-10.449 6.51-18.197 17.285-18.197 8.528 0 12.012 5.534 12.012 14.421v42.578h17.252v-44.173c0-18.066-8.691-28.353-24.837-28.353M2591.01 205.287h18.685v-39.258h22.298c23.763 0 36.426-16.146 36.426-33.724 0-17.741-12.989-34.7-36.101-34.7h-41.308zm18.685-55.273v-36.101h20.735c11.882 0 19.141 8.106 19.141 18.23 0 9.179-5.99 17.871-19.629 17.871zM2708 133.412c-9.505 0-19.141 2.539-29.59 7.259l4.883 13.151c7.291-3.483 15.039-5.696 22.005-5.696 9.049 0 14.421 3.645 14.421 10.937v3.158c-2.539-.163-5.209-.326-8.855-.326-21.549 0-35.807 8.887-35.807 25.033 0 12.5 9.18 19.791 22.168 19.791 11.556 0 19.955-4.589 25.195-12.044l3.158 10.612h11.556v-45.605c0-17.09-11.068-26.27-29.134-26.27m-5.697 60.319c-6.347 0-10.123-2.995-10.123-8.561 0-7.747 7.259-12.175 19.791-12.175 3.158 0 5.371.163 8.236.456-.326 12.826-7.78 20.28-17.904 20.28M2765.17 119.936c6.478 0 10.775-4.428 10.775-10.124 0-5.86-4.135-10.449-10.775-10.449s-10.775 4.589-10.775 10.286 4.134 10.287 10.775 10.287m-8.724 85.351h17.253v-70.605h-17.253zM2847.03 91.29v31.51c0 7.748.162 13.77.455 20.248-5.533-6.316-14.095-10.124-23.567-10.124-19.792 0-34.05 15.364-34.05 36.588 0 22.331 13.77 37.533 34.05 37.533 11.067 0 19.791-4.622 25.488-12.37l2.995 10.612h11.881V91.29zm-19.629 100.683c-12.044 0-20.117-8.854-20.117-22.005 0-12.988 8.073-21.842 20.117-21.842 12.174 0 20.247 8.854 20.247 21.842 0 13.151-7.91 22.005-20.247 22.005M2971.68 198.744c20.41 0 31.511-11.849 31.511-33.431V94.968h-9.766v70.182c0 15.918-7.78 24.447-21.745 24.447-8.561 0-16.048-2.539-22.949-8.105l-4.948 7.975c8.561 6.282 17.546 9.277 27.897 9.277M3051.32 129.896c-8.398 0-16.927 2.116-25.944 6.316l3.158 7.78c7.356-3.451 14.681-5.534 21.907-5.534 10.189 0 16.797 4.655 16.797 13.932v4.525c-3.45-.456-7.194-.619-12.142-.619-19.531 0-33.17 8.561-33.17 23.405 0 11.393 8.268 18.457 21.158 18.457 11.687 0 20.248-5.241 25.033-13.216l1.66 12.012h6.738v-44.108c0-15.007-10.026-22.95-25.195-22.95m-6.738 59.701c-8.236 0-13.053-3.906-13.053-10.482-.001-9.765 9.309-15.169 24.902-15.169 4.362 0 7.194.163 10.807.618-.456 15.137-9.017 25.033-22.656 25.033M3131.28 129.311c-11.231 0-19.336 5.533-23.243 12.597l-2.115-11.263h-6.902v66.309h9.18v-35.71c0-13.802 8.822-23.405 22.168-23.405 11.1 0 15.332 7.227 15.332 18.457v40.658h9.147v-40.495c0-17.253-8.105-27.148-23.567-27.148M3222.63 130.645v33.008c0 14.095-7.813 25.944-20.996 25.944-11.849 0-16.048-7.65-16.048-18.457v-40.495h-9.147v40.365c0 16.178 7.649 27.148 24.153 27.148 10.938 0 18.425-5.696 22.331-12.76l1.823 11.556h7.031v-66.309zM3279.32 129.896c-8.398 0-16.927 2.116-25.944 6.316l3.158 7.78c7.356-3.451 14.681-5.534 21.907-5.534 10.189 0 16.797 4.655 16.797 13.932v4.525c-3.451-.456-7.194-.619-12.142-.619-19.531 0-33.17 8.561-33.17 23.405 0 11.393 8.268 18.457 21.158 18.457 11.687 0 20.248-5.241 25.033-13.216l1.66 12.012h6.738v-44.108c0-15.007-10.026-22.95-25.195-22.95m-6.738 59.701c-8.236 0-13.054-3.906-13.054-10.482 0-9.765 9.31-15.169 24.903-15.169 4.362 0 7.194.163 10.807.618-.456 15.137-9.017 25.033-22.656 25.033M3355.08 129.311c-9.31 0-15.592 4.199-19.336 11.1l-1.823-9.766h-6.901v66.309h9.18v-38.412c0-12.89 7.324-20.54 18.132-20.54 3.743 0 6.315.749 8.854 1.66l2.702-8.105c-2.995-1.368-6.609-2.246-10.808-2.246M3426.62 130.645l-17.22 42.448c-1.53 3.776-3.028 7.65-4.525 12.305-1.497-4.655-3.125-8.399-4.785-12.305l-19.043-42.448h-9.603v.293l28.939 64.356-14.714 34.375v.293h9.603l40.82-99.024v-.293zM3501.03 188.1c-2.539 0-6.608 0-9.896.162 1.954-2.409 4.362-5.566 6.153-7.942l21.907-28.809c10.026-13.509 13.184-19.954 13.184-29.264 0-14.844-10.352-25.944-26.693-25.944-12.012 0-20.866 6.315-27.897 15.592l7.194 5.567c5.111-7.194 11.686-12.142 20.54-12.142 10.808 0 17.123 7.487 17.123 17.545 0 6.576-3.028 12.435-10.222 22.038l-37.044 49.349v2.702h59.408V188.1zM3583.98 198.451c21.744 0 34.961-19.792 34.961-51.139 0-31.218-13.217-51.009-34.961-51.009-21.745 0-34.799 19.791-34.799 51.009 0 31.347 13.054 51.139 34.799 51.139m0-9.147c-15.593 0-24.903-16.341-24.903-41.992s9.31-41.992 24.903-41.992c15.755 0 25.032 16.341 25.032 41.992s-9.277 41.992-25.032 41.992M3656.88 188.1c-2.539 0-6.608 0-9.896.162 1.954-2.409 4.362-5.566 6.153-7.942l21.907-28.809c10.026-13.509 13.184-19.954 13.184-29.264 0-14.844-10.352-25.944-26.693-25.944-12.011 0-20.866 6.315-27.897 15.592l7.194 5.567c5.111-7.194 11.686-12.142 20.541-12.142 10.807 0 17.122 7.487 17.122 17.545 0 6.576-3.027 12.435-10.221 22.038l-37.045 49.349v2.702h59.408V188.1zM3728.73 136.212c-3.743 0-7.487.455-11.393 1.204l4.037-30.762h37.793V97.8h-45.736l-6.315 48.145 1.66 1.66c4.948-1.791 11.1-2.995 17.546-2.995 13.346 0 26.399 5.404 26.399 22.038 0 13.672-9.895 22.819-23.079 22.819-10.059 0-17.708-3.776-22.656-10.677l-6.608 6.022c6.445 8.691 16.341 13.802 28.645 13.802 19.043 0 33.464-12.923 33.464-31.966 0-19.499-14.551-30.436-33.757-30.436M3806.29 158.868h84.277v7.487h-84.277zM3943.69 196.954h32.845c31.348 0 51.888-21.289 51.888-50.847 0-29.687-21.126-51.139-52.051-51.139h-32.682zm9.896-8.985v-84.017h22.786c25.521 0 42.318 18.295 42.318 42.155 0 23.698-16.667 41.862-42.155 41.862zM4077.35 129.018c-19.661 0-33.463 15.429-33.463 34.635 0 20.54 14.095 34.961 34.212 34.961 10.482 0 18.587-3.613 25.325-10.059l-5.24-6.608c-5.111 5.241-10.938 8.106-20.248 8.106-12.435 0-23.242-8.399-24.739-22.494h53.092c.293-2.246.456-4.362.456-6.445 0-19.369-10.97-32.096-29.395-32.096m-.163 8.528c12.142 0 20.248 7.813 20.541 21.908h-44.238c1.79-13.216 11.393-21.908 23.697-21.908M4152.64 198.614c11.556 0 18.75-3.451 25.651-9.896l-5.11-6.608c-5.404 5.078-10.808 7.943-19.792 7.943-13.802 0-24.447-10.515-24.447-26.4 0-15.592 10.775-25.944 24.577-25.944 7.813 0 13.054 2.083 18.457 6.738l5.241-6.282c-6.738-6.022-14.095-9.017-23.698-9.017-18.001 0-33.886 12.597-33.886 34.505 0 22.786 16.504 34.961 33.007 34.961M4221.2 129.018c-19.661 0-33.463 15.429-33.463 34.635 0 20.54 14.095 34.961 34.212 34.961 10.482 0 18.587-3.613 25.325-10.059l-5.241-6.608c-5.11 5.241-10.937 8.106-20.247 8.106-12.435 0-23.242-8.399-24.74-22.494h53.093c.293-2.246.456-4.362.456-6.445 0-19.369-10.97-32.096-29.395-32.096m-.163 8.528c12.142 0 20.248 7.813 20.541 21.908h-44.239c1.791-13.216 11.394-21.908 23.698-21.908M4342.52 129.311c-11.1 0-18.75 5.24-23.079 13.346-3.158-8.399-10.515-13.346-20.573-13.346-9.571 0-17.22 4.654-21.582 12.727l-2.116-11.393h-6.901v66.309h9.179v-34.505c0-12.435 6.869-24.61 20.378-24.61 10.059 0 14.714 7.813 14.714 16.96v42.155h9.147v-34.505c0-12.435 6.901-24.61 20.247-24.61 9.31 0 14.714 6.478 14.714 17.123v41.992h9.147v-41.537c0-16.048-8.106-26.106-23.275-26.106M4422.77 129.311c-10.807 0-20.248 4.785-25.651 12.89.163-5.859.325-12.012.325-18.294V89.402h-9.179v107.552h7.063l1.335-11.556c5.567 8.105 14.876 13.053 26.107 13.053 19.661 0 33.301-14.713 33.301-34.961 0-19.629-13.802-34.179-33.301-34.179m-.586 60.449c-15.3 0-25.195-10.97-25.195-25.944 0-15.007 10.188-25.977 25.195-25.977 14.681 0 24.74 10.807 24.74 25.977 0 15.136-10.059 25.944-24.74 25.944M4503.35 129.018c-19.661 0-33.464 15.429-33.464 34.635 0 20.54 14.096 34.961 34.213 34.961 10.481 0 18.587-3.613 25.325-10.059l-5.241-6.608c-5.11 5.241-10.937 8.106-20.247 8.106-12.435 0-23.242-8.399-24.74-22.494h53.093c.293-2.246.456-4.362.456-6.445 0-19.369-10.971-32.096-29.395-32.096m-.163 8.528c12.142 0 20.248 7.813 20.541 21.908h-44.239c1.791-13.216 11.394-21.908 23.698-21.908M4578.48 129.311c-9.309 0-15.592 4.199-19.335 11.1l-1.823-9.766h-6.901v66.309h9.179v-38.412c0-12.89 7.324-20.54 18.132-20.54 3.743 0 6.315.749 8.854 1.66l2.702-8.105c-2.995-1.368-6.608-2.246-10.808-2.246M4653.78 188.1c-2.539 0-6.608 0-9.895.162 1.953-2.409 4.362-5.566 6.152-7.942l21.907-28.809c10.026-13.509 13.184-19.954 13.184-29.264 0-14.844-10.352-25.944-26.693-25.944-12.011 0-20.866 6.315-27.897 15.592l7.194 5.567c5.111-7.194 11.686-12.142 20.541-12.142 10.807 0 17.122 7.487 17.122 17.545 0 6.576-3.027 12.435-10.221 22.038l-37.045 49.349v2.702h59.408V188.1zM4736.73 198.451c21.745 0 34.961-19.792 34.961-51.139 0-31.218-13.216-51.009-34.961-51.009s-34.798 19.791-34.798 51.009c0 31.347 13.053 51.139 34.798 51.139m0-9.147c-15.593 0-24.903-16.341-24.903-41.992s9.31-41.992 24.903-41.992c15.755 0 25.032 16.341 25.032 41.992s-9.277 41.992-25.032 41.992M4809.63 188.1c-2.539 0-6.608 0-9.895.162 1.953-2.409 4.362-5.566 6.152-7.942l21.908-28.809c10.026-13.509 13.183-19.954 13.183-29.264 0-14.844-10.351-25.944-26.693-25.944-12.011 0-20.865 6.315-27.897 15.592l7.194 5.567c5.111-7.194 11.686-12.142 20.541-12.142 10.807 0 17.122 7.487 17.122 17.545 0 6.576-3.027 12.435-10.221 22.038l-37.045 49.349v2.702h59.408V188.1zM4881.48 136.212c-3.744 0-7.487.455-11.394 1.204l4.037-30.762h37.793V97.8h-45.736l-6.315 48.145 1.66 1.66c4.948-1.791 11.1-2.995 17.546-2.995 13.346 0 26.399 5.404 26.399 22.038 0 13.672-9.895 22.819-23.079 22.819-10.059 0-17.708-3.776-22.656-10.677l-6.608 6.022c6.445 8.691 16.341 13.802 28.646 13.802 19.043 0 33.463-12.923 33.463-31.966 0-19.499-14.551-30.436-33.756-30.436" style="fill:#fefefe;fill-rule:nonzero"/><path d="M141.667 316.667h6275a82.3 82.3 0 0 1 16.243 1.595 85 85 0 0 1 15.658 4.752 83.7 83.7 0 0 1 14.388 7.683 84 84 0 0 1 12.63 10.384 82 82 0 0 1 10.351 12.63 80.5 80.5 0 0 1 7.715 14.388 85 85 0 0 1 4.753 15.658A82.3 82.3 0 0 1 6500 400v908.333c0 6.576-.651 13.054-1.921 19.499-1.269 6.445-3.19 12.695-5.696 18.783a100.3 100.3 0 0 1-9.245 17.285c-3.646 5.436-7.78 10.514-12.435 15.136-4.622 4.655-9.7 8.79-15.137 12.435a100 100 0 0 1-17.285 9.245c-6.087 2.507-12.337 4.427-18.782 5.697a100.6 100.6 0 0 1-19.499 1.92H158.33c-6.575 0-13.086-.651-19.498-1.92-6.446-1.27-12.696-3.19-18.783-5.697a100 100 0 0 1-17.285-9.245c-5.436-3.645-10.514-7.78-15.137-12.435-4.655-4.622-8.789-9.7-12.435-15.136a100.2 100.2 0 0 1-9.244-17.285c-2.507-6.088-4.428-12.338-5.697-18.783a100.5 100.5 0 0 1-1.921-19.499V400c0-5.469.521-10.905 1.595-16.243 1.075-5.372 2.637-10.58 4.753-15.658a82.5 82.5 0 0 1 7.682-14.388 84 84 0 0 1 10.384-12.63 84 84 0 0 1 12.631-10.384 82.4 82.4 0 0 1 14.388-7.683 85 85 0 0 1 15.657-4.752 82.3 82.3 0 0 1 16.244-1.595Z" style="fill:#6eb5cf;fill-rule:nonzero;stroke:#0c85b0;stroke-width:4.17px"/><path d="M91.667 1250V475c0-8.203.813-16.341 2.409-24.382a126 126 0 0 1 7.096-23.47c3.157-7.552 6.999-14.778 11.556-21.582a122.3 122.3 0 0 1 15.56-18.945 122.3 122.3 0 0 1 18.945-15.56c6.803-4.557 14.03-8.398 21.582-11.556a126 126 0 0 1 23.47-7.096A125 125 0 0 1 216.667 350h6125a125.51 125.51 0 0 1 47.819 9.505c7.584 3.158 14.811 6.999 21.614 11.556a122.3 122.3 0 0 1 18.946 15.56 122.3 122.3 0 0 1 15.559 18.945c4.558 6.804 8.399 14.03 11.556 21.582a125.9 125.9 0 0 1 9.506 47.852v775c0 8.203-.814 16.341-2.409 24.382a124.8 124.8 0 0 1-7.097 23.437c-3.157 7.585-6.998 14.811-11.556 21.615a122.3 122.3 0 0 1-15.559 18.945 122.3 122.3 0 0 1-18.946 15.56c-6.803 4.557-14.03 8.398-21.614 11.556a124.8 124.8 0 0 1-23.438 7.096 125 125 0 0 1-24.381 2.409h-6125a125 125 0 0 1-24.382-2.409 126 126 0 0 1-23.47-7.096c-7.552-3.158-14.779-6.999-21.582-11.556a122.3 122.3 0 0 1-18.945-15.56 122.3 122.3 0 0 1-15.56-18.945c-4.557-6.804-8.399-14.03-11.556-21.615a124.8 124.8 0 0 1-7.096-23.437A125 125 0 0 1 91.667 1250Z" style="fill:#e4e4e4;fill-rule:nonzero;stroke:#747474;stroke-width:4.17px"/><path d="M125 1216.67V508.336c0-8.203.814-16.341 2.409-24.381a126 126 0 0 1 7.096-23.47c3.158-7.552 6.999-14.779 11.556-21.582a122.3 122.3 0 0 1 15.56-18.946 122.3 122.3 0 0 1 18.945-15.559c6.804-4.558 14.03-8.399 21.582-11.556A125.9 125.9 0 0 1 250 383.336h6058.33a125.503 125.503 0 0 1 47.819 9.506c7.585 3.157 14.812 6.998 21.615 11.556a122.3 122.3 0 0 1 18.945 15.559 122.3 122.3 0 0 1 15.56 18.946c4.557 6.803 8.399 14.03 11.556 21.582a126 126 0 0 1 7.096 23.47 125 125 0 0 1 2.409 24.381v708.334c0 8.203-.813 16.341-2.409 24.381a124.8 124.8 0 0 1-7.096 23.438c-3.157 7.584-6.999 14.811-11.556 21.614a122.3 122.3 0 0 1-15.56 18.946 122.3 122.3 0 0 1-18.945 15.559c-6.803 4.558-14.03 8.399-21.615 11.556a125.5 125.5 0 0 1-47.819 9.506H250a125.849 125.849 0 0 1-47.852-9.506c-7.552-3.157-14.778-6.998-21.582-11.556a122.3 122.3 0 0 1-18.945-15.559 122.3 122.3 0 0 1-15.56-18.946c-4.557-6.803-8.398-14.03-11.556-21.614a124.8 124.8 0 0 1-7.096-23.438A125 125 0 0 1 125 1216.67Z" style="fill:#f6f6f6;fill-rule:nonzero;stroke:#bdbdbd;stroke-width:4.17px"/><path d="M353.939 558.398c.358 4.33 3.971 7.683 8.301 7.683h1.041c4.362 0 8.008-3.386 8.301-7.748 1.204-16.862 4.036-56.478 4.981-69.791a4.26 4.26 0 0 0-1.107-3.125 4.16 4.16 0 0 0-3.06-1.335h-19.792a4.16 4.16 0 0 0-3.06 1.335 4.16 4.16 0 0 0-1.106 3.157 73799 73799 0 0 0 5.501 69.824m8.626 43.295c6.413 0 12.826-4.037 12.826-12.663 0-8.789-6.413-12.826-12.826-12.826-6.575 0-12.988 4.037-12.988 12.826 0 8.626 6.413 12.663 12.988 12.663M395.605 558.398c.359 4.33 3.972 7.683 8.301 7.683h1.042c4.362 0 8.008-3.386 8.301-7.748 1.204-16.862 4.036-56.478 4.98-69.791a4.26 4.26 0 0 0-1.107-3.125 4.16 4.16 0 0 0-3.059-1.335h-19.792a4.16 4.16 0 0 0-3.06 1.335 4.16 4.16 0 0 0-1.107 3.157c1.042 13.379 4.167 52.995 5.501 69.824m8.627 43.295c6.413 0 12.825-4.037 12.825-12.663 0-8.789-6.412-12.826-12.825-12.826-6.576 0-12.989 4.037-12.989 12.826 0 8.626 6.413 12.663 12.989 12.663M571.678 599.004c33.236 0 56.022-24.544 56.022-56.055 0-32.291-22.786-55.729-56.022-55.729-32.942 0-56.054 23.438-56.054 55.729 0 31.511 23.112 56.055 56.054 56.055m0-16.927c-22.493 0-36.914-17.415-36.914-39.128 0-22.298 14.421-38.769 36.914-38.769 22.624 0 37.044 16.471 37.044 38.769 0 21.713-14.42 39.128-37.044 39.128M690.402 526.348v36.556c0 10.775-5.696 19.954-16.439 19.954-9.049 0-12.369-5.696-12.369-14.42v-42.09h-17.416v43.685c0 17.415 8.399 28.353 25.488 28.353 9.994 0 17.741-4.753 22.494-12.37l3.483 10.937h12.044v-70.605zM754.233 598.548c8.073 0 14.876-2.376 21.354-6.51l-5.534-12.988c-3.939 2.539-7.747 3.646-11.882 3.646-4.589 0-7.747-2.051-7.747-9.017v-32.618h21.842v-14.713h-21.842v-22.656h-16.797l-.456 22.656h-12.5v13.769l12.5.944v34.343c0 15.853 8.399 23.144 21.062 23.144M786.989 596.953h17.415l-.162-113.997h-17.253zM833.396 511.602c6.478 0 10.775-4.427 10.775-10.124 0-5.859-4.134-10.449-10.775-10.449-6.64 0-10.775 4.59-10.775 10.286 0 5.697 4.135 10.287 10.775 10.287m-8.724 85.351h17.253v-70.605h-17.253zM894.196 524.427c-21.387 0-36.426 16.309-36.426 37.045 0 22.168 15.528 37.532 38.151 37.532 10.938 0 19.499-3.32 27.572-9.798l-7.292-11.1c-4.915 4.297-10.612 6.64-18.685 6.64-11.393 0-20.28-5.989-22.493-17.415h50.683c.293-2.832.619-5.697.619-8.203 0-21.224-12.175-34.701-32.129-34.701m-.326 14.095c9.017 0 15.691 5.86 16.146 17.09h-34.83c1.92-10.905 9.342-17.09 18.684-17.09M977.162 524.753c-9.179 0-16.308 4.101-20.442 12.044l-3.321-10.449h-11.718v70.605h17.252v-38.476c0-11.231 6.836-17.741 16.797-17.741 3.646 0 6.478.651 9.18 1.595l4.427-14.583c-3.32-1.888-7.259-2.995-12.175-2.995M1083.55 599.004c18.359 0 32.943-7.292 43.392-20.085l-11.719-12.044c-7.129 9.343-17.578 15.202-31.347 15.202-21.843 0-36.589-17.122-36.589-39.128 0-22.623 15.202-38.769 37.207-38.769 13.151 0 22.656 4.427 30.404 11.556l9.668-12.663c-12.045-10.937-24.219-15.853-40.528-15.853-32.617 0-55.892 23.438-55.892 55.729 0 31.055 22.168 56.055 55.404 56.055M1140.55 596.953h17.415l-.162-113.997h-17.253zM1206.42 525.078c-9.506 0-19.141 2.539-29.59 7.259l4.883 13.151c7.291-3.483 15.039-5.696 22.005-5.696 9.049 0 14.42 3.646 14.42 10.937v3.158c-2.539-.163-5.208-.326-8.854-.326-21.549 0-35.807 8.887-35.807 25.033 0 12.5 9.18 19.792 22.168 19.792 11.556 0 19.954-4.59 25.195-12.045l3.158 10.612h11.556v-45.605c0-17.09-11.068-26.27-29.134-26.27m-5.697 60.319c-6.348 0-10.124-2.994-10.124-8.561 0-7.747 7.259-12.174 19.792-12.174 3.157 0 5.371.162 8.236.455-.326 12.826-7.78 20.28-17.904 20.28M1263.59 511.602c6.478 0 10.775-4.427 10.775-10.124 0-5.859-4.135-10.449-10.775-10.449s-10.775 4.59-10.775 10.286c0 5.697 4.134 10.287 10.775 10.287m-8.724 85.351h17.252v-70.605h-17.252zM1374.26 524.427c-10.612 0-18.359 4.916-22.949 12.533-3.646-7.78-11.1-12.533-21.224-12.533-9.993 0-17.741 4.753-22.493 13.151l-3.483-11.23h-11.719v70.605h17.252v-37.825c0-9.505 4.916-19.173 15.691-19.173 7.747 0 11.556 6.022 11.556 13.313v43.685h17.089v-37.825c0-9.505 4.916-19.173 15.853-19.173 6.966 0 11.393 4.915 11.393 13.444v43.554h17.253v-45.442c0-16.634-8.691-27.084-24.219-27.084M1445.98 525.078c-9.505 0-19.141 2.539-29.59 7.259l4.883 13.151c7.292-3.483 15.039-5.696 22.005-5.696 9.05 0 14.421 3.646 14.421 10.937v3.158c-2.539-.163-5.209-.326-8.854-.326-21.55 0-35.808 8.887-35.808 25.033 0 12.5 9.18 19.792 22.168 19.792 11.556 0 19.955-4.59 25.196-12.045l3.157 10.612h11.556v-45.605c0-17.09-11.068-26.27-29.134-26.27m-5.697 60.319c-6.347 0-10.123-2.994-10.123-8.561 0-7.747 7.259-12.174 19.791-12.174 3.158 0 5.371.162 8.236.455-.325 12.826-7.78 20.28-17.904 20.28M1533.39 524.427c-11.556 0-19.173 5.86-23.763 12.989l-3.483-11.068h-11.719v70.605h17.253v-38.802c0-10.449 6.51-18.196 17.285-18.196 8.529 0 12.012 5.533 12.012 14.42v42.578h17.252V552.78c0-18.066-8.691-28.353-24.837-28.353M1603.06 598.548c8.073 0 14.876-2.376 21.354-6.51l-5.534-12.988c-3.939 2.539-7.747 3.646-11.882 3.646-4.589 0-7.747-2.051-7.747-9.017v-32.618h21.843v-14.713h-21.843v-22.656h-16.797l-.456 22.656h-12.5v13.769l12.5.944v34.343c0 15.853 8.399 23.144 21.062 23.144M1658.14 598.548c15.527 0 26.139-8.235 26.139-21.386 0-11.719-8.854-17.578-21.224-22.168-7.584-2.702-12.825-5.371-12.825-9.961 0-4.46 4.589-6.022 9.993-6.022 4.753 0 10.449 1.432 15.658 4.101l6.022-11.556c-7.585-4.427-15.039-6.315-23.112-6.315-13.477 0-25.033 6.803-25.033 19.792 0 11.556 8.724 17.415 19.955 21.679 6.966 2.702 13.639 5.209 13.639 10.45 0 4.427-4.134 7.291-10.482 7.291-6.64 0-13.281-2.05-19.303-5.859l-6.804 12.174c8.236 5.241 16.928 7.78 27.377 7.78" style="fill-rule:nonzero"/><path d="M200 1200V766.667a82.3 82.3 0 0 1 1.595-16.244 82.7 82.7 0 0 1 4.753-15.657 82.4 82.4 0 0 1 7.682-14.388 84.13 84.13 0 0 1 23.014-23.015 82.5 82.5 0 0 1 14.388-7.682 85.2 85.2 0 0 1 15.658-4.753 82.3 82.3 0 0 1 16.243-1.595h6008.33a82.3 82.3 0 0 1 16.243 1.595 85.2 85.2 0 0 1 15.658 4.753c5.045 2.083 9.83 4.655 14.388 7.682a84.1 84.1 0 0 1 23.014 23.015 82.4 82.4 0 0 1 7.682 14.388 85 85 0 0 1 4.753 15.657 82.3 82.3 0 0 1 1.595 16.244V1200c0 5.469-.521 10.905-1.595 16.243a85 85 0 0 1-4.753 15.658 81.6 81.6 0 0 1-7.714 14.388 82 82 0 0 1-10.352 12.63 84 84 0 0 1-12.63 10.384 83.7 83.7 0 0 1-14.388 7.683 85 85 0 0 1-15.658 4.752 82.2 82.2 0 0 1-16.243 1.595H283.333c-5.468 0-10.905-.52-16.243-1.595a85 85 0 0 1-15.658-4.752 82.5 82.5 0 0 1-14.388-7.683 84 84 0 0 1-12.63-10.384 84 84 0 0 1-10.384-12.63c-3.027-4.557-5.599-9.342-7.682-14.388a82.7 82.7 0 0 1-4.753-15.658A82.3 82.3 0 0 1 200 1200Z" style="fill:#fafafa;fill-rule:nonzero;stroke:#bdbdbd;stroke-width:4.17px"/><path d="M361.333 1054.17h15.722v-33.073h18.816c19.987 0 30.664-13.606 30.664-28.385 0-14.941-10.938-29.199-30.404-29.199h-34.798zm15.722-46.549V977.25h17.481c9.993 0 16.113 6.803 16.113 15.332 0 7.715-5.045 15.039-16.504 15.039zM459.858 993.619c-8.008 0-16.114 2.149-24.935 6.153l4.134 11.067c6.152-2.929 12.662-4.817 18.554-4.817 7.585 0 12.11 3.092 12.11 9.212v2.669c-2.116-.13-4.395-.26-7.455-.26-18.131 0-30.143 7.454-30.143 21.061 0 10.514 7.748 16.667 18.685 16.667 9.733 0 16.797-3.874 21.191-10.124l2.67 8.919h9.733v-38.411c0-14.388-9.343-22.136-24.544-22.136m-4.786 50.814c-5.338 0-8.528-2.539-8.528-7.194 0-6.543 6.119-10.286 16.666-10.286 2.67 0 4.525.162 6.934.423-.293 10.775-6.543 17.057-15.072 17.057M507.985 982.291c5.468 0 9.082-3.711 9.082-8.528 0-4.916-3.483-8.789-9.082-8.789s-9.05 3.873-9.05 8.658c0 4.786 3.451 8.659 9.05 8.659m-7.325 71.875h14.551v-59.472H500.66zM576.922 958.17v26.53c0 6.543.13 11.589.423 17.057-4.687-5.338-11.881-8.528-19.889-8.528-16.667 0-28.646 12.923-28.646 30.794 0 18.815 11.588 31.608 28.646 31.608 9.342 0 16.666-3.874 21.484-10.384l2.539 8.919h9.994V958.17zm-16.537 84.798c-10.123 0-16.927-7.454-16.927-18.522 0-10.937 6.804-18.424 16.927-18.424 10.287 0 17.09 7.487 17.09 18.424 0 11.068-6.673 18.522-17.09 18.522M719.269 1006.18v-46.582c8.822 1.14 16.7 4.428 24.154 9.961l5.762-10.156c-9.213-6.51-19.564-10.351-29.916-11.295v-16.667h-12.63v16.471c-19.368 1.921-33.756 13.412-33.756 31.608 0 18.978 16.504 27.604 33.756 34.701v51.758c-11.133-1.335-22.233-5.957-31.055-13.021l-7.096 8.984c10.742 8.822 24.349 14.193 38.151 15.528v16.666h12.63v-16.471c21.289-1.725 35.84-15.332 35.84-33.724 0-20.899-16.862-30.274-35.84-37.761m-33.919-27.604c0-12.272 9.766-18.001 21.289-19.368v41.797c-11.881-5.176-21.289-11.491-21.289-22.429m33.919 87.793v-46.777c13.054 5.566 23.405 11.881 23.405 24.902 0 11.914-9.603 20.15-23.405 21.875M806.308 998.5c-4.817 0-9.602.586-14.583 1.53l5.176-39.29h48.307v-11.296h-58.463l-8.041 61.524 2.116 2.115c6.315-2.311 14.16-3.841 22.396-3.841 17.09 0 33.756 6.901 33.756 28.19 0 17.416-12.662 29.135-29.524 29.135-12.826 0-22.624-4.818-28.939-13.607l-8.431 7.65c8.236 11.132 20.898 17.643 36.588 17.643 24.349 0 42.741-16.504 42.741-40.821 0-24.934-18.587-38.932-43.099-38.932M936.456 1037.43v-89.908h-3.288l-72.624 97.949v3.06h63.998v27.604h11.914v-27.604h14.941v-11.101zm-11.719 0h-45.215c2.865-3.255 5.371-6.543 7.845-9.993l29.72-40.43c2.474-3.646 5.176-6.901 8.041-10.937-.391 5.176-.391 9.212-.391 13.802zM980.914 1078.06c4.395 0 9.017-2.864 9.017-8.821 0-6.12-4.622-9.017-9.017-9.017-4.622 0-9.017 2.897-9.017 9.017 0 5.957 4.395 8.821 9.017 8.821M1084.81 1037.43v-89.908h-3.288l-72.624 97.949v3.06h63.998v27.604h11.914v-27.604h14.941v-11.101zm-11.719 0h-45.215c2.865-3.255 5.371-6.543 7.845-9.993l29.72-40.43c2.474-3.646 5.176-6.901 8.041-10.937-.391 5.176-.391 9.212-.391 13.802zM1240.23 944.659h-3.646l-41.015 66.113c-2.669 4.427-5.371 8.822-8.041 13.998-2.701-5.176-5.371-9.571-8.072-13.802l-40.821-66.309h-3.808l-18.62 131.478h12.467l12.468-89.876c.553-3.842 1.334-8.073 1.725-12.468 2.279 3.841 4.59 7.65 6.706 10.905l36.621 59.245h2.864l36.426-58.854a457 457 0 0 0 7.064-11.686c.195 4.589.781 8.821 1.367 12.858l12.63 89.876h12.273zM1605.76 982.194c.683.13 1.334.26 1.92.456 2.474.683 4.59 1.725 6.348 3.092a22.6 22.6 0 0 1 4.785 5.241l13.867 20.475q.391.537.782 1.172c.293.391.52.781.716 1.205q.927 1.61.39 3.613c-.358 1.335-1.269 2.376-2.702 3.157-1.106.619-2.246.847-3.483.684a5.15 5.15 0 0 1-3.092-1.693c-.358-.39-1.009-1.237-1.921-2.539-.944-1.269-2.018-2.767-3.255-4.492a252 252 0 0 1-3.776-5.306l-3.385-4.818c-.261-.325-.521-.423-.847-.325s-.488.325-.488.716c0 1.432.033 3.158.065 5.143.033 1.986.098 4.037.163 6.153.098 2.148.195 4.166.358 6.087.13 1.953.326 3.613.521 4.98.195 1.107.521 2.8 1.009 5.111q.732 3.515 1.758 7.91c.683 2.962 1.367 5.957 2.083 9.05l2.018 8.593c.619 2.637 1.14 4.851 1.563 6.576s.683 2.702.749 2.962c.52 1.758.293 3.32-.684 4.72-.977 1.367-2.344 2.084-4.134 2.084-2.702 0-4.492-1.628-5.404-4.916a241 241 0 0 1-1.432-5.469l-1.986-7.78-2.148-8.398c-.716-2.767-1.367-5.273-1.953-7.487-.586-2.246-1.075-3.874-1.433-4.915-.618-1.888-1.171-3.223-1.692-3.972-.521-.748-1.27-1.139-2.279-1.139-.977 0-1.725.391-2.246 1.139-.521.749-1.074 2.084-1.693 3.972-.358 1.041-.846 2.669-1.432 4.915-.586 2.214-1.27 4.72-1.986 7.487q-1.074 4.15-2.148 8.398l-1.953 7.78a240 240 0 0 1-1.433 5.469c-.911 3.288-2.701 4.916-5.403 4.916-1.791 0-3.19-.717-4.134-2.084-.977-1.4-1.205-2.962-.684-4.72.065-.26.293-1.237.716-2.962l1.563-6.576a810.412 810.412 0 0 0 4.101-17.643c.684-2.93 1.237-5.566 1.758-7.91.488-2.311.814-4.004 1.009-5.111.228-1.367.423-3.027.554-4.98.162-1.921.26-3.939.325-6.087.098-2.116.163-4.167.195-6.12.033-1.986.066-3.679.066-5.143 0-.391-.163-.619-.489-.749-.358-.098-.618 0-.846.325-1.009 1.433-2.149 3.06-3.418 4.851l-3.744 5.273c-1.237 1.725-2.311 3.223-3.255 4.492q-1.367 1.953-1.953 2.539c-.814.944-1.855 1.498-3.06 1.693-1.237.163-2.376-.065-3.483-.684-1.432-.781-2.344-1.822-2.702-3.157s-.26-2.539.391-3.613c.195-.424.423-.814.683-1.205.293-.423.554-.814.814-1.172l13.867-20.475c1.4-2.116 2.995-3.841 4.786-5.241 1.757-1.367 3.873-2.409 6.315-3.092a32 32 0 0 1 1.888-.456c1.562-.488 2.604-1.432 2.604-2.572 0-.586-.293-1.171-.846-1.627a8 8 0 0 1-.684-.423q-2.685-1.758-4.297-4.786c-1.042-2.018-1.595-4.231-1.595-6.673 0-2.474.553-4.72 1.595-6.705 1.074-2.019 2.507-3.614 4.297-4.818 1.79-1.205 3.776-1.791 5.957-1.791 2.214 0 4.199.586 5.99 1.791 1.79 1.204 3.222 2.799 4.296 4.818 1.042 1.985 1.596 4.231 1.596 6.705 0 2.442-.554 4.655-1.596 6.673q-1.611 3.028-4.296 4.786a6 6 0 0 1-.749.455c-.521.456-.814 1.009-.814 1.595 0 1.107 1.042 2.084 2.572 2.572M1745.99 1064.84c-3.255 0-8.431 0-12.63.163 2.474-3.06 5.533-7.064 7.845-10.156l27.994-36.784c12.826-17.253 16.862-25.488 16.862-37.37 0-18.978-13.248-33.17-34.114-33.17-15.332 0-26.66 8.04-35.645 19.954l9.18 7.064c6.51-9.18 14.941-15.528 26.27-15.528 13.802 0 21.842 9.603 21.842 22.429 0 8.431-3.841 15.918-13.021 28.19l-47.363 63.053v3.451h75.911v-11.296zM1837.81 998.5c-4.818 0-9.603.586-14.583 1.53l5.175-39.29h48.308v-11.296h-58.464l-8.04 61.524 2.116 2.115c6.315-2.311 14.16-3.841 22.396-3.841 17.089 0 33.756 6.901 33.756 28.19 0 17.416-12.663 29.135-29.525 29.135-12.825 0-22.623-4.818-28.938-13.607l-8.431 7.65c8.235 11.132 20.898 17.643 36.588 17.643 24.349 0 42.741-16.504 42.741-40.821 0-24.934-18.587-38.932-43.099-38.932M1941.3 1077.86c25.684 0 42.546-13.802 42.546-36.621 0-16.862-11.491-29.492-24.154-32.747 10.742-4.037 20.15-13.444 20.15-28.19 0-19.564-15.169-32.78-38.346-32.78s-38.9 13.216-38.9 32.78c0 15.527 9.375 24.349 20.898 28.19-14.583 3.613-24.739 15.885-24.739 32.552 0 22.623 16.862 36.816 42.545 36.816m.196-75.13c-15.723 0-26.465-8.236-26.465-22.233 0-12.663 10.937-21.485 26.465-21.485 15.332 0 25.879 8.822 25.879 21.485 0 13.411-10.352 22.233-25.879 22.233m-.196 63.444c-17.057 0-29.882-9.766-29.882-25.13 0-15.886 12.076-26.628 29.492-26.628 18.424 0 30.11 10.156 30.11 26.628 0 15.722-12.467 25.13-29.72 25.13" style="fill-rule:nonzero"/><path d="M2436.98 716.667V625q0-4.932.977-9.766a52 52 0 0 1 2.832-9.375c1.269-3.027 2.799-5.924 4.622-8.626a49.8 49.8 0 0 1 6.218-7.585c2.343-2.311 4.85-4.394 7.584-6.217a50 50 0 0 1 8.659-4.622 47 47 0 0 1 9.375-2.832 49 49 0 0 1 9.733-.977h870.573q4.932 0 9.766.977a47 47 0 0 1 9.375 2.832c3.027 1.269 5.924 2.799 8.626 4.622a50 50 0 0 1 7.585 6.217c2.343 2.312 4.394 4.851 6.217 7.585a47.7 47.7 0 0 1 4.622 8.626 49.5 49.5 0 0 1 2.865 9.375c.619 3.223.944 6.478.944 9.766v91.667c0 3.287-.325 6.543-.944 9.765a49.5 49.5 0 0 1-2.865 9.375c-1.236 3.028-2.799 5.892-4.622 8.627-1.823 2.734-3.874 5.273-6.217 7.584a50 50 0 0 1-7.585 6.218c-2.702 1.823-5.599 3.353-8.626 4.622a47 47 0 0 1-9.375 2.832 49.2 49.2 0 0 1-9.766.977H2486.98c-3.288 0-6.51-.326-9.733-.977a47 47 0 0 1-9.375-2.832 50 50 0 0 1-8.659-4.622c-2.734-1.823-5.241-3.907-7.584-6.218a49.7 49.7 0 0 1-6.218-7.584 51 51 0 0 1-4.622-8.627 52 52 0 0 1-2.832-9.375 49 49 0 0 1-.977-9.765Z" style="fill:#fafafa;fill-rule:nonzero;stroke:#9d9d9d;stroke-width:4.17px"/><path d="M2613.33 704.166h13.77v-28.939h16.471c17.48 0 26.823-11.881 26.823-24.837 0-13.086-9.57-25.553-26.595-25.553h-30.469zm13.77-40.722v-26.595h15.299c8.757 0 14.128 5.957 14.128 13.411 0 6.771-4.46 13.184-14.486 13.184zM2701.88 650.748c-15.722 0-26.823 12.012-26.823 27.279 0 16.341 11.426 27.669 28.125 27.669 8.041 0 14.356-2.474 20.28-7.259l-5.338-8.138c-3.646 3.125-7.845 4.883-13.77 4.883-8.398 0-14.941-4.427-16.569-12.826h37.337c.228-2.116.456-4.199.456-6.087 0-15.625-8.984-25.521-23.698-25.521m-.228 10.384c6.641 0 11.556 4.297 11.914 12.598h-25.683c1.4-8.073 6.901-12.598 13.769-12.598M2763.02 650.976c-6.77 0-12.011 3.027-15.039 8.854l-2.441-7.682h-8.659v52.018h12.728v-28.353c0-8.268 5.013-13.053 12.37-13.053 2.669 0 4.785.456 6.771 1.172l3.255-10.742c-2.442-1.4-5.371-2.214-8.985-2.214M2841.41 705.696c13.542 0 24.284-5.371 31.966-14.844l-8.626-8.854c-5.241 6.869-12.956 11.198-23.112 11.198-16.081 0-26.921-12.597-26.921-28.808 0-16.7 11.198-28.581 27.409-28.581 9.668 0 16.667 3.255 22.396 8.496l7.129-9.31c-8.887-8.073-17.871-11.686-29.883-11.686-24.023 0-41.178 17.285-41.178 41.081 0 22.851 16.341 41.308 40.82 41.308M2883.41 704.166h12.858l-.13-83.984h-12.728zM2931.95 651.204c-6.998 0-14.095 1.855-21.81 5.371l3.614 9.668c5.371-2.572 11.1-4.199 16.211-4.199 6.673 0 10.644 2.702 10.644 8.04v2.344c-1.888-.098-3.874-.228-6.543-.228-15.885 0-26.367 6.543-26.367 18.425 0 9.212 6.771 14.583 16.341 14.583 8.496 0 14.681-3.385 18.522-8.854l2.344 7.812h8.529v-33.593c0-12.598-8.171-19.369-21.485-19.369m-4.199 44.434c-4.655 0-7.454-2.214-7.454-6.283 0-5.729 5.371-8.984 14.583-8.984 2.344 0 3.971.097 6.055.358-.228 9.44-5.697 14.909-13.184 14.909M2974.06 641.276c4.786 0 7.943-3.256 7.943-7.455 0-4.329-3.027-7.715-7.943-7.715-4.882 0-7.91 3.386-7.91 7.585s3.028 7.585 7.91 7.585m-6.412 62.89h12.728v-52.018h-12.728zM3055.61 650.748c-7.813 0-13.509 3.614-16.895 9.213-2.702-5.73-8.17-9.213-15.657-9.213-7.325 0-13.054 3.483-16.569 9.668l-2.54-8.268h-8.658v52.018h12.728v-27.897c0-6.999 3.613-14.095 11.555-14.095 5.697 0 8.497 4.427 8.497 9.798v32.194h12.63v-27.897c0-6.999 3.613-14.095 11.653-14.095 5.144 0 8.399 3.613 8.399 9.896v32.096h12.728V670.67c0-12.239-6.413-19.922-17.871-19.922M3108.46 651.204c-6.999 0-14.095 1.855-21.81 5.371l3.613 9.668c5.371-2.572 11.1-4.199 16.211-4.199 6.673 0 10.645 2.702 10.645 8.04v2.344c-1.888-.098-3.874-.228-6.543-.228-15.886 0-26.367 6.543-26.367 18.425 0 9.212 6.77 14.583 16.341 14.583 8.496 0 14.681-3.385 18.522-8.854l2.344 7.812h8.528v-33.593c0-12.598-8.17-19.369-21.484-19.369m-4.199 44.434c-4.655 0-7.455-2.214-7.455-6.283 0-5.729 5.371-8.984 14.584-8.984 2.343 0 3.971.097 6.054.358-.228 9.44-5.696 14.909-13.183 14.909M3172.87 650.748c-8.528 0-14.127 4.297-17.513 9.538l-2.539-8.138h-8.659v52.018h12.728v-28.58c0-7.715 4.785-13.412 12.728-13.412 6.283 0 8.854 4.069 8.854 10.612v31.38h12.728v-32.552c0-13.314-6.413-20.866-18.327-20.866M3224.2 705.338c5.957 0 10.97-1.758 15.756-4.785l-4.069-9.57c-2.93 1.855-5.73 2.669-8.757 2.669-3.385 0-5.729-1.497-5.729-6.641v-24.023h16.113v-10.84h-16.113v-16.699h-12.37l-.325 16.699h-9.213v10.124l9.213.716v25.325c0 11.654 6.185 17.025 15.494 17.025M2391.39 1014.52v-46.582c8.821 1.139 16.699 4.427 24.153 9.961l5.762-10.157c-9.212-6.51-19.564-10.351-29.915-11.295V939.78h-12.63v16.472c-19.369 1.92-33.757 13.411-33.757 31.608 0 18.977 16.504 27.604 33.757 34.7v51.758c-11.133-1.335-22.233-5.957-31.055-13.021l-7.096 8.985c10.742 8.821 24.349 14.192 38.151 15.527v16.667h12.63v-16.472c21.289-1.725 35.84-15.332 35.84-33.724 0-20.898-16.862-30.273-35.84-37.76m-33.919-27.604c0-12.273 9.765-18.002 21.289-19.369v41.797c-11.882-5.176-21.289-11.491-21.289-22.428m33.919 87.793v-46.778c13.053 5.567 23.405 11.882 23.405 24.903 0 11.914-9.603 20.149-23.405 21.875M2475.92 1073.17c-3.255 0-8.431 0-12.63.162 2.474-3.059 5.534-7.063 7.845-10.156l27.995-36.784c12.826-17.252 16.862-25.488 16.862-37.369 0-18.978-13.249-33.171-34.115-33.171-15.332 0-26.66 8.04-35.644 19.954l9.18 7.064c6.51-9.18 14.941-15.527 26.269-15.527 13.802 0 21.843 9.603 21.843 22.428 0 8.431-3.842 15.918-13.021 28.19l-47.364 63.054v3.45h75.912v-11.295zM2568.69 955.857l-38.51 25.098 5.534 9.798 19.564-12.272c1.921-1.335 3.255-2.116 4.785-3.06-.39 2.278-.39 4.59-.39 6.901v102.148h12.272V955.857zM2646.88 1086.39c27.799 0 44.661-25.293 44.661-65.365 0-39.876-16.862-65.169-44.661-65.169-27.767 0-44.466 25.293-44.466 65.169 0 40.072 16.699 65.365 44.466 65.365m0-11.686c-19.922 0-31.804-20.899-31.804-53.679s11.882-53.678 31.804-53.678c20.149 0 32.031 20.898 32.031 53.678s-11.882 53.679-32.031 53.679M2727.21 1068.55c-4.427 0-9.017 2.897-9.017 9.017 0 5.371 3.841 8.822 9.017 8.822.553 0 1.334 0 1.92-.196-.781 6.706-4.232 11.687-9.993 17.839l3.841 3.613c8.431-7.649 13.411-16.862 13.411-27.409 0-8.431-4.199-11.686-9.179-11.686M2804.63 1086.19c25.683 0 42.545-13.802 42.545-36.621 0-16.862-11.49-29.492-24.153-32.747 10.742-4.036 20.149-13.444 20.149-28.19 0-19.564-15.169-32.78-38.346-32.78s-38.9 13.216-38.9 32.78c0 15.527 9.375 24.349 20.899 28.19-14.584 3.613-24.74 15.885-24.74 32.552 0 22.624 16.862 36.816 42.546 36.816m.195-75.13c-15.723 0-26.465-8.235-26.465-22.233 0-12.663 10.938-21.484 26.465-21.484 15.332 0 25.879 8.821 25.879 21.484 0 13.412-10.352 22.233-25.879 22.233m-.195 63.444c-17.057 0-29.883-9.765-29.883-25.13 0-15.885 12.077-26.628 29.492-26.628 18.425 0 30.111 10.157 30.111 26.628 0 15.723-12.468 25.13-29.72 25.13M2913.29 1086.39c27.8 0 44.662-25.293 44.662-65.365 0-39.876-16.862-65.169-44.662-65.169-27.767 0-44.466 25.293-44.466 65.169 0 40.072 16.699 65.365 44.466 65.365m0-11.686c-19.921 0-31.803-20.899-31.803-53.679s11.882-53.678 31.803-53.678c20.15 0 32.032 20.898 32.032 53.678s-11.882 53.679-32.032 53.679M3006.45 1073.17c-3.255 0-8.431 0-12.63.162 2.473-3.059 5.533-7.063 7.845-10.156l27.994-36.784c12.826-17.252 16.862-25.488 16.862-37.369 0-18.978-13.248-33.171-34.114-33.171-15.332 0-26.66 8.04-35.645 19.954l9.18 7.064c6.51-9.18 14.941-15.527 26.269-15.527 13.803 0 21.843 9.603 21.843 22.428 0 8.431-3.841 15.918-13.021 28.19l-47.363 63.054v3.45h75.911v-11.295z" style="fill-rule:nonzero"/><path d="m3089.78 960.807 6.673 35.189c.065.619.39 1.107.683 1.302.358.228.912.391 1.595.195l11.524-2.473c4.199-1.01 7.552-.326 10.286 1.464 2.67 1.758 4.493 4.525 5.404 8.757l9.408 39.551 10.644-2.149c4.655-.911 7.878 3.483 6.413 8.106l-10.612 32.259c-1.4 4.297-6.999 5.338-10.091 1.92l-23.242-25.455c-3.288-3.646-2.279-8.887 2.441-9.831l10.254-2.051-8.399-36.653c-.13-.586-.455-1.042-.813-1.303-.326-.227-.912-.325-1.563-.195l-11.556 2.539c-4.199 1.009-7.552.358-10.286-1.432-2.67-1.758-4.493-4.427-5.371-8.822l-8.887-36.686c-1.302-4.46.846-8.789 5.371-10.026 4.59-1.27 8.789 1.335 10.124 5.794M3168.41 999.088h35.124v11.751h-35.124zM3236.53 955.403l-24.479 15.528 5.469 10.026 10.514-6.088c1.042-.586 1.855-1.041 2.669-1.627-.098 1.888-.228 3.613-.228 5.371v54.72h13.542v-77.93zM3282.28 1034.73c17.285 0 28.711-9.668 28.711-22.982 0-8.171-4.33-16.113-14.356-19.499 6.999-3.613 10.84-10.482 10.84-17.252 0-11.426-9.668-20.183-24.023-20.183-10.026 0-17.839 3.744-24.838 11.556l7.552 7.455c4.33-4.297 9.245-7.227 15.886-7.227 7.357 0 12.012 4.33 12.012 10.026 0 5.501-4.33 10.97-13.868 10.97h-8.398v11.198h9.896c7.487 0 15.625 2.702 15.625 11.686 0 7.097-6.055 12.24-15.723 12.24-7.129 0-12.5-3.027-17.057-7.813l-7.813 8.171c6.413 7.227 15.398 11.654 25.554 11.654M3331.53 1018.52c-3.971 0-8.17 2.571-8.17 8.17 0 5.241 3.841 8.041 8.17 8.041h.912c-.912 4.915-3.711 8.626-7.813 12.369l3.288 3.386c7.585-5.599 12.012-13.314 12.012-21.94 0-6.771-3.613-10.026-8.399-10.026M3374.92 984.668c-1.986 0-3.841.13-5.957.358l2.213-17.025h27.67v-11.784h-38.64l-4.524 39.421 2.083 1.399c3.516-1.269 7.715-2.083 12.598-2.083 9.57 0 17.382 3.841 17.382 13.77 0 8.398-5.957 13.769-14.941 13.769-6.868 0-12.37-2.799-15.983-6.999l-6.869 9.44c5.827 6.283 13.77 9.929 23.438 9.929 16.569 0 28.125-10.514 28.125-25.781 0-15.43-10.97-24.414-26.595-24.414M3438.16 1034.6c16.797 0 27.506-8.626 27.506-22.623 0-9.212-6.054-16.797-13.867-19.466 6.283-2.702 11.426-8.399 11.426-16.797 0-12.37-9.928-20.899-24.968-20.899-15.169 0-25.325 8.529-25.325 20.899 0 8.626 5.013 14.453 11.784 16.797-8.724 2.669-14.225 10.254-14.225 19.368 0 13.997 10.742 22.721 27.669 22.721m.097-47.591c-7.584 0-12.239-4.199-12.239-10.742 0-6.185 5.013-10.254 12.239-10.254 7.129 0 12.012 4.069 12.012 10.254 0 6.315-4.655 10.742-12.012 10.742m-.097 35.808c-7.715 0-14.03-4.297-14.03-12.012 0-7.357 5.501-12.598 13.769-12.598 8.757 0 14.128 5.013 14.128 12.598 0 7.812-6.055 12.012-13.867 12.012M3496.93 955.403l-24.479 15.528 5.469 10.026 10.514-6.088c1.042-.586 1.856-1.041 2.669-1.627-.097 1.888-.227 3.613-.227 5.371v54.72h13.541v-77.93zM3326.69 1107.49v-18.327l14.876-30.078h-13.477l-7.356 17.708h-.489l-7.324-17.708h-13.965l14.877 30.469v17.936zM3379.36 1086.91v-4.622c0-12.5-7.292-20.769-20.638-20.769-13.281 0-20.671 8.171-20.671 20.769v4.622c0 12.468 7.39 20.573 20.671 20.573 13.314 0 20.638-8.105 20.638-20.573m-13.151-4.753v4.818c0 6.738-2.897 10.254-7.487 10.254s-7.52-3.516-7.52-10.254v-4.818c0-6.738 2.93-10.384 7.52-10.384s7.487 3.646 7.487 10.384M3403.58 1107.49v-18.327l14.909-30.078h-13.51l-7.356 17.708h-.489l-7.324-17.708h-13.965l14.909 30.469v17.936z" style="fill:#16b098;fill-rule:nonzero"/><path d="M3562.66 716.667V625c0-3.288.325-6.543.944-9.766a49.6 49.6 0 0 1 2.864-9.375 47.8 47.8 0 0 1 4.623-8.626c1.823-2.734 3.873-5.273 6.217-7.585a51 51 0 0 1 7.552-6.217 51.4 51.4 0 0 1 8.659-4.622 47 47 0 0 1 9.375-2.832 49.2 49.2 0 0 1 9.766-.977h983.333c3.288 0 6.543.326 9.733.977a48 48 0 0 1 9.408 2.832 51 51 0 0 1 8.626 4.622 50 50 0 0 1 7.585 6.217 50 50 0 0 1 6.217 7.585c1.823 2.702 3.353 5.599 4.622 8.626 1.237 3.028 2.214 6.153 2.833 9.375q.976 4.834.976 9.766v91.667q0 4.931-.976 9.765c-.619 3.223-1.596 6.348-2.833 9.375a51 51 0 0 1-4.622 8.627 49.8 49.8 0 0 1-13.802 13.802 51 51 0 0 1-8.626 4.622 48 48 0 0 1-9.408 2.832 48.6 48.6 0 0 1-9.733.977H3612.66q-4.932 0-9.766-.977a47 47 0 0 1-9.375-2.832 51.4 51.4 0 0 1-8.659-4.622 51 51 0 0 1-7.552-6.218c-2.344-2.311-4.394-4.85-6.217-7.584s-3.386-5.599-4.623-8.627a49.5 49.5 0 0 1-2.864-9.375 51.7 51.7 0 0 1-.944-9.765Z" style="fill:#fafafa;fill-rule:nonzero;stroke:#9d9d9d;stroke-width:4.17px"/><path d="m3791.86 670.833 25.684-25.716-25.684-25.683-51.4 51.399 51.4 51.4 51.4-51.4-12.858-12.858-38.542 38.542-25.716-25.684 12.858-12.858zm96.387 18.653 20.703-62.045h17.187l-30.566 83.822h-14.746l-30.534-83.822h17.025zm77.832-64.193c10.709 0 19.01 2.93 24.935 8.561 5.989 5.729 9.277 12.24 9.928 19.499l.26 2.669h-15.006l-.456-1.888c-1.041-4.557-3.125-8.138-6.282-10.807-3.125-2.637-7.585-3.874-13.282-3.874-7.031 0-12.695 2.442-17.024 7.357-4.46 5.111-6.576 12.988-6.576 23.535 0 8.659 1.953 15.69 5.99 21.061 3.873 5.143 9.7 7.65 17.383 7.65 6.998 0 12.369-2.669 16.015-8.04 2.051-2.963 3.516-6.869 4.525-11.687l.391-1.953h15.136l-.325 2.702c-.977 8.854-4.265 16.309-9.864 22.298-6.738 7.259-15.755 10.938-27.148 10.938-9.831 0-18.066-2.995-24.74-8.952-8.658-7.747-13.118-19.661-13.118-35.84 0-12.272 3.288-22.331 9.798-30.208 7.129-8.659 16.927-13.021 29.46-13.021m61.881 2.148v83.822h-15.657v-83.822zM4233.73 604.558l.716-4.004h-27.441l-8.008 45.345h4.329l3.549-20.052h20.312l.684-4.004h-20.28l3.06-17.285zM4262.61 616.44l-1.823 5.208c-2.051-3.678-5.925-5.827-10.808-5.827-8.854 0-15.332 6.283-16.861 14.811-.196 1.14-.326 2.214-.326 3.256 0 7.226 4.655 12.662 12.598 12.662 4.817 0 9.017-1.79 12.272-5.306l-.326 4.655h3.19l5.209-29.459zm-3.418 14.843c-1.14 6.153-5.99 11.491-12.989 11.491-5.794 0-9.277-3.743-9.277-9.212 0-.879.065-1.79.261-2.734 1.269-6.478 6.282-11.198 12.727-11.198 6.413 0 9.538 4.004 9.538 9.082 0 .846-.065 1.725-.26 2.571M4280.66 646.225h1.27l19.271-29.655v-.13h-4.493l-12.662 19.661a24 24 0 0 0-1.791 3.125c-.195-1.139-.325-1.92-.651-3.125l-5.696-19.661h-4.135v.13zM4314.67 646.55c9.44 0 16.113-6.315 17.643-14.974.195-1.074.261-2.083.261-3.092 0-7.389-5.111-12.728-13.054-12.728-9.472 0-16.146 6.543-17.676 15.072-.195 1.009-.26 2.018-.26 2.995 0 7.356 5.208 12.727 13.086 12.727m.26-3.776c-5.729 0-9.212-3.743-9.212-9.147 0-.781.065-1.595.195-2.474 1.14-6.38 6.283-11.588 13.347-11.588 5.794 0 9.277 3.808 9.277 9.277 0 .716-.098 1.53-.228 2.311-1.204 6.804-6.38 11.621-13.379 11.621M4355.58 615.821c-3.776 0-6.869 1.953-9.05 5.013l-.065-4.394h-3.06l-5.208 29.459h4.069l2.734-15.592c1.27-7.194 5.534-10.612 10.254-10.612 1.4 0 2.474.195 3.679.749l1.595-3.549c-1.4-.651-2.995-1.074-4.948-1.074M4390.2 616.44l-1.823 5.208c-2.051-3.678-5.925-5.827-10.808-5.827-8.854 0-15.332 6.283-16.862 14.811-.195 1.14-.325 2.214-.325 3.256 0 7.226 4.655 12.662 12.598 12.662 4.817 0 9.017-1.79 12.272-5.306l-.326 4.655h3.19l5.209-29.459zm-3.418 14.843c-1.14 6.153-5.99 11.491-12.989 11.491-5.794 0-9.277-3.743-9.277-9.212 0-.879.065-1.79.26-2.734 1.27-6.478 6.283-11.198 12.728-11.198 6.413 0 9.538 4.004 9.538 9.082 0 .846-.065 1.725-.26 2.571M4418.94 615.821c-4.557 0-9.017 1.758-12.142 5.274.391-1.4.716-2.8.912-4.2l3.353-18.782h-4.069l-8.399 47.786h3.125l1.53-5.273c1.953 3.743 6.087 5.924 11.003 5.924 9.472 0 15.397-6.38 16.927-14.843.228-1.205.358-2.409.358-3.549 0-7.128-4.557-12.337-12.598-12.337m8.171 15.625c-1.237 6.641-6.12 11.328-12.793 11.328-6.185 0-9.473-4.199-9.473-9.472 0-.814.065-1.53.228-2.344 1.107-6.185 6.12-11.328 13.119-11.328 5.859 0 9.212 3.613 9.212 9.017 0 .846-.065 1.79-.293 2.799M4437.06 645.899h4.069l8.464-47.786h-4.069zM4478.71 623.764c0-4.85-3.581-8.008-9.44-8.008-9.961 0-17.416 8.333-17.416 18.36 0 6.998 5.209 12.434 12.793 12.434 4.069 0 7.618-1.041 11.198-3.385l-1.595-3.19c-3.19 2.116-5.924 2.799-9.244 2.799-4.948 0-8.627-3.157-9.017-8.138.878.065 1.92.131 3.483.131 9.57 0 19.238-2.735 19.238-11.003m-22.526 7.259c1.139-5.99 6.217-11.458 13.086-11.458 3.32 0 5.534 1.53 5.534 4.394 0 5.729-8.269 7.194-15.397 7.194-1.498 0-2.409-.065-3.223-.13M4182.55 729.98c10.742 0 17.871-5.338 19.662-15.56l5.338-30.599h-4.329l-5.274 30.143c-1.334 7.52-6.803 12.012-15.332 12.012-6.445 0-10.872-3.092-10.872-9.082 0-.781.065-1.595.228-2.474l5.371-30.599h-4.395l-5.241 30.274c-.228 1.074-.293 2.018-.293 2.994 0 8.138 6.478 12.891 15.137 12.891M4229.76 699.088c-4.948 0-8.789 2.669-11.133 5.827l-.065-5.208h-2.994l-5.209 29.459h4.069l2.474-14.323c1.172-6.803 5.664-11.946 11.784-11.946 4.069 0 5.859 2.148 5.859 5.599 0 .748-.065 1.465-.195 2.278l-3.255 18.392h4.069l3.19-18.001c.195-1.204.326-2.279.326-3.255 0-5.729-3.125-8.822-8.92-8.822M4265.21 684.375c1.888 0 3.353.455 5.078 1.725l2.149-2.865c-2.474-1.79-4.427-2.669-7.422-2.669-6.608 0-10.059 4.395-11.133 10.742l-1.465 8.399h-6.054l-.684 3.58h6.087l-4.622 25.879h4.069l4.557-25.879h9.863l.586-3.58h-9.798l1.4-8.073c.749-4.265 2.995-7.259 7.389-7.259M4296.1 699.707l-1.823 5.208c-2.05-3.678-5.924-5.827-10.807-5.827-8.854 0-15.332 6.283-16.862 14.811-.195 1.14-.325 2.214-.325 3.256 0 7.226 4.655 12.662 12.597 12.662 4.818 0 9.017-1.79 12.272-5.306l-.325 4.655h3.19l5.208-29.459zm-3.418 14.843c-1.139 6.153-5.989 11.491-12.988 11.491-5.794 0-9.277-3.743-9.277-9.212 0-.879.065-1.79.26-2.734 1.27-6.478 6.283-11.198 12.728-11.198 6.413 0 9.538 4.004 9.538 9.082 0 .846-.065 1.725-.261 2.571M4314.16 729.492h1.269l19.271-29.655v-.13h-4.492l-12.663 19.661a24.4 24.4 0 0 0-1.79 3.125c-.195-1.139-.326-1.92-.651-3.125l-5.697-19.661h-4.134v.13zM4348.17 729.817c9.44 0 16.113-6.315 17.643-14.974.195-1.074.26-2.083.26-3.092 0-7.389-5.111-12.728-13.053-12.728-9.473 0-16.146 6.543-17.676 15.072-.195 1.009-.26 2.018-.26 2.994 0 7.357 5.208 12.728 13.086 12.728m.26-3.776c-5.729 0-9.212-3.743-9.212-9.147 0-.781.065-1.595.195-2.474 1.139-6.38 6.283-11.588 13.346-11.588 5.795 0 9.278 3.808 9.278 9.277 0 .716-.098 1.53-.228 2.311-1.205 6.804-6.38 11.621-13.379 11.621M4389.08 699.088c-3.776 0-6.868 1.953-9.049 5.013l-.065-4.394h-3.06l-5.209 29.459h4.069l2.735-15.592c1.269-7.194 5.534-10.612 10.254-10.612 1.399 0 2.474.195 3.678.749l1.595-3.549c-1.4-.651-2.995-1.074-4.948-1.074M4423.7 699.707l-1.823 5.208c-2.05-3.678-5.924-5.827-10.807-5.827-8.854 0-15.332 6.283-16.862 14.811-.195 1.14-.325 2.214-.325 3.256 0 7.226 4.655 12.662 12.597 12.662 4.818 0 9.017-1.79 12.272-5.306l-.325 4.655h3.19l5.208-29.459zm-3.418 14.843c-1.139 6.153-5.989 11.491-12.988 11.491-5.794 0-9.277-3.743-9.277-9.212 0-.879.065-1.79.26-2.734 1.27-6.478 6.283-11.198 12.728-11.198 6.413 0 9.538 4.004 9.538 9.082 0 .846-.065 1.725-.261 2.571M4452.44 699.088c-4.557 0-9.017 1.758-12.142 5.274.391-1.4.716-2.8.911-4.2l3.353-18.782h-4.069l-8.398 47.786h3.125l1.53-5.273c1.953 3.743 6.087 5.924 11.002 5.924 9.473 0 15.397-6.38 16.927-14.843.228-1.205.359-2.409.359-3.549 0-7.129-4.558-12.337-12.598-12.337m8.17 15.625c-1.237 6.641-6.119 11.328-12.793 11.328-6.184 0-9.472-4.199-9.472-9.472 0-.814.065-1.53.228-2.344 1.106-6.185 6.119-11.328 13.118-11.328 5.86 0 9.212 3.613 9.212 9.017 0 .846-.065 1.79-.293 2.799M4470.56 729.166h4.069l8.464-47.786h-4.069zM4512.21 707.031c0-4.85-3.581-8.008-9.441-8.008-9.96 0-17.415 8.333-17.415 18.359 0 6.999 5.208 12.435 12.793 12.435 4.069 0 7.617-1.041 11.198-3.385l-1.595-3.19c-3.19 2.116-5.925 2.799-9.245 2.799-4.948 0-8.626-3.157-9.017-8.138.879.065 1.921.13 3.483.13 9.571 0 19.239-2.734 19.239-11.002m-22.526 7.259c1.139-5.99 6.217-11.458 13.085-11.458 3.321 0 5.534 1.53 5.534 4.394 0 5.729-8.268 7.194-15.397 7.194a37 37 0 0 1-3.222-.13" style="fill-rule:nonzero"/><path d="m3828.23 945.672-41.992 26.595 9.407 17.188 18.001-10.384c1.791-1.01 3.191-1.791 4.59-2.8-.195 3.19-.39 6.185-.39 9.18v93.815h23.209V945.672zM3895.04 1002.28c20.41 0 31.185-15.202 31.185-30.827 0-15.397-10.775-30.599-31.185-30.599-20.605 0-31.217 15.202-31.217 30.599 0 15.625 10.612 30.827 31.217 30.827m-8.398 76.986h19.01l78.19-136.003h-18.815zm8.398-92.188c-10.417 0-13.997-8.626-13.997-15.625 0-6.998 3.58-15.592 13.997-15.592 10.384 0 13.998 8.594 13.998 15.592s-3.614 15.625-13.998 15.625m79.395 94.597c20.605 0 31.217-15.202 31.217-30.599 0-15.625-10.612-30.795-31.217-30.795-20.606 0-30.99 15.17-30.99 30.795 0 15.397 10.384 30.599 30.99 30.599m0-15.007c-10.384 0-13.998-8.594-13.998-15.592s3.614-15.625 13.998-15.625c10.612 0 13.997 8.626 13.997 15.625 0 6.998-3.385 15.592-13.997 15.592" style="fill:#ab010c;fill-rule:nonzero"/><path d="m4180.35 1002.26 7.161-6.055c-8.561-10.84-13.672-27.734-13.672-45.833s5.111-34.994 13.672-45.834l-7.161-6.054c-10.287 11.914-17.22 31.087-17.22 51.888s6.933 39.974 17.22 51.888M4215.88 992.295h9.115v-9.961c12.337-1.302 20.475-9.212 20.475-20.475 0-12.793-10.189-17.871-21.127-22.331-8.463-3.223-15.397-6.283-15.397-12.11 0-6.184 5.957-8.365 11.621-8.365 6.055 0 11.784 1.953 17.221 5.859l5.175-9.635c-5.631-3.907-11.686-6.185-17.968-6.934v-9.863h-9.115v9.863c-11.263 1.4-19.596 8.138-19.596 19.596 0 11.068 9.309 16.569 20.149 21.029 8.562 3.45 16.374 6.51 16.374 13.867 0 4.981-4.883 8.757-12.37 8.757-7.584 0-14.844-2.702-20.573-7.227l-6.282 9.18c6.185 4.883 13.639 8.04 22.298 8.789zM4276.57 908.441c-14.323 0-23.861 9.765-23.861 23.73 0 14.518 9.994 22.201 21.68 22.201 5.729 0 10.742-1.4 14.518-5.079-2.376 12.891-11.914 21.55-28.711 22.754l1.53 10.612c28.06-2.181 39.974-20.149 39.974-45.28 0-15.82-7.714-28.938-25.13-28.938m.326 35.644c-6.511 0-11.914-4.004-11.914-12.142 0-7.584 5.175-12.337 11.914-12.337 7.129 0 12.239 4.883 12.239 12.142 0 7.91-4.98 12.337-12.239 12.337M4321.19 982.659c3.776 0 7.682-2.376 7.682-7.487 0-5.175-3.906-7.584-7.682-7.584-3.809 0-7.682 2.409-7.682 7.584 0 5.111 3.873 7.487 7.682 7.487M4383.04 957.529v-48.535h-7.032l-38.574 52.214v6.608h33.919v13.541h11.687v-13.541h8.138v-10.287zm-11.361 0h-12.044c-2.474 0-4.851 0-7.357.098 1.4-1.725 2.702-3.451 4.134-5.306l11.035-15.169c1.53-1.954 2.93-4.004 4.557-6.609-.325 3.256-.325 5.762-.325 8.985zM4470.81 907.139h-3.809l-22.331 34.016c-1.595 2.507-3.222 5.111-4.752 7.715a204 204 0 0 0-4.753-7.715l-22.233-34.016h-3.776l-10.84 74.218h12.565l5.632-39.746c.325-2.604.781-4.98.879-7.812a76 76 0 0 0 4.557 7.161l16.667 25.554h2.604l16.797-25.554c1.497-2.278 3.027-4.557 4.329-6.933.228 2.474.554 4.85.879 7.454l5.827 39.876h12.565zM4494.95 898.48l-7.031 6.054c8.431 10.84 13.542 27.735 13.542 45.834s-5.111 34.993-13.542 45.833l7.031 6.055c10.287-11.914 17.35-31.088 17.35-51.888 0-20.801-7.063-39.974-17.35-51.888" style="fill:#006008;fill-rule:nonzero"/><path d="M4210.59 1127.6h9.114v-9.961c12.337-1.302 20.475-9.212 20.475-20.475 0-12.793-10.188-17.872-21.126-22.331-8.463-3.223-15.397-6.283-15.397-12.11 0-6.184 5.957-8.365 11.621-8.365 6.055 0 11.784 1.953 17.22 5.859l5.176-9.635c-5.632-3.907-11.686-6.185-17.969-6.934v-9.863h-9.114v9.863c-11.263 1.4-19.597 8.138-19.597 19.596 0 11.068 9.31 16.569 20.15 21.029 8.561 3.45 16.374 6.51 16.374 13.867 0 4.981-4.883 8.757-12.37 8.757-7.585 0-14.844-2.702-20.573-7.227l-6.283 9.18c6.185 4.883 13.64 8.04 22.299 8.789zM4271.29 1043.75c-14.323 0-23.861 9.765-23.861 23.73 0 14.518 9.994 22.201 21.68 22.201 5.729 0 10.742-1.4 14.518-5.079-2.376 12.891-11.914 21.55-28.711 22.754l1.53 10.612c28.06-2.181 39.974-20.149 39.974-45.28 0-15.82-7.715-28.938-25.13-28.938m.325 35.644c-6.51 0-11.914-4.004-11.914-12.142 0-7.584 5.176-12.337 11.914-12.337 7.129 0 12.24 4.883 12.24 12.142 0 7.91-4.981 12.337-12.24 12.337M4315.91 1117.97c3.777 0 7.683-2.376 7.683-7.487 0-5.175-3.906-7.584-7.683-7.584-3.808 0-7.682 2.409-7.682 7.584 0 5.111 3.874 7.487 7.682 7.487M4362.06 1117.97c16.472 0 26.432-14.29 26.432-37.174 0-22.852-9.96-37.044-26.432-37.044s-26.432 14.192-26.432 37.044c0 22.884 9.961 37.174 26.432 37.174m0-11.165c-8.984 0-13.672-10.384-13.672-26.009 0-15.593 4.688-25.977 13.672-25.977s13.639 10.384 13.639 25.977c0 15.625-4.654 26.009-13.639 26.009M4470.84 1042.45h-3.809l-22.331 34.016c-1.595 2.507-3.222 5.111-4.752 7.715a204 204 0 0 0-4.753-7.715l-22.233-34.016h-3.776l-10.84 74.218h12.565l5.632-39.746c.325-2.604.781-4.98.879-7.812a76 76 0 0 0 4.557 7.161l16.667 25.553h2.604l16.797-25.553c1.497-2.279 3.027-4.557 4.329-6.933.228 2.473.553 4.85.879 7.454l5.827 39.876h12.565z" style="fill:#ab010c;fill-rule:nonzero"/><path d="M4852.86 716.667V625q0-4.932.976-9.766a52 52 0 0 1 2.832-9.375c1.27-3.027 2.8-5.924 4.623-8.626a49.8 49.8 0 0 1 6.217-7.585c2.344-2.311 4.85-4.394 7.585-6.217a51.3 51.3 0 0 1 8.659-4.622 47 47 0 0 1 9.375-2.832 49 49 0 0 1 9.733-.977h433.333q4.932 0 9.766.977a47 47 0 0 1 9.375 2.832 51.4 51.4 0 0 1 8.658 4.622c2.735 1.823 5.241 3.906 7.585 6.217a49.8 49.8 0 0 1 6.217 7.585c1.823 2.702 3.353 5.599 4.623 8.626a52 52 0 0 1 2.832 9.375c.651 3.223.944 6.478.944 9.766v91.667c0 3.287-.293 6.543-.944 9.765a52 52 0 0 1-2.832 9.375 51 51 0 0 1-4.623 8.627 49.7 49.7 0 0 1-6.217 7.584c-2.344 2.311-4.85 4.395-7.585 6.218a51.4 51.4 0 0 1-8.658 4.622 47 47 0 0 1-9.375 2.832 49.2 49.2 0 0 1-9.766.977H4902.86c-3.256 0-6.511-.326-9.733-.977a47 47 0 0 1-9.375-2.832 51.3 51.3 0 0 1-8.659-4.622c-2.735-1.823-5.241-3.907-7.585-6.218a49.7 49.7 0 0 1-6.217-7.584 51 51 0 0 1-4.623-8.627 52 52 0 0 1-2.832-9.375 49 49 0 0 1-.976-9.765Z" style="fill:#fafafa;fill-rule:nonzero;stroke:#9d9d9d;stroke-width:4.17px"/><path d="M5053.06 628.776h-17.285l13.314 86.458h12.141l24.708-55.436h.227l8.106 55.436h12.174l42.318-86.458h-17.318l-25.781 57.78h-.228l-8.203-58.887h-9.798l-26.172 58.887h-.228zM5161.39 681.836h8.236c17.318 0 28.483-8.757 31.315-26.758 3.027-19.206-7.422-26.302-25.195-26.302h-22.494l-13.379 84.766h16.537zm6.218-39.356h2.929c9.213 0 15.267 1.596 13.542 12.5-1.725 11.003-7.357 13.152-17.122 13.152h-3.386zM5238.28 677.799c11.654-1.92 19.336-12.695 21.029-23.502 2.864-18.099-7.552-25.521-24.317-25.521h-22.363l-13.379 84.766h16.504l5.404-34.18h.228l15.169 34.18h20.02zm-11.263-35.546h2.246c8.789 0 15.104 2.05 13.444 12.5-1.627 10.351-8.463 13.053-17.578 13.053h-2.116zM5321.91 635.97c-4.265-5.729-14.128-9.44-21.648-9.44-14.29 0-26.562 11.361-28.776 25.423-2.083 13.151 5.046 18.652 15.235 23.145 6.217 2.604 13.932 5.078 12.532 13.834-1.009 6.511-6.087 12.24-12.825 12.24-7.097 0-12.11-5.827-13.347-12.37l-12.337 10.482c4.297 9.765 11.784 16.536 23.503 16.536 17.285 0 29.785-12.044 32.454-29.036 4.492-28.451-30.078-22.461-27.799-36.751.846-5.534 6.543-9.571 11.849-9.571 5.501 0 9.114 2.702 11.588 6.966zM4909.93 658.691h39.29v21.582h-39.29zM4950.75 687.695h21.712v38.997h-21.712z" style="fill-rule:nonzero"/><path d="M4961.49 654.948c8.398.098 13.997-6.12 13.997-14.453 0-16.569-12.728-34.863-12.728-34.863s-14.322 17.936-14.908 33.561c-.424 11.556 5.826 15.69 13.639 15.755M4973.28 669.889c-.065-8.398 6.12-13.997 14.42-13.997 16.472 0 34.701 12.728 34.701 12.728s-17.871 14.323-33.431 14.909c-11.491.423-15.593-5.827-15.69-13.64"/><path d="m4898.42 955.857-38.509 25.098 5.534 9.798 19.564-12.272c1.92-1.335 3.255-2.116 4.785-3.06-.391 2.278-.391 4.59-.391 6.901v102.148h12.272V955.857zM4959.94 1073.17c-3.256 0-8.431 0-12.631.162 2.474-3.059 5.534-7.063 7.845-10.156l27.995-36.784c12.826-17.252 16.862-25.488 16.862-37.369 0-18.978-13.249-33.171-34.114-33.171-15.332 0-26.661 8.04-35.645 19.954l9.18 7.064c6.51-9.18 14.941-15.527 26.269-15.527 13.802 0 21.843 9.603 21.843 22.428 0 8.431-3.841 15.918-13.021 28.19l-47.363 63.054v3.45h75.911v-11.295zM5059.41 955.857c-23.763 0-39.843 17.253-39.843 40.82 0 26.27 18.196 39.486 38.509 39.486 11.491 0 22.038-3.451 29.329-12.63-3.646 30.468-21.484 49.056-54.622 51.725l1.53 11.133c48.307-4.785 66.113-36.035 66.113-81.641 0-27.246-13.216-48.893-41.016-48.893m.196 69.206c-15.137 0-27.409-9.603-27.409-28.386 0-17.61 11.686-29.134 27.409-29.134 17.252 0 28.19 12.858 28.19 28.939 0 18.978-12.663 28.581-28.19 28.581" style="fill-rule:nonzero"/><path d="m5144.66 960.807 6.674 35.189c.065.619.39 1.107.683 1.302.358.228.912.391 1.595.195l11.524-2.473c4.199-1.01 7.552-.326 10.286 1.464 2.669 1.758 4.492 4.525 5.404 8.757l9.407 39.551 10.645-2.149c4.655-.911 7.878 3.483 6.413 8.106l-10.612 32.259c-1.4 4.297-6.999 5.338-10.091 1.92l-23.243-25.455c-3.287-3.646-2.278-8.887 2.442-9.831l10.254-2.051-8.399-36.653c-.13-.586-.455-1.042-.814-1.303-.325-.227-.911-.325-1.562-.195l-11.556 2.539c-4.199 1.009-7.552.358-10.287-1.432-2.669-1.758-4.492-4.427-5.371-8.822l-8.886-36.686c-1.302-4.46.846-8.789 5.371-10.026 4.59-1.27 8.789 1.335 10.123 5.794M5223.29 999.088h35.124v11.751h-35.124zM5291.42 955.403l-24.479 15.528 5.468 10.026 10.515-6.088c1.041-.586 1.855-1.041 2.669-1.627-.098 1.888-.228 3.613-.228 5.371v54.72h13.542v-77.93zM5341.26 1034.6c16.797 0 27.507-8.626 27.507-22.623 0-9.212-6.055-16.797-13.867-19.466 6.282-2.702 11.425-8.399 11.425-16.797 0-12.37-9.928-20.899-24.967-20.899-15.169 0-25.326 8.529-25.326 20.899 0 8.626 5.013 14.453 11.784 16.797-8.724 2.669-14.225 10.254-14.225 19.368 0 13.997 10.742 22.721 27.669 22.721m.098-47.591c-7.585 0-12.24-4.199-12.24-10.742 0-6.185 5.013-10.254 12.24-10.254 7.129 0 12.012 4.069 12.012 10.254 0 6.315-4.655 10.742-12.012 10.742m-.098 35.808c-7.715 0-14.03-4.297-14.03-12.012 0-7.357 5.502-12.598 13.77-12.598 8.756 0 14.127 5.013 14.127 12.598 0 7.812-6.054 12.012-13.867 12.012M5342.35 1059.12h18.588c4.72 0 8.561 1.009 11.523 2.962 2.962 1.986 5.111 4.752 6.51 8.333s2.084 7.813 2.084 12.663c0 4.915-.716 9.18-2.116 12.891-1.432 3.678-3.613 6.51-6.576 8.528-2.962 2.051-6.771 3.06-11.425 3.06h-18.588zm12.728 11.523v25.619h3.613c1.661 0 3.125-.261 4.297-.782 1.205-.521 2.149-1.334 2.897-2.376.717-1.074 1.27-2.376 1.628-3.971q.489-2.393.488-5.567c0-2.832-.293-5.208-.911-7.129s-1.628-3.385-2.995-4.362c-1.367-.944-3.157-1.432-5.404-1.432zM5327.08 1107.55h-12.728v-37.174h-11.393v-11.263h35.515v11.263h-11.394zM5286.88 1107.49v-18.327l14.876-30.078h-13.477l-7.357 17.708h-.488l-7.324-17.708h-13.965l14.876 30.469v17.936z" style="fill:#16b098;fill-rule:nonzero"/><path d="M5659.77 716.667V625q0-4.932.976-9.766c.619-3.222 1.595-6.347 2.832-9.375 1.27-3.027 2.8-5.924 4.623-8.626a49.736 49.736 0 0 1 13.802-13.802 51 51 0 0 1 8.626-4.622 48 48 0 0 1 9.408-2.832 48.6 48.6 0 0 1 9.733-.977h433.333q4.932 0 9.766.977a47 47 0 0 1 9.375 2.832 51.4 51.4 0 0 1 8.658 4.622 51 51 0 0 1 7.553 6.217c2.343 2.312 4.394 4.851 6.217 7.585a47.8 47.8 0 0 1 4.622 8.626 49.5 49.5 0 0 1 2.865 9.375c.618 3.223.944 6.478.944 9.766v91.667c0 3.287-.326 6.543-.944 9.765a49.5 49.5 0 0 1-2.865 9.375c-1.237 3.028-2.799 5.892-4.622 8.627-1.823 2.734-3.874 5.273-6.217 7.584a51 51 0 0 1-7.553 6.218 51.4 51.4 0 0 1-8.658 4.622 47 47 0 0 1-9.375 2.832 49.2 49.2 0 0 1-9.766.977H5709.77a48.6 48.6 0 0 1-9.733-.977 48 48 0 0 1-9.408-2.832 51 51 0 0 1-8.626-4.622 49.7 49.7 0 0 1-13.802-13.802 51 51 0 0 1-4.623-8.627c-1.237-3.027-2.213-6.152-2.832-9.375a49 49 0 0 1-.976-9.765Z" style="fill:#fafafa;fill-rule:nonzero;stroke:#9d9d9d;stroke-width:4.17px"/><path d="M6058.01 710.156h-15.853V629.85h19.531l23.503 61.393 23.405-61.393h19.498v80.306h-15.82v-53.092l-20.41 53.092h-13.444l-20.41-52.995zm-84.017 0h-16.439l32.715-80.306h15.723l32.812 80.306h-16.406l-7.357-18.229h-33.724zm24.186-59.635-11.133 27.539h22.266zm-85.97 61.491c-7.585 0-14.258-1.726-20.085-5.176-5.794-3.418-10.351-8.333-13.639-14.681-3.223-6.413-4.818-13.867-4.818-22.363 0-8.203 1.628-15.43 4.916-21.68 3.385-6.348 8.17-11.296 14.355-14.811q9.278-5.274 21.68-5.274c10.547 0 19.271 2.897 26.172 8.724 6.868 5.795 11.198 13.835 12.955 24.089h-16.276c-1.171-5.729-3.808-10.287-7.942-13.672-4.037-3.353-9.017-5.046-14.909-5.046-7.552 0-13.574 2.539-18.001 7.585-4.427 4.981-6.674 11.654-6.674 20.085 0 5.664 1.01 10.612 2.995 14.909 2.051 4.199 4.948 7.454 8.594 9.765 3.678 2.279 7.975 3.418 12.858 3.418 5.501 0 9.994-1.595 13.411-4.818 3.451-3.19 5.176-7.291 5.176-12.272h-22.721V667.48h26.953c5.664 0 9.994 1.433 12.988 4.265 2.963 2.734 4.46 6.771 4.46 12.044v26.367h-13.77v-23.177h-.227c-.847 7.748-3.776 13.867-8.822 18.36-5.046 4.459-11.589 6.673-19.629 6.673m-87.077-51.791a5.015 5.015 0 0 0 5.013-5.013v-21.875a5.015 5.015 0 0 0-5.013-5.013h-15.071c-1.921 0-3.483-1.562-3.483-3.515v-12.37a5.016 5.016 0 0 0-5.013-5.013h-13.705a5.015 5.015 0 0 0-5.013 5.013v12.63a5.015 5.015 0 0 0 5.013 5.013h12.175c1.92 0 3.483 1.563 3.483 3.516v21.614a5.015 5.015 0 0 0 5.013 5.013zm-43.945-21.321c0-2.767-2.246-4.981-5.013-4.981h-21.875c-2.767 0-5.013 2.214-5.013 4.981v15.071c0 1.953-1.563 3.516-3.483 3.516H5733.4a5.016 5.016 0 0 0-5.013 5.013v13.704a5.016 5.016 0 0 0 5.013 5.013h12.631a4.995 4.995 0 0 0 5.013-5.013V664.03c0-1.921 1.595-3.516 3.515-3.516h21.615c2.767 0 5.013-2.246 5.013-4.98zm-21.289 43.945c-2.767 0-5.013 2.214-5.013 4.981v21.907a5.015 5.015 0 0 0 5.013 5.013h15.071c1.921 0 3.516 1.563 3.516 3.483v12.403c0 2.766 2.214 5.013 4.981 5.013h13.704a5.016 5.016 0 0 0 5.013-5.013v-12.663a5.015 5.015 0 0 0-5.013-5.013h-12.175a3.49 3.49 0 0 1-3.483-3.483v-21.647c0-2.767-2.246-4.981-5.013-4.981zm43.913 21.322c0 2.767 2.213 5.013 4.98 5.013h21.908a5.015 5.015 0 0 0 5.013-5.013v-15.072c0-1.953 1.562-3.516 3.483-3.516h12.402a5.015 5.015 0 0 0 5.013-5.013v-13.704c0-2.767-2.246-4.98-5.013-4.98h-12.663c-2.767 0-5.013 2.213-5.013 4.98v12.174c0 1.954-1.562 3.516-3.483 3.516h-21.647c-2.767 0-4.98 2.246-4.98 5.013z" style="fill:#1f1f1f;fill-rule:nonzero"/><path d="M5847.53 1047.1v-93.815h-3.418l-75.781 102.214v3.19h66.797v28.809h12.402v-28.809h15.593V1047.1zm-12.207 0h-47.2c2.995-3.418 5.599-6.803 8.203-10.416l30.989-42.188c2.605-3.808 5.404-7.194 8.399-11.393-.391 5.404-.391 9.603-.391 14.388z" style="fill-rule:nonzero"/><path d="M5890.89 1089.26c4.036 0 8.268-2.636 8.268-8.105 0-5.632-4.232-8.268-8.268-8.268-4.232 0-8.269 2.636-8.269 8.268 0 5.469 4.037 8.105 8.269 8.105M5949.14 1077.12c-2.994 0-7.747 0-11.621.163 2.279-2.799 5.111-6.51 7.227-9.31l25.683-33.789c11.784-15.853 15.495-23.405 15.495-34.342 0-17.416-12.142-30.436-31.315-30.436-14.095 0-24.479 7.389-32.747 18.294l8.431 6.51c5.989-8.431 13.737-14.257 24.121-14.257 12.663 0 20.084 8.821 20.084 20.605 0 7.747-3.548 14.616-11.979 25.879l-43.489 57.91v3.158h69.694v-10.385zM6040.49 969.401c-21.843 0-36.621 15.852-36.621 37.5 0 24.088 16.732 36.263 35.384 36.263 10.547 0 20.215-3.19 26.92-11.621-3.352 27.962-19.726 45.052-50.162 47.493l1.399 10.221c44.369-4.394 60.743-33.073 60.743-74.967 0-25-12.142-44.889-37.663-44.889m.163 63.541c-13.9 0-25.163-8.789-25.163-26.041 0-16.211 10.742-26.758 25.163-26.758 15.852 0 25.879 11.784 25.879 26.562 0 17.448-11.622 26.237-25.879 26.237" style="fill:#202020;fill-rule:nonzero"/><path d="M4244.39 1531.41h35.612v-5.502h-35.612zm0 18.685h35.612v-5.502h-35.612zM4349.3 1573.2c12.012 0 21.289-5.599 26.888-13.705l-4.687-3.711c-5.013 6.706-12.598 11.296-22.201 11.296-16.503 0-27.897-13.086-27.897-29.199 0-16.472 11.491-28.972 27.897-28.972 9.701 0 16.309 3.386 21.713 8.985l3.873-4.004c-7.194-7.292-14.876-11.101-25.586-11.101-20.214 0-34.505 15.007-34.505 35.092 0 19.401 13.998 35.319 34.505 35.319M4406.51 1573.11c13.477 0 22.982-9.603 22.982-23.21s-9.505-23.209-22.982-23.209c-13.313 0-22.819 9.602-22.819 23.209s9.506 23.21 22.819 23.21m0-5.697c-9.798 0-16.601-7.194-16.601-17.513 0-10.189 6.803-17.513 16.601-17.513 9.994 0 16.797 7.324 16.797 17.513 0 10.319-6.901 17.513-16.797 17.513M4463.4 1526.91c-7.486 0-12.89 3.679-15.494 8.399l-1.4-7.52h-4.59v44.206h6.087V1548.2c0-9.213 5.892-15.593 14.812-15.593 7.389 0 10.188 4.785 10.188 12.272v27.116h6.088v-26.986c0-11.523-5.372-18.099-15.691-18.099M4522.72 1527.79l-12.727 28.321c-.879 1.985-1.693 3.971-2.377 6.282a50 50 0 0 0-2.409-6.282l-12.792-28.321h-6.609v.196l20.704 44.498h2.181l20.605-44.498v-.196zM4555.89 1526.69c-13.086 0-22.299 10.319-22.299 23.112 0 13.704 9.408 23.307 22.819 23.307 6.999 0 12.403-2.409 16.895-6.706l-3.516-4.394c-3.385 3.483-7.291 5.403-13.476 5.403-8.301 0-15.528-5.599-16.504-15.006h35.384c.195-1.498.293-2.897.293-4.297 0-12.891-7.292-21.419-19.596-21.419m-.098 5.696c8.105 0 13.509 5.209 13.704 14.616h-29.492c1.205-8.789 7.585-14.616 15.788-14.616M4606 1526.91c-6.185 0-10.384 2.8-12.891 7.39l-1.204-6.511h-4.59v44.206h6.087v-25.586c0-8.626 4.916-13.704 12.11-13.704 2.506 0 4.199.488 5.892 1.074l1.79-5.371c-1.986-.912-4.395-1.498-7.194-1.498M4657.31 1527.79l-1.4 7.292c-3.906-5.371-10.221-8.171-17.415-8.171-13.509 0-21.908 10.287-21.908 22.982 0 12.598 8.627 22.917 22.201 22.917 6.51 0 12.923-2.702 17.025-8.008-.131 3.288-.131 6.608-.131 9.994 0 9.798-6.998 14.485-15.983 14.485-6.608 0-11.588-2.278-15.918-6.478l-3.776 4.297c5.078 4.981 11.394 7.91 19.987 7.91 11.719 0 21.81-6.51 21.81-20.117v-47.103zm-18.197 39.291c-10.026 0-16.308-7.487-16.308-17.285 0-9.603 5.989-17.188 16.406-17.188 11.198 0 16.699 7.975 16.699 17.285s-5.696 17.188-16.797 17.188M4680.51 1516.2c2.701 0 4.589-1.921 4.589-4.395 0-2.604-1.79-4.622-4.589-4.622s-4.59 2.018-4.59 4.622c0 2.377 1.79 4.395 4.59 4.395m-3.093 55.794h6.087v-44.206h-6.087zM4720.6 1526.91c-7.487 0-12.89 3.679-15.494 8.399l-1.4-7.52h-4.59v44.206h6.087V1548.2c0-9.213 5.892-15.593 14.812-15.593 7.389 0 10.188 4.785 10.188 12.272v27.116h6.088v-26.986c0-11.523-5.372-18.099-15.691-18.099M4788.81 1527.79l-1.4 7.292c-3.906-5.371-10.221-8.171-17.415-8.171-13.509 0-21.908 10.287-21.908 22.982 0 12.598 8.627 22.917 22.201 22.917 6.51 0 12.923-2.702 17.025-8.008-.13 3.288-.13 6.608-.13 9.994 0 9.798-6.999 14.485-15.984 14.485-6.608 0-11.588-2.278-15.917-6.478l-3.777 4.297c5.079 4.981 11.394 7.91 19.987 7.91 11.719 0 21.81-6.51 21.81-20.117v-47.103zm-18.196 39.291c-10.027 0-16.309-7.487-16.309-17.285 0-9.603 5.99-17.188 16.406-17.188 11.198 0 16.699 7.975 16.699 17.285s-5.696 17.188-16.796 17.188M4833.9 1572h6.608v-31.315h41.309V1572h6.478v-68.001h-6.478v30.696h-41.309v-30.696h-6.608zM4925.19 1526.69c-13.086 0-22.298 10.319-22.298 23.112 0 13.704 9.407 23.307 22.819 23.307 6.998 0 12.402-2.409 16.894-6.706l-3.516-4.394c-3.385 3.483-7.291 5.403-13.476 5.403-8.301 0-15.527-5.599-16.504-15.006h35.384c.195-1.498.293-2.897.293-4.297 0-12.891-7.292-21.419-19.596-21.419m-.098 5.696c8.106 0 13.509 5.209 13.704 14.616h-29.492c1.205-8.789 7.585-14.616 15.788-14.616M4972.3 1527.31c-5.599 0-11.296 1.4-17.285 4.199l2.083 5.209c4.915-2.312 9.798-3.711 14.616-3.711 6.803 0 11.198 3.092 11.198 9.31v2.994c-2.311-.293-4.818-.423-8.106-.423-12.988 0-22.102 5.729-22.102 15.625 0 7.585 5.501 12.305 14.095 12.305 7.812 0 13.509-3.516 16.699-8.822l1.107 8.008h4.492v-29.394c0-9.994-6.706-15.3-16.797-15.3m-4.492 39.779c-5.502 0-8.692-2.572-8.692-6.999 0-6.478 6.185-10.091 16.602-10.091 2.897 0 4.785.098 7.194.391-.293 10.123-5.99 16.699-15.104 16.699M5004.21 1572h6.087l-.098-71.712h-6.087zM5040.69 1572.81c4.622 0 8.724-1.725 12.011-4.199l-2.701-4.623c-2.8 2.019-5.599 2.995-8.692 2.995-3.906 0-6.217-1.888-6.217-7.487v-26.302h15.82v-5.404h-15.82v-14.681h-6.087v14.681h-8.594v5.013l8.594.391v26.302c0 9.115 4.492 13.314 11.686 13.314M5083.1 1526.91c-7.487 0-12.597 3.679-15.299 8.887.097-2.604.097-4.687.097-6.901v-28.613h-6.087v71.712h6.087v-21.81c0-9.603 5.209-17.578 14.616-17.578 7.39 0 10.384 4.785 10.384 12.175v27.213h6.088v-26.986c0-11.328-5.078-18.099-15.886-18.099M5213.5 1504l-14.518 43.294a427 427 0 0 0-3.679 11.621c-1.204-3.906-2.701-8.105-4.394-12.305l-15.82-38.997h-1.888l-16.407 40.983a88 88 0 0 0-3.483 10.189c-1.009-3.874-2.213-7.194-3.222-10.286L5135.082 1504h-6.771v.293l23.373 68.196h2.018l17.904-44.075c.976-2.311 1.692-4.72 2.604-7.715.879 2.897 1.692 5.404 2.702 7.715l17.871 44.075h2.018l23.502-68.196V1504zM5251.6 1526.91c-7.487 0-12.597 3.679-15.299 8.887.097-2.604.097-4.687.097-6.901v-28.613h-6.087v71.712h6.087v-21.81c0-9.603 5.209-17.578 14.616-17.578 7.39 0 10.384 4.785 10.384 12.175v27.213h6.088v-26.986c0-11.328-5.078-18.099-15.886-18.099M5302.11 1573.11c13.476 0 22.981-9.603 22.981-23.21s-9.505-23.209-22.981-23.209c-13.314 0-22.819 9.602-22.819 23.209s9.505 23.21 22.819 23.21m0-5.697c-9.799 0-16.602-7.194-16.602-17.513 0-10.189 6.803-17.513 16.602-17.513 9.993 0 16.796 7.324 16.796 17.513 0 10.319-6.901 17.513-16.796 17.513M5337.61 1572h6.087l-.097-71.712h-6.088zM5378.39 1526.69c-13.086 0-22.298 10.319-22.298 23.112 0 13.704 9.407 23.307 22.819 23.307 6.998 0 12.402-2.409 16.894-6.706l-3.515-4.394c-3.386 3.483-7.292 5.403-13.477 5.403-8.301 0-15.527-5.599-16.504-15.006h35.384c.195-1.498.293-2.897.293-4.297 0-12.891-7.292-21.419-19.596-21.419m-.098 5.696c8.106 0 13.509 5.209 13.705 14.616h-29.493c1.205-8.789 7.585-14.616 15.788-14.616M5434.8 1572h6.608v-27.311h18.099c15.007 0 21.81-10.482 21.81-19.987 0-9.603-7.226-20.703-21.419-20.703H5434.8zm6.608-33.301v-28.711h18.392c9.017 0 14.909 6.804 14.909 14.616 0 7.097-4.915 14.095-15.299 14.095zM5508.89 1526.69c-13.086 0-22.298 10.319-22.298 23.112 0 13.704 9.407 23.307 22.819 23.307 6.998 0 12.402-2.409 16.894-6.706l-3.515-4.394c-3.386 3.483-7.292 5.403-13.477 5.403-8.301 0-15.527-5.599-16.504-15.006h35.384a33 33 0 0 0 .293-4.297c0-12.891-7.291-21.419-19.596-21.419m-.098 5.696c8.106 0 13.509 5.209 13.705 14.616h-29.493c1.205-8.789 7.585-14.616 15.788-14.616M5559 1526.91c-6.185 0-10.384 2.8-12.89 7.39l-1.205-6.511h-4.59v44.206h6.088v-25.586c0-8.626 4.915-13.704 12.109-13.704 2.506 0 4.199.488 5.892 1.074l1.79-5.371c-1.985-.912-4.394-1.498-7.194-1.498M5587.31 1572.81c8.691 0 14.974-5.013 14.974-12.402 0-7.422-6.087-10.905-14.095-13.9-5.176-2.018-9.278-4.004-9.278-8.008 0-4.102 4.004-5.599 8.497-5.599 3.58 0 7.194 1.009 10.384 2.8l2.701-4.395c-4.003-2.604-8.593-4.004-13.378-4.004-7.52 0-14.323 3.809-14.323 11.198 0 7.096 6.022 10.482 13.216 13.281 5.306 2.116 10.189 4.33 10.189 8.627 0 4.003-3.483 6.673-8.887 6.673-4.916 0-9.115-1.172-13.021-3.972l-3.092 4.786c4.687 3.19 9.895 4.915 16.113 4.915M5633.41 1573.11c13.477 0 22.982-9.603 22.982-23.21s-9.505-23.209-22.982-23.209c-13.313 0-22.819 9.602-22.819 23.209s9.506 23.21 22.819 23.21m0-5.697c-9.798 0-16.601-7.194-16.601-17.513 0-10.189 6.803-17.513 16.601-17.513 9.994 0 16.797 7.324 16.797 17.513 0 10.319-6.901 17.513-16.797 17.513M5690.3 1526.91c-7.487 0-12.891 3.679-15.495 8.399l-1.4-7.52h-4.59v44.206h6.087V1548.2c0-9.213 5.892-15.593 14.812-15.593 7.389 0 10.188 4.785 10.188 12.272v27.116h6.088v-26.986c0-11.523-5.371-18.099-15.69-18.099M5775.29 1543.48c11.101-1.692 18.099-9.277 18.099-19.498 0-11.296-9.603-19.987-21.679-19.987h-25.717v68.001h6.608v-28.19h15.398l19.108 28.19h7.584v-.293zm-22.689-5.696v-27.8h19.109c8.886 0 15.104 6.218 15.104 14.128 0 8.073-5.925 13.672-15.43 13.672zM5808.11 1516.2c2.702 0 4.59-1.921 4.59-4.395 0-2.604-1.791-4.622-4.59-4.622s-4.59 2.018-4.59 4.622c0 2.377 1.79 4.395 4.59 4.395m-3.093 55.794h6.088v-44.206h-6.088zM5839.31 1572.81c8.691 0 14.974-5.013 14.974-12.402 0-7.422-6.087-10.905-14.095-13.9-5.176-2.018-9.277-4.004-9.277-8.008 0-4.102 4.004-5.599 8.496-5.599 3.58 0 7.194 1.009 10.384 2.8l2.702-4.395c-4.004-2.604-8.594-4.004-13.379-4.004-7.52 0-14.323 3.809-14.323 11.198 0 7.096 6.022 10.482 13.216 13.281 5.306 2.116 10.189 4.33 10.189 8.627 0 4.003-3.483 6.673-8.887 6.673-4.915 0-9.115-1.172-13.021-3.972l-3.092 4.786c4.687 3.19 9.896 4.915 16.113 4.915M5877.9 1549.21l20.996-21.127v-.293h-7.389l-19.109 19.401v-46.907h-6.087v71.712h6.087v-20.508l20.899 20.508h7.617v-.488zM5953.8 1573.2c12.5 0 22.493-7.097 22.493-19.011 0-11.491-9.7-16.504-20.898-20.508-8.204-2.897-16.407-5.892-16.407-14.192 0-7.097 7.097-10.58 14.421-10.58 6.38 0 11.784 1.791 17.285 5.697l2.995-5.013c-6.478-4.785-12.988-6.804-20.606-6.804-10.97 0-20.8 6.315-20.8 16.993 0 11.425 10.709 16.406 20.703 19.921 8.919 3.093 16.699 6.381 16.699 14.779 0 8.106-7.389 12.598-15.885 12.598-7.813 0-14.909-2.67-19.987-7.292l-3.418 5.208c5.794 4.883 14.192 8.204 23.405 8.204M6007.3 1573.11c7.715 0 12.5-2.311 17.09-6.608l-3.386-4.395c-3.613 3.386-7.194 5.306-13.183 5.306-9.212 0-16.309-6.998-16.309-17.61 0-10.385 7.194-17.286 16.407-17.286 5.175 0 8.691 1.4 12.272 4.493l3.515-4.2c-4.492-4.004-9.407-6.022-15.787-6.022-12.012 0-22.624 8.431-22.624 23.015 0 15.201 11.002 23.307 22.005 23.307M6053.51 1573.11c13.476 0 22.982-9.603 22.982-23.21s-9.506-23.209-22.982-23.209c-13.314 0-22.819 9.602-22.819 23.209s9.505 23.21 22.819 23.21m0-5.697c-9.798 0-16.602-7.194-16.602-17.513 0-10.189 6.804-17.513 16.602-17.513 9.993 0 16.797 7.324 16.797 17.513 0 10.319-6.901 17.513-16.797 17.513M6107.6 1526.91c-6.184 0-10.384 2.8-12.89 7.39l-1.205-6.511h-4.589v44.206h6.087v-25.586c0-8.626 4.915-13.704 12.109-13.704 2.507 0 4.199.488 5.892 1.074l1.79-5.371c-1.985-.912-4.394-1.498-7.194-1.498M6140.69 1526.69c-13.086 0-22.298 10.319-22.298 23.112 0 13.704 9.407 23.307 22.819 23.307 6.998 0 12.402-2.409 16.894-6.706l-3.515-4.394c-3.386 3.483-7.292 5.403-13.477 5.403-8.301 0-15.527-5.599-16.504-15.006h35.384a33 33 0 0 0 .293-4.297c0-12.891-7.291-21.419-19.596-21.419m-.098 5.696c8.106 0 13.509 5.209 13.705 14.616h-29.493c1.205-8.789 7.585-14.616 15.788-14.616M6174.62 1531.8h4.59v-23.6h9.407v-4.199h-23.307v4.199h9.31zm16.178 0h4.59l2.214-17.708 8.398 11.621h.814l8.398-11.621 2.181 17.708h4.623l-3.809-27.799h-.911l-10.905 15.006-10.873-15.006h-.814zM3965.37 1501.87h-15.137l11.654 75.651h10.612l21.647-48.502h.195l7.096 48.502h10.612l37.045-75.651h-15.137l-22.559 50.586h-.195l-7.194-51.562h-8.561l-22.917 51.562h-.195zM4060.16 1548.32h7.194c15.137 0 24.935-7.682 27.409-23.438 2.67-16.829-6.51-23.014-22.037-23.014h-19.694l-11.719 74.186h14.485zm5.437-34.44h2.571c8.073 0 13.347 1.367 11.849 10.905-1.53 9.635-6.445 11.523-15.006 11.523h-2.963zM4127.45 1544.77c10.188-1.693 16.894-11.133 18.391-20.573 2.507-15.82-6.608-22.331-21.256-22.331h-19.596l-11.719 74.186h14.453l4.753-29.915h.195l13.281 29.915h17.513zm-9.864-31.087h1.986c7.65 0 13.184 1.757 11.751 10.905-1.432 9.049-7.422 11.425-15.397 11.425h-1.855zM4200.62 1508.15c-3.744-5.013-12.37-8.236-18.978-8.236-12.5 0-23.21 9.928-25.163 22.233-1.823 11.491 4.427 16.309 13.346 20.247 5.437 2.279 12.175 4.428 10.97 12.11-.911 5.696-5.338 10.71-11.23 10.71-6.217 0-10.612-5.111-11.686-10.808l-10.775 9.147c3.744 8.562 10.286 14.453 20.54 14.453 15.137 0 26.042-10.514 28.386-25.358 3.939-24.902-26.302-19.694-24.317-32.194.749-4.817 5.73-8.365 10.385-8.365 4.817 0 7.975 2.376 10.123 6.119zM3840.14 1528.04h34.342v18.913h-34.342zM3875.82 1553.43h19.01v34.115h-19.01z" style="fill-rule:nonzero"/><path d="M3885.23 1524.78c7.356.065 12.272-5.371 12.272-12.663 0-14.518-11.133-30.501-11.133-30.501s-12.533 15.69-13.054 29.362c-.39 10.123 5.079 13.704 11.915 13.802M3895.58 1537.84c-.098-7.324 5.339-12.239 12.598-12.239 14.42 0 30.338 11.132 30.338 11.132s-15.625 12.533-29.231 13.054c-10.059.358-13.64-5.078-13.705-11.947"/><path d="M1466.42 1532.08h35.612v-5.501h-35.612zm0 18.685h35.612v-5.501h-35.612zM1567.52 1573.87c14.225 0 25.911-8.496 25.911-24.511v-44.695h-6.608v44.597c0 12.5-7.975 18.62-19.303 18.62-11.491 0-19.499-6.12-19.499-18.62v-44.597h-6.576v44.695c0 16.015 11.687 24.511 26.075 24.511M1630.93 1527.58c-7.487 0-12.891 3.679-15.495 8.399l-1.399-7.52h-4.59v44.206h6.087v-23.796c0-9.212 5.892-15.592 14.811-15.592 7.389 0 10.189 4.785 10.189 12.272v27.116h6.087v-26.986c0-11.523-5.371-18.099-15.69-18.099M1664.74 1516.87c2.702 0 4.59-1.921 4.59-4.395 0-2.604-1.79-4.622-4.59-4.622s-4.59 2.018-4.59 4.622c0 2.376 1.791 4.395 4.59 4.395m-3.092 55.794h6.087v-44.206h-6.087zM1720.62 1528.46l-1.4 7.617c-3.874-5.403-9.7-8.496-17.187-8.496-12.696 0-21.908 9.57-21.908 22.787 0 13.606 9.115 23.307 22.005 23.307 7.39 0 13.607-3.418 17.22-8.822-.13 3.516-.227 7.715-.227 12.403v17.415h6.119v-66.211zm-18.099 39.518c-9.473 0-16.178-7.226-16.178-17.317 0-10.189 6.705-17.383 16.178-17.383 9.928 0 16.829 6.998 16.829 17.09 0 10.514-7.031 17.61-16.829 17.61M1771.02 1528.46v22.005c0 9.408-5.175 17.285-13.997 17.285-7.878 0-10.677-5.078-10.677-12.272v-27.018h-6.12v26.921c0 10.774 5.111 18.099 16.114 18.099 7.291 0 12.304-3.809 14.908-8.529l1.172 7.715h4.72v-44.206zM1811.82 1527.36c-13.086 0-22.298 10.319-22.298 23.112 0 13.705 9.408 23.308 22.819 23.308 6.999 0 12.402-2.409 16.895-6.706l-3.516-4.395c-3.385 3.483-7.292 5.404-13.477 5.404-8.3 0-15.527-5.599-16.504-15.007h35.385c.195-1.497.293-2.897.293-4.296 0-12.891-7.292-21.42-19.597-21.42m-.097 5.697c8.105 0 13.509 5.208 13.704 14.616h-29.492c1.204-8.789 7.584-14.616 15.788-14.616M1897.34 1573.87c12.012 0 21.289-5.599 26.888-13.704l-4.687-3.711c-5.013 6.706-12.598 11.295-22.201 11.295-16.504 0-27.897-13.086-27.897-29.199 0-16.471 11.491-28.971 27.897-28.971 9.701 0 16.309 3.385 21.712 8.984l3.874-4.004c-7.194-7.291-14.876-11.1-25.586-11.1-20.215 0-34.505 15.007-34.505 35.091 0 19.401 13.997 35.319 34.505 35.319M1934.94 1572.67h6.088l-.098-71.712h-6.087zM1972.73 1527.97c-5.599 0-11.295 1.4-17.285 4.199l2.084 5.208c4.915-2.311 9.798-3.711 14.615-3.711 6.804 0 11.198 3.093 11.198 9.31v2.995c-2.311-.293-4.817-.423-8.105-.423-12.988 0-22.103 5.729-22.103 15.625 0 7.585 5.501 12.305 14.095 12.305 7.813 0 13.509-3.516 16.699-8.822l1.107 8.008h4.492v-29.395c0-9.993-6.705-15.299-16.797-15.299m-4.492 39.778c-5.501 0-8.691-2.571-8.691-6.998 0-6.478 6.185-10.091 16.601-10.091 2.898 0 4.786.097 7.194.39-.293 10.124-5.989 16.699-15.104 16.699M2007.64 1516.87c2.702 0 4.59-1.921 4.59-4.395 0-2.604-1.79-4.622-4.59-4.622s-4.59 2.018-4.59 4.622c0 2.376 1.791 4.395 4.59 4.395m-3.092 55.794h6.087v-44.206h-6.087zM2075.73 1527.58c-7.389 0-12.5 3.483-15.397 8.887-2.084-5.599-6.999-8.887-13.705-8.887-6.38 0-11.491 3.093-14.388 8.496l-1.399-7.617h-4.59v44.206h6.087v-23.015c0-8.3 4.59-16.373 13.607-16.373 6.705 0 9.798 5.176 9.798 11.295v28.093h6.087v-23.015c0-8.3 4.623-16.373 13.509-16.373 6.185 0 9.798 4.297 9.798 11.393v27.995h6.088v-27.702c0-10.71-5.371-17.383-15.495-17.383M2122.33 1527.97c-5.599 0-11.296 1.4-17.286 4.199l2.084 5.208c4.915-2.311 9.798-3.711 14.616-3.711 6.803 0 11.197 3.093 11.197 9.31v2.995c-2.311-.293-4.817-.423-8.105-.423-12.988 0-22.103 5.729-22.103 15.625 0 7.585 5.501 12.305 14.095 12.305 7.813 0 13.509-3.516 16.699-8.822l1.107 8.008h4.492v-29.395c0-9.993-6.705-15.299-16.796-15.299m-4.493 39.778c-5.501 0-8.691-2.571-8.691-6.998 0-6.478 6.185-10.091 16.601-10.091 2.898 0 4.786.097 7.194.39-.292 10.124-5.989 16.699-15.104 16.699M2175.63 1527.58c-7.487 0-12.89 3.679-15.495 8.399l-1.399-7.52h-4.59v44.206h6.087v-23.796c0-9.212 5.892-15.592 14.811-15.592 7.39 0 10.189 4.785 10.189 12.272v27.116h6.087v-26.986c0-11.523-5.371-18.099-15.69-18.099M2220.22 1573.48c4.623 0 8.724-1.726 12.012-4.2l-2.702-4.622c-2.799 2.018-5.599 2.995-8.691 2.995-3.906 0-6.217-1.888-6.217-7.487v-26.302h15.82v-5.404h-15.82v-14.681h-6.088v14.681h-8.593v5.013l8.593.391v26.302c0 9.114 4.492 13.314 11.686 13.314M2253.94 1573.48c8.692 0 14.974-5.013 14.974-12.403 0-7.422-6.087-10.905-14.095-13.899-5.175-2.019-9.277-4.004-9.277-8.008 0-4.102 4.004-5.599 8.496-5.599 3.581 0 7.194 1.009 10.384 2.799l2.702-4.394c-4.004-2.604-8.594-4.004-13.379-4.004-7.519 0-14.323 3.808-14.323 11.198 0 7.096 6.022 10.481 13.216 13.281 5.306 2.116 10.189 4.329 10.189 8.626 0 4.004-3.483 6.673-8.887 6.673-4.915 0-9.114-1.171-13.02-3.971l-3.093 4.785c4.688 3.19 9.896 4.916 16.113 4.916M1382.01 1512.82a14 14 0 0 1 1.693.391c2.148.586 4.003 1.497 5.533 2.702q2.345 1.856 4.2 4.59l12.109 17.936c.228.293.488.651.716 1.009s.423.683.619 1.042c.553.944.651 2.018.325 3.19-.293 1.172-1.107 2.083-2.376 2.767a4.9 4.9 0 0 1-3.028.586c-1.074-.163-1.953-.652-2.701-1.465-.326-.391-.879-1.107-1.693-2.246a663 663 0 0 1-2.865-3.939 926 926 0 0 1-3.287-4.623l-2.963-4.231c-.227-.293-.455-.391-.748-.293-.261.097-.424.293-.424.651 0 1.237.033 2.734.066 4.492.032 1.725.097 3.516.162 5.404.065 1.855.163 3.613.293 5.306.131 1.692.261 3.157.456 4.362q.244 1.416.879 4.492c.456 2.018.944 4.329 1.53 6.901a659 659 0 0 0 1.855 7.91l1.758 7.519q.83 3.467 1.367 5.762c.358 1.498.586 2.344.651 2.572.456 1.53.228 2.929-.586 4.134-.846 1.204-2.05 1.823-3.645 1.823-2.344 0-3.939-1.433-4.72-4.265a227 227 0 0 1-1.27-4.817l-1.725-6.804-1.856-7.356c-.618-2.409-1.204-4.59-1.725-6.543a113 113 0 0 0-1.237-4.33c-.553-1.627-1.042-2.799-1.497-3.45s-1.107-.977-1.986-.977-1.53.326-1.986.977-.944 1.823-1.464 3.45c-.326.944-.749 2.377-1.27 4.33s-1.107 4.134-1.725 6.543c-.619 2.441-1.27 4.882-1.856 7.356l-1.725 6.804a227 227 0 0 1-1.27 4.817c-.781 2.832-2.343 4.265-4.72 4.265-1.562 0-2.767-.619-3.613-1.823-.846-1.205-1.042-2.604-.618-4.134.065-.228.293-1.074.651-2.572l1.367-5.762c.553-2.311 1.139-4.85 1.79-7.519.619-2.702 1.205-5.339 1.791-7.91a434 434 0 0 0 1.53-6.901q.635-3.076.878-4.492c.228-1.205.391-2.67.521-4.362.098-1.693.196-3.451.261-5.306.097-1.888.13-3.679.162-5.372.033-1.725.066-3.222.066-4.492 0-.358-.163-.553-.456-.651-.261-.097-.521-.032-.716.261-.879 1.269-1.856 2.701-2.995 4.231l-3.288 4.623a218 218 0 0 1-2.832 3.939c-.814 1.139-1.367 1.855-1.693 2.246-.748.813-1.627 1.302-2.701 1.465a4.9 4.9 0 0 1-3.028-.586c-1.269-.684-2.051-1.595-2.376-2.767-.326-1.172-.228-2.246.325-3.19.196-.359.391-.684.619-1.042s.488-.716.716-1.009l12.109-17.936c1.27-1.823 2.637-3.353 4.2-4.59 1.562-1.205 3.385-2.116 5.534-2.702q.78-.244 1.66-.391c1.367-.423 2.278-1.269 2.278-2.246 0-.521-.293-1.041-.748-1.432-.196-.13-.391-.228-.586-.358-1.595-1.042-2.832-2.442-3.776-4.199-.912-1.758-1.4-3.711-1.4-5.86 0-2.148.488-4.101 1.4-5.859.944-1.758 2.181-3.158 3.776-4.199 1.562-1.042 3.287-1.563 5.208-1.563s3.646.521 5.241 1.563c1.562 1.041 2.799 2.441 3.743 4.199s1.4 3.711 1.4 5.859-.456 4.102-1.4 5.86c-.944 1.757-2.181 3.157-3.743 4.199-.228.13-.423.26-.651.39-.456.391-.716.879-.716 1.4 0 .977.879 1.823 2.246 2.246" style="fill-rule:nonzero"/></svg>