<svg xmlns="http://www.w3.org/2000/svg" xml:space="preserve" style="fill-rule:evenodd;clip-rule:evenodd" viewBox="0 0 5343 2774"><path d="M108.597 8.597h5125c6.576 0 13.053.651 19.499 1.921 6.445 1.269 12.695 3.19 18.782 5.696a100 100 0 0 1 17.285 9.245c5.437 3.646 10.515 7.78 15.137 12.435 4.655 4.622 8.789 9.7 12.435 15.137a100 100 0 0 1 9.245 17.285c2.506 6.087 4.427 12.337 5.696 18.782a100.5 100.5 0 0 1 1.921 19.499v2556.67c0 6.575-.651 13.053-1.921 19.498-1.269 6.446-3.19 12.696-5.696 18.783a100.4 100.4 0 0 1-9.245 17.285c-3.646 5.436-7.78 10.514-12.435 15.137-4.622 4.655-9.7 8.789-15.137 12.435a100 100 0 0 1-17.285 9.244c-6.087 2.507-12.337 4.428-18.782 5.697a100.5 100.5 0 0 1-19.499 1.921h-5125c-6.576 0-13.053-.651-19.499-1.921-6.445-1.269-12.695-3.19-18.782-5.697a100 100 0 0 1-17.285-9.244c-5.437-3.646-10.515-7.78-15.137-12.435-4.655-4.623-8.789-9.701-12.435-15.137a100.3 100.3 0 0 1-9.245-17.285c-2.506-6.087-4.427-12.337-5.696-18.783a100.4 100.4 0 0 1-1.921-19.498V108.597c0-6.576.651-13.053 1.921-19.499 1.269-6.445 3.19-12.695 5.696-18.782a100 100 0 0 1 9.245-17.285c3.646-5.437 7.78-10.515 12.435-15.137 4.622-4.655 9.7-8.789 15.137-12.435a100 100 0 0 1 17.285-9.245c6.087-2.506 12.337-4.427 18.782-5.696a100.4 100.4 0 0 1 19.499-1.921" style="fill:#89d0e7;fill-rule:nonzero"/><path d="M108.597 8.597h5125c6.576 0 13.053.651 19.499 1.921 6.445 1.269 12.695 3.19 18.782 5.696a100 100 0 0 1 17.285 9.245c5.437 3.646 10.515 7.78 15.137 12.435 4.655 4.622 8.789 9.7 12.435 15.137a100 100 0 0 1 9.245 17.285c2.506 6.087 4.427 12.337 5.696 18.782a100.5 100.5 0 0 1 1.921 19.499v2556.67c0 6.575-.651 13.053-1.921 19.498-1.269 6.446-3.19 12.696-5.696 18.783a100.4 100.4 0 0 1-9.245 17.285c-3.646 5.436-7.78 10.514-12.435 15.137-4.622 4.655-9.7 8.789-15.137 12.435a100 100 0 0 1-17.285 9.244c-6.087 2.507-12.337 4.428-18.782 5.697a100.5 100.5 0 0 1-19.499 1.921h-5125c-6.576 0-13.053-.651-19.499-1.921-6.445-1.269-12.695-3.19-18.782-5.697a100 100 0 0 1-17.285-9.244c-5.437-3.646-10.515-7.78-15.137-12.435-4.655-4.623-8.789-9.701-12.435-15.137a100.3 100.3 0 0 1-9.245-17.285c-2.506-6.087-4.427-12.337-5.696-18.783a100.4 100.4 0 0 1-1.921-19.498V108.597c0-6.576.651-13.053 1.921-19.499 1.269-6.445 3.19-12.695 5.696-18.782a100 100 0 0 1 9.245-17.285c3.646-5.437 7.78-10.515 12.435-15.137 4.622-4.655 9.7-8.789 15.137-12.435a100 100 0 0 1 17.285-9.245c6.087-2.506 12.337-4.427 18.782-5.696a100.4 100.4 0 0 1 19.499-1.921Z" style="fill:none;fill-rule:nonzero;stroke:#2b5a6a;stroke-width:4.17px"/><path d="M125.264 49.264h5091.67c5.469 0 10.905.52 16.244 1.595a85 85 0 0 1 15.657 4.752 83.6 83.6 0 0 1 14.388 7.683 84 84 0 0 1 12.631 10.384 84 84 0 0 1 10.384 12.63c3.027 4.557 5.599 9.342 7.682 14.388a85 85 0 0 1 4.753 15.658 82.3 82.3 0 0 1 1.595 16.243v2499.33c0 6.576-.651 13.086-1.921 19.499-1.269 6.445-3.19 12.695-5.697 18.783a100 100 0 0 1-9.244 17.285c-3.646 5.436-7.78 10.514-12.435 15.136-4.623 4.655-9.701 8.79-15.137 12.435a100 100 0 0 1-17.285 9.245c-6.087 2.507-12.337 4.427-18.783 5.697a100.4 100.4 0 0 1-19.498 1.92H141.938c-6.575 0-13.053-.651-19.498-1.92-6.446-1.27-12.696-3.19-18.783-5.697a100 100 0 0 1-17.285-9.245c-5.436-3.645-10.514-7.78-15.137-12.435-4.655-4.622-8.789-9.7-12.435-15.136a100 100 0 0 1-9.244-17.285c-2.507-6.088-4.428-12.338-5.697-18.783a100 100 0 0 1-1.921-19.499V132.597c0-5.469.521-10.905 1.595-16.243a85 85 0 0 1 4.753-15.658c2.083-5.046 4.655-9.831 7.682-14.388a84 84 0 0 1 10.384-12.63 84 84 0 0 1 12.631-10.384 83.6 83.6 0 0 1 14.388-7.683 85 85 0 0 1 15.657-4.752 82 82 0 0 1 16.244-1.595z" style="fill:#fff"/><path d="M125.264 50.264h5091.67c5.469 0 10.905.52 16.244 1.595a85 85 0 0 1 15.657 4.752 83.6 83.6 0 0 1 14.388 7.683 84 84 0 0 1 12.631 10.384 84 84 0 0 1 10.384 12.63c3.027 4.557 5.599 9.342 7.682 14.388a85 85 0 0 1 4.753 15.658 82.3 82.3 0 0 1 1.595 16.243v2498.33c0 6.576-.651 13.086-1.921 19.499-1.269 6.445-3.19 12.695-5.697 18.783a100 100 0 0 1-9.244 17.285c-3.646 5.436-7.78 10.514-12.435 15.136-4.623 4.655-9.701 8.79-15.137 12.435a100 100 0 0 1-17.285 9.245c-6.087 2.507-12.337 4.427-18.783 5.697a100.4 100.4 0 0 1-19.498 1.92H141.938c-6.575 0-13.053-.651-19.498-1.92-6.446-1.27-12.696-3.19-18.783-5.697a100 100 0 0 1-17.285-9.245c-5.436-3.645-10.514-7.78-15.137-12.435-4.655-4.622-8.789-9.7-12.435-15.136a100 100 0 0 1-9.244-17.285c-2.507-6.088-4.428-12.338-5.697-18.783a100 100 0 0 1-1.921-19.499V133.597c0-5.469.521-10.905 1.595-16.243a85 85 0 0 1 4.753-15.658c2.083-5.046 4.655-9.831 7.682-14.388a84 84 0 0 1 10.384-12.63 84 84 0 0 1 12.631-10.384 83.6 83.6 0 0 1 14.388-7.683 85 85 0 0 1 15.657-4.752 82 82 0 0 1 16.244-1.595z" style="fill:url(#a)"/><path d="M125.264 50.264h5091.67a82.3 82.3 0 0 1 16.244 1.595 85 85 0 0 1 15.657 4.752 83.6 83.6 0 0 1 14.388 7.683 84 84 0 0 1 12.631 10.384 84 84 0 0 1 10.384 12.63c3.027 4.557 5.599 9.342 7.682 14.388a85 85 0 0 1 4.753 15.658 82.3 82.3 0 0 1 1.595 16.243v2498.33c0 6.576-.651 13.086-1.921 19.499-1.269 6.445-3.19 12.695-5.697 18.783a100 100 0 0 1-9.244 17.285c-3.646 5.436-7.78 10.514-12.435 15.136-4.623 4.655-9.701 8.79-15.137 12.435a100 100 0 0 1-17.285 9.245c-6.087 2.507-12.337 4.427-18.783 5.697a100.4 100.4 0 0 1-19.498 1.92H141.938c-6.575 0-13.053-.651-19.498-1.92-6.446-1.27-12.696-3.19-18.783-5.697a100 100 0 0 1-17.285-9.245c-5.436-3.645-10.514-7.78-15.137-12.435-4.655-4.622-8.789-9.7-12.435-15.136a100 100 0 0 1-9.244-17.285c-2.507-6.088-4.428-12.338-5.697-18.783a100 100 0 0 1-1.921-19.499V133.597c0-5.469.521-10.905 1.595-16.243a85 85 0 0 1 4.753-15.658c2.083-5.046 4.655-9.831 7.682-14.388a84 84 0 0 1 10.384-12.63 84 84 0 0 1 12.631-10.384 83.6 83.6 0 0 1 14.388-7.683 85 85 0 0 1 15.657-4.752 82.3 82.3 0 0 1 16.244-1.595z" style="fill:none;fill-rule:nonzero;stroke:#0c85b0;stroke-width:4.17px"/><path d="M75.264 2573.6V215.27c0-8.203.813-16.341 2.409-24.382a126 126 0 0 1 7.096-23.47c3.157-7.552 6.999-14.779 11.556-21.582a122.3 122.3 0 0 1 15.56-18.945 122.3 122.3 0 0 1 18.945-15.56c6.803-4.557 14.03-8.399 21.615-11.556a125 125 0 0 1 23.437-7.096 125 125 0 0 1 24.382-2.409h4941.67c8.203 0 16.341.813 24.382 2.409a125 125 0 0 1 23.437 7.096c7.585 3.157 14.812 6.999 21.615 11.556a122.3 122.3 0 0 1 18.945 15.56 122.3 122.3 0 0 1 15.56 18.945c4.557 6.803 8.399 14.03 11.556 21.582a126 126 0 0 1 7.096 23.47 125 125 0 0 1 2.409 24.382V2573.6c0 8.203-.813 16.341-2.409 24.382a125 125 0 0 1-7.096 23.437c-3.157 7.585-6.999 14.811-11.556 21.615a122.3 122.3 0 0 1-15.56 18.945 122.3 122.3 0 0 1-18.945 15.56c-6.803 4.557-14.03 8.398-21.615 11.556a125 125 0 0 1-23.437 7.096 125 125 0 0 1-24.382 2.409H200.264a125 125 0 0 1-24.382-2.409 125 125 0 0 1-23.437-7.096c-7.585-3.158-14.812-6.999-21.615-11.556a122.3 122.3 0 0 1-18.945-15.56 122.3 122.3 0 0 1-15.56-18.945c-4.557-6.804-8.399-14.03-11.556-21.615a125 125 0 0 1-7.096-23.437 125 125 0 0 1-2.409-24.382Z" style="fill:#e4e4e4;fill-rule:nonzero;stroke:#747474;stroke-width:4.17px"/><path d="M108.597 1606.93V248.6c0-8.203.814-16.341 2.409-24.382a126 126 0 0 1 7.096-23.47c3.158-7.552 6.999-14.778 11.556-21.582a122.3 122.3 0 0 1 15.56-18.945 122.3 122.3 0 0 1 18.945-15.56c6.804-4.557 14.03-8.398 21.615-11.556a125 125 0 0 1 23.437-7.096 125 125 0 0 1 24.382-2.409h4875c8.203 0 16.341.814 24.382 2.409a125 125 0 0 1 23.437 7.096c7.585 3.158 14.811 6.999 21.615 11.556a122.3 122.3 0 0 1 18.945 15.56 122.3 122.3 0 0 1 15.56 18.945c4.557 6.804 8.398 14.03 11.556 21.582a126 126 0 0 1 7.096 23.47 125 125 0 0 1 2.409 24.382v1358.33c0 8.203-.814 16.341-2.409 24.382a126 126 0 0 1-7.096 23.47c-3.158 7.552-6.999 14.779-11.556 21.582a122.3 122.3 0 0 1-15.56 18.945 122.3 122.3 0 0 1-18.945 15.56c-6.804 4.557-14.03 8.399-21.615 11.556a125 125 0 0 1-23.437 7.096 125 125 0 0 1-24.382 2.409h-4875c-8.203 0-16.341-.813-24.382-2.409a125 125 0 0 1-23.437-7.096c-7.585-3.157-14.811-6.999-21.615-11.556a122.3 122.3 0 0 1-18.945-15.56 122.3 122.3 0 0 1-15.56-18.945c-4.557-6.803-8.398-14.03-11.556-21.615a125 125 0 0 1-7.096-23.437 125 125 0 0 1-2.409-24.382Z" style="fill:#f6f6f6;fill-rule:nonzero;stroke:#bdbdbd;stroke-width:4.17px"/><path d="m338.329 641.188 20.899-17.741c-25.033-31.673-39.909-81.087-39.909-133.952 0-52.897 14.876-102.278 39.909-133.952l-20.899-17.74c-30.11 34.83-50.358 90.885-50.358 151.692s20.248 116.83 50.358 151.693m103.858-29.134h26.595V582.92c36.1-3.809 59.863-26.921 59.863-59.864 0-37.369-29.785-52.246-61.751-65.234-24.707-9.505-44.987-18.359-44.987-35.482 0-18.034 17.415-24.381 33.887-24.381 17.74 0 34.505 5.729 50.358 17.122l15.201-28.19c-16.471-11.393-34.212-18.066-52.571-20.28v-28.808h-26.595v28.808c-32.943 4.134-57.324 23.763-57.324 57.324 0 32.292 27.246 48.438 58.886 61.426 25.033 10.156 47.819 19.011 47.819 40.56 0 14.551-14.225 25.619-36.1 25.619-22.168 0-43.359-7.911-60.156-21.192l-18.36 26.921c18.034 14.225 39.909 23.405 65.235 25.651zm236.223-101.66V368.532h-20.573L545.109 521.168v19.304h99.121v39.583h34.18v-39.583h23.763v-30.078zm-33.236 0h-35.156c-7.292 0-14.258 0-21.55.325 4.134-5.078 7.943-10.156 12.044-15.527l32.292-44.336c4.427-5.697 8.561-11.719 13.314-19.303-.944 9.472-.944 16.764-.944 26.269zm156.12 73.47c48.112 0 77.246-41.797 77.246-108.627 0-66.829-29.134-108.3-77.246-108.3-48.144 0-77.278 41.471-77.278 108.3s29.134 108.627 77.278 108.627m0-32.617c-26.302 0-39.908-30.404-39.908-76.01 0-45.605 13.606-76.009 39.908-76.009 26.27 0 39.877 30.404 39.877 76.009s-13.607 76.01-39.877 76.01m134.901 32.617c11.068 0 22.461-6.966 22.461-21.843 0-15.202-11.393-22.168-22.461-22.168-11.1 0-22.493 6.966-22.493 22.168 0 14.877 11.393 21.843 22.493 21.843m100.062-215.332-66.504 42.122 14.876 27.214 28.516-16.472c2.832-1.562 5.045-2.832 7.259-4.427-.293 5.078-.619 9.831-.619 14.584v148.502h36.719V368.532zm272-5.404h-11.068l-65.234 99.447c-4.753 7.291-9.505 14.876-13.932 22.493-4.427-7.617-9.18-15.202-13.933-22.493l-64.908-99.447h-11.101l-31.673 216.927h36.751l16.472-116.211c.944-7.617 2.213-14.583 2.506-22.819 4.134 7.292 8.561 14.258 13.314 20.899l48.763 74.739h7.617l49.056-74.739c4.46-6.641 8.887-13.282 12.696-20.248.618 7.292 1.562 14.258 2.506 21.843l17.122 116.536h36.719zm70.62-25.325-20.573 17.74c24.675 31.674 39.584 81.055 39.584 133.952 0 52.865-14.909 102.279-39.584 133.952l20.573 17.741c30.079-34.863 50.651-90.885 50.651-151.693 0-60.807-20.572-116.862-50.651-151.692M532.484 731.627c4.915-3.092 8.105-8.073 8.105-14.583 0-10.612-8.594-17.806-20.508-17.806h-27.083v68.001h29.004c12.5 0 21.289-7.487 21.289-18.815 0-7.78-4.297-13.9-10.807-16.797m-27.8-22.689h13.412c6.315 0 10.612 3.386 10.612 9.017 0 5.99-3.711 9.473-10.417 9.473h-13.607zm15.397 48.601h-15.397v-20.508h15.821c6.477 0 10.905 4.004 10.905 10.221 0 6.38-4.623 10.287-11.329 10.287m47.601-.684v-19.108h27.116v-10.124h-27.116v-17.969h31.022v-10.416h-42.806v68.001h43.685v-10.384zm44.316 10.384h41.309v-10.905h-29.525v-57.096h-11.784zm80.206 1.302c20.996 0 35.384-15.495 35.384-35.416 0-20.378-14.388-35.189-35.384-35.189-20.801 0-35.417 14.811-35.417 35.189 0 19.921 14.616 35.416 35.417 35.416m0-10.709c-14.193 0-23.308-11.003-23.308-24.707 0-14.096 9.115-24.48 23.308-24.48 14.29 0 23.405 10.384 23.405 24.48 0 13.704-9.115 24.707-23.405 24.707m120.508-58.594-11.621 34.603c-1.107 3.287-2.409 6.901-3.385 10.807-1.4-3.906-2.898-7.617-4.623-11.296l-13.476-30.013h-2.898l-13.997 31.413c-1.4 3.093-2.604 6.185-3.906 9.994-.912-3.809-2.018-6.999-2.995-10.092l-11.914-35.416h-12.402v.293l23.795 68.099h3.516l16.504-36.101c1.074-2.278 1.888-4.589 2.897-7.487.879 2.898 1.79 5.209 2.897 7.487l16.504 36.101h3.483l23.893-68.099v-.293zm104.277-.488h-3.483L892.9 730.13q-2.273 3.502-4.394 7.096a200 200 0 0 0-4.395-7.096l-20.508-31.38h-3.515l-9.994 68.489h11.589l5.208-36.686c.293-2.409.716-4.623.814-7.227a71 71 0 0 0 4.199 6.608l15.397 23.601h2.409l15.495-23.601c1.399-2.083 2.799-4.199 4.004-6.38.195 2.279.488 4.492.781 6.901l5.404 36.784h11.588zm49.606.097h-3.613l-32.096 68.197v.195h12.402l5.599-12.305h31.803l5.599 12.305h12.305v-.293zm-1.79 18.978c1.595 4.427 2.995 8.008 4.59 11.621l7.389 16.179h-23.991l7.389-16.179a176 176 0 0 0 4.623-11.621m76.712 22.298c9.7-2.799 15.69-10.189 15.69-19.694 0-12.077-9.603-21.191-23.112-21.191h-26.693v68.001h11.784v-25.814h10.319l15.983 25.814h13.411v-.293zm-22.331-8.496v-22.2h13.9c7.324 0 12.207 4.817 12.207 11.198 0 6.705-4.59 11.002-12.403 11.002zm73.501 1.302 26.822-33.398v-.293h-13.411l-24.414 30.501v-30.501H1069.9v68.001h11.784v-30.404l26.009 30.404h13.9v-.391zm49.59 23.926v-19.108h27.116v-10.124h-27.116v-17.969h31.022v-10.416h-42.806v68.001h43.685v-10.384zm88.23-57.617h-50.326v10.905h19.304v57.096h11.816v-57.096h19.206z" style="fill:#006008;fill-rule:nonzero"/><path d="M1656.94 552.947h15.397v-70.248h71.875v-13.997h-71.875v-60.417h80.046v-13.997h-95.443zM1807.9 448.65c-13.053 0-26.367 3.255-40.364 9.798l4.915 12.142c11.426-5.371 22.852-8.659 34.05-8.659 15.885 0 26.139 7.259 26.139 21.712v6.999c-5.371-.683-11.198-.944-18.913-.944-30.306 0-51.562 13.314-51.562 36.426 0 17.708 12.825 28.678 32.91 28.678 18.196 0 31.51-8.17 38.965-20.508l2.571 18.653h10.482V484.36c0-23.34-15.625-35.71-39.193-35.71m-10.481 92.871c-12.859 0-20.313-6.087-20.313-16.341 0-15.169 14.453-23.568 38.737-23.568 6.771 0 11.198.228 16.797.944-.716 23.568-13.998 38.965-35.221 38.965m151.401-91.699-29.622 66.015c-2.116 4.688-3.971 9.343-5.599 14.714-1.628-5.371-3.516-10.026-5.599-14.714l-29.883-66.015h-15.397v.456l48.307 103.841h5.144l48.047-103.841v-.456zm78.65 105.696c31.51 0 53.678-22.395 53.678-54.134 0-31.738-22.168-54.134-53.678-54.134-31.022 0-53.19 22.396-53.19 54.134 0 31.739 22.168 54.134 53.19 54.134m0-13.313c-22.852 0-38.737-16.797-38.737-40.821 0-23.795 15.885-40.853 38.737-40.853 23.34 0 39.193 17.058 39.193 40.853 0 24.024-16.081 40.821-39.193 40.821m126.25-94.499c-14.486 0-24.284 6.543-30.111 17.285l-2.799-15.169h-10.742v103.125h14.225v-59.733c0-20.052 11.458-31.966 28.255-31.966 5.827 0 9.798 1.171 13.77 2.571l4.199-12.597c-4.688-2.116-10.287-3.516-16.797-3.516m72.08.944c-13.053 0-26.367 3.255-40.364 9.798l4.915 12.142c11.426-5.371 22.852-8.659 34.05-8.659 15.885 0 26.139 7.259 26.139 21.712v6.999c-5.371-.683-11.198-.944-18.913-.944-30.306 0-51.562 13.314-51.562 36.426 0 17.708 12.825 28.678 32.91 28.678 18.196 0 31.51-8.17 38.965-20.508l2.571 18.653h10.482V484.36c0-23.34-15.625-35.71-39.193-35.71m-10.481 92.871c-12.858 0-20.313-6.087-20.313-16.341 0-15.169 14.453-23.568 38.737-23.568 6.771 0 11.198.228 16.797.944-.716 23.568-13.997 38.965-35.221 38.965m138.361-93.815c-16.797 0-31.51 7.487-39.908 20.085.227-9.115.455-18.685.455-28.484v-53.645h-14.225v167.285h10.97l2.116-17.969c8.626 12.598 23.079 20.313 40.592 20.313 30.567 0 51.791-22.885 51.791-54.362 0-30.567-21.452-53.223-51.791-53.223m-.944 94.043c-23.795 0-39.192-17.025-39.192-40.365s15.853-40.364 39.192-40.364c22.884 0 38.509 16.797 38.509 40.364 0 23.568-15.625 40.365-38.509 40.365m81.894 11.198h14.258l-.261-167.285h-14.225zm95.2-105.697c-30.567 0-52.019 24.024-52.019 53.906 0 31.967 21.94 54.362 53.19 54.362 16.342 0 28.939-5.599 39.421-15.625l-8.138-10.286c-7.943 8.171-17.057 12.598-31.51 12.598-19.369 0-36.166-13.054-38.51-34.994h82.618c.455-3.483.683-6.771.683-10.026 0-30.111-17.025-49.935-45.735-49.935m-.228 13.281c18.912 0 31.51 12.142 31.966 34.082h-68.848c2.8-20.54 17.741-34.082 36.882-34.082m131.838 92.416h15.397v-63.705h42.22c34.994 0 50.879-24.511 50.879-46.647 0-22.428-16.796-48.307-49.935-48.307h-58.561zm15.397-77.702v-66.96h42.937c20.996 0 34.765 15.853 34.765 34.05 0 16.569-11.426 32.91-35.709 32.91zm158.683-27.539c-14.486 0-24.284 6.543-30.111 17.285l-2.799-15.169h-10.742v103.125h14.225v-59.733c0-20.052 11.458-31.966 28.255-31.966 5.827 0 9.798 1.171 13.77 2.571l4.199-12.597c-4.688-2.116-10.286-3.516-16.797-3.516m78.38 107.812c31.51 0 53.678-22.395 53.678-54.134 0-31.738-22.168-54.134-53.678-54.134-31.023 0-53.191 22.396-53.191 54.134 0 31.739 22.168 54.134 53.191 54.134m0-13.313c-22.852 0-38.737-16.797-38.737-40.821 0-23.795 15.885-40.853 38.737-40.853 23.339 0 39.192 17.058 39.192 40.853 0 24.024-16.081 40.821-39.192 40.821m149.56-92.383-29.622 66.015c-2.116 4.688-3.972 9.343-5.599 14.714-1.628-5.371-3.516-10.026-5.599-14.714l-29.883-66.015h-15.397v.456l48.307 103.841h5.143l48.047-103.841v-.456zm44.33-27.084c6.316 0 10.743-4.427 10.743-10.253 0-6.088-4.2-10.743-10.743-10.743-6.51 0-10.709 4.655-10.709 10.743 0 5.599 4.199 10.253 10.709 10.253m-7.226 130.209h14.225V449.822h-14.225zm134.386-167.285v53.645c0 9.799.26 19.141.488 27.995-8.398-12.109-23.112-19.596-39.909-19.596-30.338 0-51.79 22.656-51.79 53.223 0 31.477 21.224 54.362 51.79 54.362 17.969 0 32.194-7.943 40.593-20.769l2.115 18.425h10.971V385.662zm-38.477 156.087c-22.884 0-38.509-16.797-38.509-40.365 0-23.567 15.625-40.364 38.509-40.364 23.307 0 38.965 17.024 38.965 40.364s-15.169 40.365-38.965 40.365m133.687-94.499c-30.566 0-52.018 24.024-52.018 53.906 0 31.967 21.94 54.362 53.19 54.362 16.341 0 28.939-5.599 39.421-15.625l-8.139-10.286c-7.942 8.171-17.057 12.598-31.51 12.598-19.368 0-36.165-13.054-38.509-34.994h82.617c.456-3.483.684-6.771.684-10.026 0-30.111-17.025-49.935-45.736-49.935m-.228 13.281c18.913 0 31.511 12.142 31.966 34.082h-68.847c2.799-20.54 17.741-34.082 36.881-34.082m117.148-12.825c-14.486 0-24.284 6.543-30.111 17.285l-2.799-15.169h-10.742v103.125h14.225v-59.733c0-20.052 11.458-31.966 28.255-31.966 5.827 0 9.798 1.171 13.77 2.571l4.199-12.597c-4.688-2.116-10.287-3.516-16.797-3.516m66.01 107.096c20.312 0 34.993-11.653 34.993-28.906 0-17.285-14.225-25.456-32.877-32.454-12.142-4.655-21.713-9.343-21.713-18.653 0-9.57 9.343-13.086 19.825-13.086 8.398 0 16.829 2.344 24.284 6.543l6.282-10.254c-9.31-6.087-20.052-9.342-31.25-9.342-17.513 0-33.366 8.854-33.366 26.139 0 16.569 13.998 24.479 30.794 31.022 12.37 4.916 23.796 10.026 23.796 20.085 0 9.31-8.171 15.625-20.768 15.625-11.426 0-21.224-2.799-30.339-9.342l-7.226 11.197c10.97 7.455 23.112 11.426 37.565 11.426" style="fill-rule:nonzero"/><path d="m1739.87 693.795-12.142 35.189c-.944 2.539-1.595 4.915-2.409 7.714a52 52 0 0 0-3.06-7.454l-14.648-32.259h-2.018l-14.779 32.389c-1.074 2.409-2.018 4.525-2.962 7.324-.781-2.929-1.465-5.045-2.246-7.584l-12.272-35.319h-8.269v.26l20.671 59.31h2.409l18.522-40.788 18.262 40.788h2.539l20.67-59.31v-.26zm25.58-15.495c3.613 0 6.152-2.507 6.152-5.859 0-3.451-2.409-6.12-6.152-6.12-3.711 0-6.12 2.669-6.12 6.12 0 3.222 2.409 5.859 6.12 5.859m-4.134 74.414h8.138v-58.919h-8.138zm48.694 1.074c6.12 0 11.589-2.278 15.983-5.599l-3.58-6.152c-3.744 2.669-7.487 4.004-11.622 4.004-5.175 0-8.268-2.539-8.268-9.994v-35.058h21.061v-7.194h-21.061v-19.629h-8.138v19.629h-11.458v6.64l11.458.554v35.058c0 12.142 6.022 17.741 15.625 17.741m56.53-61.198c-9.994 0-16.797 4.916-20.41 11.849.13-3.45.13-6.25.13-9.179v-38.151h-8.138v95.605h8.138v-29.069c0-12.793 6.933-23.47 19.466-23.47 9.863 0 13.867 6.413 13.867 16.276v36.263h8.138v-36.003c0-15.071-6.803-24.121-21.191-24.121m100.26 0c-9.993 0-17.187 4.916-20.67 11.198l-1.856-9.993h-6.152v58.919h8.138v-31.738c0-12.272 7.877-20.801 19.759-20.801 9.863 0 13.574 6.413 13.574 16.406v36.133h8.138v-36.003c0-15.332-7.194-24.121-20.931-24.121m66.41-.26c-17.48 0-29.753 13.704-29.753 30.794 0 18.262 12.533 31.055 30.404 31.055 9.343 0 16.537-3.19 22.559-8.919l-4.688-5.892c-4.525 4.687-9.733 7.226-18.001 7.226-11.068 0-20.671-7.487-22.005-20.019h47.2c.293-1.986.423-3.874.423-5.729 0-17.188-9.733-28.516-26.139-28.516m-.13 7.585c10.807 0 18.001 6.933 18.262 19.466h-39.323c1.595-11.719 10.123-19.466 21.061-19.466m60.93 53.873c6.12 0 11.589-2.278 15.983-5.599l-3.58-6.152c-3.744 2.669-7.487 4.004-11.621 4.004-5.176 0-8.269-2.539-8.269-9.994v-35.058h21.062v-7.194h-21.062v-19.629h-8.138v19.629h-11.458v6.64l11.458.554v35.058c0 12.142 6.022 17.741 15.625 17.741m62.81-1.074h8.105v-51.725h19.336v-7.194h-19.336v-16.96c0-9.049 4.688-13.737 11.882-13.737 4.264 0 7.194 1.205 10.547 3.483l3.711-5.859c-4.525-3.353-8.92-5.208-15.202-5.208-13.054 0-19.043 9.733-19.043 21.321v16.96h-12.272v7.194h12.272zm58.25-59.603c-7.455 0-15.072 1.856-23.08 5.599l2.8 6.934c6.543-3.06 13.086-4.916 19.466-4.916 9.082 0 14.941 4.134 14.941 12.37v4.004c-3.059-.391-6.38-.521-10.807-.521-17.318 0-29.459 7.585-29.459 20.801 0 10.124 7.324 16.406 18.815 16.406 10.384 0 18.001-4.687 22.265-11.751l1.465 10.677h5.99v-39.193c0-13.346-8.92-20.41-22.396-20.41m-5.99 53.06c-7.357 0-11.621-3.45-11.621-9.31 0-8.691 8.268-13.476 22.136-13.476 3.873 0 6.412.13 9.602.52-.39 13.477-8.007 22.266-20.117 22.266m86.53-52.376-16.927 37.728c-1.205 2.669-2.279 5.338-3.223 8.398-.911-3.06-1.986-5.729-3.19-8.398l-17.057-37.728h-8.822v.26l27.604 59.31h2.93l27.474-59.31v-.26zm44.91 60.384c18.001 0 30.664-12.793 30.664-30.925 0-18.131-12.663-30.924-30.664-30.924-17.709 0-30.404 12.793-30.404 30.924 0 18.132 12.695 30.925 30.404 30.925m0-7.585c-13.054 0-22.136-9.603-22.136-23.34 0-13.606 9.082-23.339 22.136-23.339 13.346 0 22.396 9.733 22.396 23.339 0 13.737-9.18 23.34-22.396 23.34m72.13-54.004c-8.268 0-13.867 3.711-17.188 9.864l-1.595-8.659h-6.152v58.919h8.138v-34.147c0-11.458 6.543-18.262 16.146-18.262 3.32 0 5.599.684 7.877 1.465l2.377-7.194c-2.67-1.204-5.86-1.986-9.603-1.986m41.22.521c-7.455 0-15.072 1.856-23.08 5.599l2.8 6.934c6.543-3.06 13.086-4.916 19.466-4.916 9.082 0 14.941 4.134 14.941 12.37v4.004c-3.059-.391-6.38-.521-10.807-.521-17.318 0-29.459 7.585-29.459 20.801 0 10.124 7.324 16.406 18.815 16.406 10.384 0 18.001-4.687 22.265-11.751l1.465 10.677h5.99v-39.193c0-13.346-8.92-20.41-22.396-20.41m-5.99 53.06c-7.356 0-11.621-3.45-11.621-9.31 0-8.691 8.268-13.476 22.136-13.476 3.873 0 6.412.13 9.602.52-.39 13.477-8.007 22.266-20.117 22.266m79.07-53.581c-9.603 0-18.002 4.265-22.819 11.459.13-5.209.26-10.677.26-16.276v-30.664h-8.138v95.605h6.283l1.204-10.254c4.916 7.194 13.184 11.589 23.21 11.589 17.448 0 29.59-13.054 29.59-31.055 0-17.48-12.272-30.404-29.59-30.404m-.554 53.711c-13.606 0-22.395-9.733-22.395-23.047 0-13.346 9.082-23.079 22.395-23.079 13.086 0 22.006 9.603 22.006 23.079 0 13.444-8.92 23.047-22.006 23.047m46.814 6.413h8.105l-.13-95.605h-8.138zm54.4-60.384c-17.48 0-29.752 13.704-29.752 30.794 0 18.262 12.532 31.055 30.403 31.055 9.343 0 16.537-3.19 22.559-8.919l-4.688-5.892c-4.524 4.687-9.733 7.226-18.001 7.226-11.068 0-20.671-7.487-22.005-20.019h47.2c.293-1.986.424-3.874.424-5.729 0-17.188-9.734-28.516-26.14-28.516m-.13 7.585c10.807 0 18.001 6.933 18.262 19.466h-39.323c1.595-11.719 10.124-19.466 21.061-19.466m103.33-7.325c-9.993 0-18.001 4.265-23.079 11.068l-1.725-9.863h-6.153v88.248h8.138v-23.209c0-5.86-.13-11.328-.26-15.853 4.948 6.673 13.216 11.068 22.949 11.068 16.927 0 29.199-12.924 29.199-31.055 0-17.611-12.272-30.404-29.069-30.404m-.683 53.841c-13.054 0-22.526-9.44-22.526-23.437 0-13.477 9.342-22.819 22.526-22.819 12.662 0 21.614 9.603 21.614 23.21 0 13.476-8.952 23.046-21.614 23.046m71.323-53.841c-8.268 0-13.867 3.711-17.188 9.864l-1.595-8.659h-6.152v58.919h8.138v-34.147c0-11.458 6.543-18.262 16.146-18.262 3.32 0 5.599.684 7.877 1.465l2.377-7.194c-2.67-1.204-5.86-1.986-9.603-1.986m25.87-14.29c3.613 0 6.152-2.507 6.152-5.859 0-3.451-2.409-6.12-6.152-6.12-3.711 0-6.12 2.669-6.12 6.12 0 3.222 2.409 5.859 6.12 5.859m-4.134 74.414h8.138v-58.919h-8.138zm54.034 1.465c10.253 0 16.666-3.06 22.786-8.789l-4.525-5.892c-4.817 4.557-9.603 7.096-17.61 7.096-12.273 0-21.745-9.342-21.745-23.47 0-13.867 9.603-23.079 21.875-23.079 6.933 0 11.588 1.855 16.406 5.989l4.655-5.599c-5.99-5.306-12.533-7.975-21.061-7.975-15.983 0-30.143 11.198-30.143 30.664 0 20.248 14.681 31.055 29.362 31.055m40.37-75.879c3.614 0 6.153-2.507 6.153-5.859 0-3.451-2.409-6.12-6.153-6.12-3.711 0-6.119 2.669-6.119 6.12 0 3.222 2.408 5.859 6.119 5.859m-4.134 74.414h8.138v-58.919h-8.138zm57.604-60.124c-9.993 0-17.188 4.916-20.671 11.198l-1.855-9.993h-6.152v58.919h8.138v-31.738c0-12.272 7.877-20.801 19.759-20.801 9.863 0 13.574 6.413 13.574 16.406v36.133h8.138v-36.003c0-15.332-7.194-24.121-20.931-24.121m90.93 1.205-1.856 9.733c-5.208-7.227-13.607-10.938-23.209-10.938-18.002 0-29.2 13.737-29.2 30.664 0 16.797 11.491 30.534 29.623 30.534 8.659 0 17.187-3.613 22.656-10.677-.13 4.395-.13 8.789-.13 13.347 0 13.053-9.343 19.335-21.322 19.335-8.821 0-15.495-3.092-21.224-8.691l-5.045 5.729c6.803 6.673 15.201 10.547 26.66 10.547 15.592 0 29.069-8.659 29.069-26.79v-62.793zm-24.252 52.376c-13.346 0-21.744-9.993-21.744-23.047 0-12.825 8.007-22.949 21.875-22.949 14.941 0 22.265 10.677 22.265 23.079s-7.584 22.917-22.396 22.917m101.202 7.617c6.12 0 11.588-2.278 15.983-5.599l-3.581-6.152c-3.743 2.669-7.487 4.004-11.621 4.004-5.176 0-8.268-2.539-8.268-9.994v-35.058h21.061v-7.194h-21.061v-19.629h-8.138v19.629h-11.459v6.64l11.459.554v35.058c0 12.142 6.022 17.741 15.625 17.741m53.05.391c18.001 0 30.664-12.793 30.664-30.925 0-18.131-12.663-30.924-30.664-30.924-17.709 0-30.404 12.793-30.404 30.924 0 18.132 12.695 30.925 30.404 30.925m0-7.585c-13.054 0-22.136-9.603-22.136-23.34 0-13.606 9.082-23.339 22.136-23.339 13.346 0 22.396 9.733 22.396 23.339 0 13.737-9.18 23.34-22.396 23.34m97.35 7.194c6.12 0 11.588-2.278 15.983-5.599l-3.581-6.152c-3.743 2.669-7.487 4.004-11.621 4.004-5.176 0-8.268-2.539-8.268-9.994v-35.058h21.061v-7.194h-21.061v-19.629h-8.138v19.629h-11.459v6.64l11.459.554v35.058c0 12.142 6.022 17.741 15.625 17.741m56.53-61.198c-9.993 0-16.797 4.916-20.41 11.849.13-3.45.13-6.25.13-9.179v-38.151h-8.138v95.605h8.138v-29.069c0-12.793 6.934-23.47 19.467-23.47 9.863 0 13.867 6.413 13.867 16.276v36.263h8.138v-36.003c0-15.071-6.804-24.121-21.192-24.121m66.67-.26c-17.481 0-29.753 13.704-29.753 30.794 0 18.262 12.533 31.055 30.404 31.055 9.342 0 16.536-3.19 22.558-8.919l-4.687-5.892c-4.525 4.687-9.733 7.226-18.001 7.226-11.068 0-20.671-7.487-22.006-20.019h47.201c.293-1.986.423-3.874.423-5.729 0-17.188-9.733-28.516-26.139-28.516m-.131 7.585c10.808 0 18.002 6.933 18.262 19.466h-39.323c1.595-11.719 10.124-19.466 21.061-19.466m103.331-7.325c-9.994 0-18.002 4.265-23.08 11.068l-1.725-9.863h-6.152v88.248h8.138v-23.209c0-5.86-.13-11.328-.261-15.853 4.948 6.673 13.216 11.068 22.95 11.068 16.927 0 29.199-12.924 29.199-31.055 0-17.611-12.272-30.404-29.069-30.404m-.684 53.841c-13.053 0-22.526-9.44-22.526-23.437 0-13.477 9.343-22.819 22.526-22.819 12.663 0 21.615 9.603 21.615 23.21 0 13.476-8.952 23.046-21.615 23.046m46.554 6.283h8.106l-.131-95.605h-8.138zm50.39-59.603c-7.454 0-15.071 1.856-23.079 5.599l2.8 6.934c6.542-3.06 13.085-4.916 19.466-4.916 9.082 0 14.941 4.134 14.941 12.37v4.004c-3.06-.391-6.38-.521-10.807-.521-17.318 0-29.46 7.585-29.46 20.801 0 10.124 7.324 16.406 18.815 16.406 10.384 0 18.002-4.687 22.266-11.751l1.465 10.677h5.989v-39.193c0-13.346-8.919-20.41-22.396-20.41m-5.989 53.06c-7.357 0-11.621-3.45-11.621-9.31 0-8.691 8.268-13.476 22.135-13.476 3.874 0 6.413.13 9.603.52-.391 13.477-8.008 22.266-20.117 22.266m77.049-53.581c-9.993 0-17.187 4.916-20.67 11.198l-1.856-9.993h-6.152v58.919h8.138v-31.738c0-12.272 7.877-20.801 19.759-20.801 9.863 0 13.574 6.413 13.574 16.406v36.133h8.138v-36.003c0-15.332-7.194-24.121-20.931-24.121" style="fill:#2f2f2f;fill-rule:nonzero"/><path d="M4375.27 265.264h666.666a82.3 82.3 0 0 1 16.244 1.595 85 85 0 0 1 15.657 4.752 83.6 83.6 0 0 1 14.388 7.683 84 84 0 0 1 12.631 10.384 84 84 0 0 1 10.384 12.63c3.027 4.557 5.599 9.342 7.682 14.388a85 85 0 0 1 4.753 15.658 82.3 82.3 0 0 1 1.595 16.243V731.93a82.3 82.3 0 0 1-1.595 16.244 85.3 85.3 0 0 1-4.753 15.657c-2.083 5.046-4.655 9.831-7.682 14.388a84.1 84.1 0 0 1-23.015 23.015c-4.557 3.027-9.342 5.599-14.388 7.682a85.3 85.3 0 0 1-15.657 4.753 82.3 82.3 0 0 1-16.244 1.595H4375.27a82.3 82.3 0 0 1-16.244-1.595 85 85 0 0 1-15.657-4.753c-5.046-2.083-9.831-4.655-14.388-7.682a84.1 84.1 0 0 1-23.015-23.015c-3.027-4.557-5.599-9.342-7.682-14.388a85 85 0 0 1-4.753-15.657 82.3 82.3 0 0 1-1.595-16.244V348.597c0-5.469.521-10.905 1.595-16.243a85 85 0 0 1 4.753-15.658c2.083-5.046 4.655-9.831 7.682-14.388a84 84 0 0 1 10.384-12.63 84 84 0 0 1 12.631-10.384 83.6 83.6 0 0 1 14.388-7.683 85 85 0 0 1 15.657-4.752 82.3 82.3 0 0 1 16.244-1.595Z" style="fill:#f9f9f9;fill-rule:nonzero;stroke:#bdbdbd;stroke-width:4.17px"/><path d="M4861.66 434.535h-17.839V344.17h21.94l26.465 69.043 26.335-69.043h21.94v90.365h-17.806v-59.766l-22.982 59.766h-15.104l-22.949-59.636zm-94.531 0h-18.457l36.783-90.365h17.676l36.914 90.365h-18.457l-8.268-20.541h-37.956zm27.213-67.123-12.5 30.957h25.033zm-96.712 69.173c-8.529 0-16.048-1.953-22.591-5.794-6.543-3.874-11.654-9.408-15.365-16.536-3.613-7.227-5.403-15.625-5.403-25.163 0-9.212 1.855-17.35 5.533-24.414 3.776-7.129 9.18-12.696 16.146-16.634 6.966-3.972 15.104-5.957 24.382-5.957 11.881 0 21.679 3.287 29.427 9.83 7.747 6.543 12.63 15.56 14.583 27.084h-18.327c-1.269-6.446-4.264-11.556-8.886-15.332-4.558-3.809-10.157-5.697-16.797-5.697-8.496 0-15.267 2.832-20.248 8.529-5.013 5.599-7.487 13.118-7.487 22.591 0 6.347 1.107 11.946 3.353 16.764 2.311 4.753 5.534 8.399 9.668 10.97 4.134 2.604 8.952 3.874 14.453 3.874 6.218 0 11.231-1.79 15.105-5.404 3.873-3.613 5.826-8.235 5.826-13.834h-25.553v-14.974h30.306c6.38 0 11.23 1.595 14.583 4.785 3.386 3.092 5.046 7.617 5.046 13.574v29.688h-15.495v-26.107h-.26c-.944 8.724-4.232 15.592-9.929 20.67-5.664 4.981-13.021 7.487-22.07 7.487m-97.949-58.268c3.088-.001 5.63-2.543 5.631-5.631v-24.61c-.001-3.089-2.543-5.63-5.631-5.631h-16.969c-2.156 0-3.93-1.774-3.93-3.93v-13.974c0-3.092-2.539-5.631-5.631-5.631h-15.43c-3.092 0-5.631 2.539-5.631 5.631v14.258c0 3.092 2.539 5.631 5.631 5.631h13.713c2.156 0 3.93 1.774 3.93 3.93v24.344c0 3.079 2.533 5.613 5.613 5.613zm-49.447-23.958c-.001-3.089-2.542-5.631-5.631-5.632h-24.642c-3.09.001-5.631 2.542-5.632 5.632v16.968c0 2.156-1.774 3.93-3.93 3.93h-13.941c-3.089.001-5.63 2.543-5.631 5.632v15.397c0 3.125 2.539 5.664 5.631 5.664h14.225c3.125 0 5.632-2.539 5.632-5.664v-13.672c0-2.181 1.79-3.939 3.939-3.939h24.349c3.092 0 5.631-2.539 5.631-5.631zm-23.958 49.414h-.019c-3.08 0-5.613 2.533-5.613 5.613v24.628c.001 3.089 2.543 5.63 5.632 5.631h16.968c2.156 0 3.93 1.774 3.93 3.93v13.974c0 3.092 2.507 5.599 5.632 5.599h15.397c3.125 0 5.631-2.507 5.631-5.599v-14.258c-.001-3.089-2.543-5.63-5.631-5.631h-13.681c-2.156 0-3.93-1.774-3.93-3.93v-24.326c-.001-3.089-2.543-5.63-5.631-5.631zm49.381 23.991c0 3.092 2.539 5.631 5.632 5.631h24.609c3.125 0 5.664-2.539 5.664-5.631v-16.969c0-2.156 1.774-3.93 3.93-3.93h13.941c3.089-.001 5.63-2.542 5.632-5.631v-15.43c-.002-3.089-2.543-5.63-5.632-5.631h-14.225c-3.089.001-5.63 2.542-5.631 5.631v13.704c0 2.181-1.791 3.939-3.939 3.939h-24.349c-3.09.001-5.631 2.542-5.632 5.632z" style="fill:#1f1f1f;fill-rule:nonzero"/><path d="M4600.5 659.632V511.13h-5.371L4475.11 672.946v5.046h105.761v45.605h19.629v-45.605h24.707v-18.36zm-19.303 0h-74.74c4.753-5.371 8.854-10.775 12.988-16.471l49.089-66.83c4.102-5.989 8.529-11.393 13.281-18.033-.618 8.561-.618 15.201-.618 22.786z" style="fill-rule:nonzero"/><path d="M4669.14 726.396c6.413 0 13.119-4.199 13.119-12.825 0-8.919-6.706-13.119-13.119-13.119-6.673 0-13.086 4.2-13.086 13.119 0 8.626 6.413 12.825 13.086 12.825m92.23-19.238c-4.72 0-12.239 0-18.392.261 3.646-4.427 8.106-10.287 11.426-14.746l40.69-53.516c18.685-25.065 24.545-37.044 24.545-54.33 0-27.604-19.239-48.209-49.61-48.209-22.298 0-38.737 11.686-51.855 28.971l13.379 10.319c9.472-13.379 21.744-22.591 38.183-22.591 20.085 0 31.771 13.932 31.771 32.617 0 12.272-5.566 23.145-18.945 40.951l-68.815 91.699v5.013h110.351v-16.439zm79.43-167.773v16.439h87.207c-2.214 5.045-4.72 10.872-7.227 17.285l-59.928 150.488h18.945l71.354-179.753v-4.459z" style="fill:#202020;fill-rule:nonzero"/><path d="M432.053 1395.39h26.595v-29.134c36.101-3.809 59.864-26.921 59.864-59.863 0-37.37-29.786-52.246-61.752-65.235-24.707-9.505-44.987-18.359-44.987-35.481 0-18.034 17.416-24.382 33.887-24.382 17.741 0 34.505 5.729 50.358 17.123l15.202-28.191c-16.471-11.393-34.212-18.066-52.572-20.28v-28.808h-26.595v28.808c-32.943 4.135-57.324 23.763-57.324 57.325 0 32.291 27.246 48.437 58.887 61.425 25.032 10.157 47.819 19.011 47.819 40.56 0 14.551-14.226 25.619-36.101 25.619-22.168 0-43.359-7.91-60.156-21.192l-18.359 26.921c18.034 14.225 39.909 23.405 65.234 25.651zm180.816-64c-5.697 0-13.607 0-20.898.325 4.427-4.752 9.179-10.774 12.662-15.495l34.213-45.93c21.191-27.865 28.157-42.448 28.157-62.696 0-31.673-23.73-57.324-61.751-57.324-28.809 0-50.033 14.258-65.853 38.314l24.707 19.01c10.449-14.258 22.461-23.437 38.314-23.437 16.764 0 26.92 11.393 26.92 27.246 0 10.742-5.078 21.191-17.74 38.607l-74.089 99.446v13.932h133.626v-31.998zm153.583 0c-5.696 0-13.606 0-20.898.325 4.427-4.752 9.18-10.774 12.663-15.495l34.212-45.93c21.191-27.865 28.158-42.448 28.158-62.696 0-31.673-23.731-57.324-61.752-57.324-28.808 0-50.032 14.258-65.853 38.314l24.707 19.01c10.45-14.258 22.461-23.437 38.314-23.437 16.765 0 26.921 11.393 26.921 27.246 0 10.742-5.078 21.191-17.741 38.607l-74.089 99.446v13.932h133.627v-31.998zm110.843 35.81c11.068 0 22.461-6.966 22.461-21.842 0-15.202-11.393-22.168-22.461-22.168-11.1 0-22.494 6.966-22.494 22.168 0 14.876 11.394 21.842 22.494 21.842m124.122-216.93c-41.797 0-69.662 28.516-69.662 69.336 0 42.448 29.134 64.941 63.314 64.941 16.797 0 31.348-4.134 42.448-14.876-6.966 37.663-34.831 62.988-83.919 66.471l4.427 31.055c82.031-6.348 116.862-58.919 116.862-132.389 0-46.224-22.494-84.538-73.47-84.538m.944 104.199c-19.011 0-34.831-11.719-34.831-35.482 0-22.168 15.202-36.1 34.831-36.1 20.898 0 35.774 14.258 35.774 35.482 0 23.112-14.551 36.1-35.774 36.1m312.546-108.009h-11.068l-65.234 99.447c-4.753 7.292-9.505 14.876-13.933 22.493-4.427-7.617-9.179-15.201-13.932-22.493l-64.909-99.447h-11.1l-31.673 216.927h36.751l16.472-116.21c.944-7.618 2.213-14.584 2.506-22.819 4.134 7.291 8.561 14.257 13.314 20.898l48.763 74.74h7.617l49.056-74.74c4.46-6.641 8.887-13.281 12.695-20.247.619 7.291 1.563 14.257 2.507 21.842l17.122 116.536h36.719zm-791.812 335.72h-3.613l-32.097 68.197v.195h12.403l5.598-12.304h31.804l5.599 12.304h12.305v-.293zm-1.791 18.978c1.595 4.427 2.995 8.008 4.59 11.621l7.39 16.179h-23.991l7.389-16.179c1.628-3.71 3.027-7.194 4.622-11.621m82.079 13.802c4.916-3.092 8.106-8.072 8.106-14.583 0-10.612-8.594-17.806-20.508-17.806h-27.083v68.001h29.004c12.5 0 21.289-7.487 21.289-18.815 0-7.78-4.297-13.899-10.808-16.797m-27.799-22.688h13.411c6.315 0 10.612 3.385 10.612 9.017 0 5.989-3.711 9.472-10.416 9.472h-13.607zm15.397 48.6h-15.397v-20.508h15.82c6.478 0 10.905 4.004 10.905 10.221 0 6.381-4.622 10.287-11.328 10.287m67.722 11.008c20.997 0 35.385-15.495 35.385-35.417 0-20.378-14.388-35.189-35.385-35.189-20.8 0-35.416 14.811-35.416 35.189 0 19.922 14.616 35.417 35.416 35.417m0-10.71c-14.192 0-23.307-11.003-23.307-24.707 0-14.095 9.115-24.479 23.307-24.479 14.291 0 23.405 10.384 23.405 24.479 0 13.704-9.114 24.707-23.405 24.707m92.591-58.6-17.09 37.598c-1.302 2.702-2.702 6.217-3.906 9.505-1.01-2.995-2.214-5.794-3.809-9.31l-17.285-37.793h-12.891v.195l32.194 68.197h3.581l32.194-68.197v-.195zm33.788 57.62v-19.108h27.116v-10.123h-27.116v-17.969h31.022v-10.417h-42.806v68.001h43.685v-10.384zm129.706-58.1h-3.483l-20.605 31.38q-2.272 3.501-4.395 7.096a199 199 0 0 0-4.394-7.096l-20.508-31.38h-3.516l-9.993 68.489h11.588l5.209-36.686c.293-2.409.716-4.622.814-7.226a71 71 0 0 0 4.199 6.608l15.397 23.6h2.409l15.495-23.6c1.399-2.084 2.799-4.199 4.003-6.38.196 2.278.489 4.492.782 6.901l5.403 36.783h11.589zm49.607.09h-3.613l-32.097 68.197v.195h12.403l5.599-12.304h31.803l5.599 12.304h12.305v-.293zm-1.79 18.978c1.595 4.427 2.994 8.008 4.59 11.621l7.389 16.179h-23.991l7.389-16.179a176 176 0 0 0 4.623-11.621m76.702 22.302c9.701-2.8 15.691-10.189 15.691-19.694 0-12.077-9.603-21.192-23.112-21.192h-26.693v68.001h11.784v-25.813h10.319l15.983 25.813h13.411v-.293zm-22.33-8.497v-22.2h13.9c7.324 0 12.207 4.818 12.207 11.198 0 6.706-4.59 11.002-12.403 11.002zm73.51 1.307 26.823-33.399v-.293h-13.411l-24.414 30.501v-30.501h-11.784v68.001h11.784v-30.403l26.009 30.403h13.9v-.39zm49.6 23.92v-19.108h27.116v-10.123h-27.116v-17.969h31.022v-10.417h-42.806v68.001h43.685v-10.384zm88.22-57.62h-50.326v10.905h19.304v57.096h11.816v-57.096h19.206z" style="fill:#ab010c;fill-rule:nonzero"/><path d="M1715.96 1339.08c33.138 0 60.449-19.825 60.449-57.162v-104.297h-15.397v104.069c0 29.167-18.685 43.392-45.052 43.392-26.823 0-45.475-14.225-45.475-43.392v-104.069h-15.43v104.297c0 37.337 27.311 57.162 60.905 57.162m147.93-108.04c-17.481 0-30.078 8.627-36.166 19.597l-3.255-17.481h-10.742v103.125h14.225v-55.534c0-21.452 13.77-36.393 34.538-36.393 17.285 0 23.796 11.198 23.796 28.678v63.249h14.257v-62.988c0-26.856-12.597-42.253-36.653-42.253m79.09 105.24h14.258v-90.527h33.822v-12.598h-33.822V1203.5c0-15.853 8.171-24.023 20.768-24.023 7.455 0 12.598 2.116 18.425 6.054l6.543-10.253c-7.943-5.827-15.658-9.083-26.595-9.083-22.884 0-33.399 17.025-33.399 37.305v29.655h-21.451v12.598h21.451zm101.98-104.29c-13.054 0-26.367 3.255-40.365 9.798l4.916 12.142c11.425-5.371 22.851-8.658 34.049-8.658 15.886 0 26.139 7.259 26.139 21.712v6.998c-5.371-.683-11.198-.944-18.912-.944-30.306 0-51.563 13.314-51.563 36.426 0 17.709 12.826 28.679 32.91 28.679 18.197 0 31.511-8.171 38.965-20.508l2.572 18.652h10.482V1267.7c0-23.34-15.625-35.71-39.193-35.71m-10.482 92.871c-12.858 0-20.312-6.087-20.312-16.341 0-15.169 14.453-23.568 38.737-23.568 6.77 0 11.197.228 16.796.945-.716 23.567-13.997 38.964-35.221 38.964m151.412-91.701-29.622 66.016c-2.116 4.687-3.972 9.342-5.599 14.713-1.628-5.371-3.516-10.026-5.599-14.713l-29.883-66.016h-15.397v.456l48.307 103.841h5.143l48.047-103.841v-.456zm78.64 105.7c31.511 0 53.679-22.396 53.679-54.134 0-31.739-22.168-54.134-53.679-54.134-31.022 0-53.19 22.395-53.19 54.134 0 31.738 22.168 54.134 53.19 54.134m0-13.314c-22.851 0-38.736-16.797-38.736-40.82 0-23.796 15.885-40.853 38.736-40.853 23.34 0 39.193 17.057 39.193 40.853 0 24.023-16.081 40.82-39.193 40.82m126.25-94.506c-14.485 0-24.283 6.543-30.11 17.285l-2.8-15.169h-10.742v103.125h14.225v-59.733c0-20.052 11.459-31.966 28.256-31.966 5.826 0 9.798 1.172 13.769 2.572l4.199-12.598c-4.687-2.116-10.286-3.516-16.797-3.516m72.08.95c-13.053 0-26.367 3.255-40.365 9.798l4.916 12.142c11.425-5.371 22.851-8.658 34.049-8.658 15.886 0 26.139 7.259 26.139 21.712v6.998c-5.371-.683-11.197-.944-18.912-.944-30.306 0-51.563 13.314-51.563 36.426 0 17.709 12.826 28.679 32.91 28.679 18.197 0 31.511-8.171 38.965-20.508l2.572 18.652h10.482V1267.7c0-23.34-15.625-35.71-39.193-35.71m-10.482 92.871c-12.858 0-20.312-6.087-20.312-16.341 0-15.169 14.453-23.568 38.737-23.568 6.77 0 11.198.228 16.796.945-.716 23.567-13.997 38.964-35.221 38.964m138.362-93.821c-16.797 0-31.511 7.487-39.909 20.085.228-9.115.456-18.685.456-28.483v-53.646h-14.226v167.285h10.971l2.115-17.969c8.627 12.598 23.08 20.313 40.593 20.313 30.566 0 51.79-22.884 51.79-54.362 0-30.567-21.452-53.223-51.79-53.223m-.944 94.043c-23.796 0-39.193-17.025-39.193-40.364 0-23.34 15.853-40.365 39.193-40.365 22.884 0 38.509 16.797 38.509 40.365 0 23.567-15.625 40.364-38.509 40.364m81.894 11.197h14.258l-.26-167.285h-14.225zm95.2-105.69c-30.566 0-52.018 24.023-52.018 53.906 0 31.966 21.94 54.362 53.19 54.362 16.341 0 28.939-5.599 39.42-15.625l-8.138-10.287c-7.942 8.171-17.057 12.598-31.51 12.598-19.368 0-36.165-13.053-38.509-34.994h82.617c.456-3.483.684-6.77.684-10.026 0-30.11-17.025-49.934-45.736-49.934m-.228 13.281c18.913 0 31.511 12.142 31.966 34.082h-68.847c2.799-20.541 17.741-34.082 36.881-34.082m131.848 92.409h15.397v-63.704h42.22c34.993 0 50.879-24.512 50.879-46.647 0-22.429-16.797-48.308-49.935-48.308h-58.561zm15.397-77.702v-66.959h42.936c20.996 0 34.766 15.853 34.766 34.049 0 16.569-11.426 32.91-35.71 32.91zm158.673-27.538c-14.486 0-24.284 6.543-30.111 17.285l-2.8-15.169h-10.742v103.125h14.226v-59.733c0-20.052 11.458-31.966 28.255-31.966 5.827 0 9.798 1.172 13.769 2.572l4.2-12.598c-4.688-2.116-10.287-3.516-16.797-3.516m78.39 107.82c31.51 0 53.678-22.396 53.678-54.134 0-31.739-22.168-54.134-53.678-54.134-31.022 0-53.19 22.395-53.19 54.134 0 31.738 22.168 54.134 53.19 54.134m0-13.314c-22.852 0-38.737-16.797-38.737-40.82 0-23.796 15.885-40.853 38.737-40.853 23.34 0 39.193 17.057 39.193 40.853 0 24.023-16.081 40.82-39.193 40.82m149.55-92.386-29.623 66.016c-2.116 4.687-3.971 9.342-5.599 14.713-1.627-5.371-3.515-10.026-5.599-14.713l-29.883-66.016h-15.397v.456l48.308 103.841h5.143l48.047-103.841v-.456zm44.34-27.08c6.315 0 10.742-4.427 10.742-10.254 0-6.087-4.199-10.742-10.742-10.742-6.51 0-10.71 4.655-10.71 10.742 0 5.599 4.2 10.254 10.71 10.254m-7.227 130.208h14.226v-103.125h-14.226zM3472.02 1169v53.646c0 9.798.261 19.14.489 27.995-8.399-12.11-23.112-19.597-39.909-19.597-30.339 0-51.791 22.656-51.791 53.223 0 31.478 21.224 54.362 51.791 54.362 17.968 0 32.194-7.943 40.592-20.768l2.116 18.424h10.97V1169zm-38.476 156.087c-22.884 0-38.509-16.797-38.509-40.364 0-23.568 15.625-40.365 38.509-40.365 23.307 0 38.965 17.025 38.965 40.365 0 23.339-15.17 40.364-38.965 40.364m133.686-94.497c-30.567 0-52.019 24.023-52.019 53.906 0 31.966 21.94 54.362 53.19 54.362 16.342 0 28.939-5.599 39.421-15.625l-8.138-10.287c-7.943 8.171-17.057 12.598-31.51 12.598-19.369 0-36.166-13.053-38.51-34.994h82.618c.455-3.483.683-6.77.683-10.026 0-30.11-17.024-49.934-45.735-49.934m-.228 13.281c18.912 0 31.51 12.142 31.966 34.082h-68.848c2.8-20.541 17.741-34.082 36.882-34.082m117.148-12.831c-14.485 0-24.283 6.543-30.11 17.285l-2.8-15.169h-10.742v103.125h14.225v-59.733c0-20.052 11.459-31.966 28.256-31.966 5.826 0 9.798 1.172 13.769 2.572l4.199-12.598c-4.687-2.116-10.286-3.516-16.797-3.516m66.01 107.1c20.313 0 34.994-11.654 34.994-28.907 0-17.285-14.225-25.455-32.878-32.454-12.142-4.655-21.712-9.343-21.712-18.652 0-9.571 9.342-13.086 19.824-13.086 8.399 0 16.83 2.343 24.284 6.543l6.283-10.254c-9.31-6.088-20.052-9.343-31.25-9.343-17.513 0-33.366 8.854-33.366 26.14 0 16.569 13.997 24.479 30.794 31.022 12.37 4.915 23.796 10.026 23.796 20.084 0 9.31-8.171 15.625-20.769 15.625-11.425 0-21.224-2.799-30.338-9.342l-7.227 11.198c10.97 7.454 23.112 11.426 37.565 11.426" style="fill-rule:nonzero"/><path d="m1739.87 1477.13-12.142 35.189c-.944 2.539-1.595 4.915-2.409 7.715a51.5 51.5 0 0 0-3.06-7.455l-14.648-32.259h-2.018l-14.779 32.39c-1.074 2.408-2.018 4.524-2.962 7.324-.782-2.93-1.465-5.046-2.246-7.585l-12.273-35.319h-8.268v.261l20.671 59.309h2.409l18.522-40.787 18.261 40.787h2.54l20.67-59.309v-.261zm25.58-15.49c3.613 0 6.152-2.506 6.152-5.859 0-3.451-2.409-6.12-6.152-6.12-3.711 0-6.12 2.669-6.12 6.12 0 3.223 2.409 5.859 6.12 5.859m-4.135 74.414h8.138v-58.919h-8.138zm48.695 1.076c6.12 0 11.588-2.279 15.983-5.599l-3.581-6.153c-3.743 2.67-7.487 4.004-11.621 4.004-5.176 0-8.268-2.539-8.268-9.993v-35.059h21.061v-7.194h-21.061v-19.629h-8.138v19.629h-11.458v6.641l11.458.553v35.059c0 12.142 6.022 17.741 15.625 17.741m56.52-61.2c-9.993 0-16.796 4.915-20.41 11.849.131-3.451.131-6.25.131-9.18v-38.151h-8.139v95.605h8.139v-29.069c0-12.793 6.933-23.47 19.466-23.47 9.863 0 13.867 6.413 13.867 16.276v36.263h8.138v-36.002c0-15.072-6.804-24.121-21.192-24.121m100.27 0c-9.994 0-17.188 4.915-20.671 11.198l-1.855-9.994h-6.153v58.919h8.139v-31.738c0-12.272 7.877-20.801 19.759-20.801 9.863 0 13.574 6.413 13.574 16.407v36.132h8.138v-36.002c0-15.332-7.194-24.121-20.931-24.121m66.41-.26c-17.481 0-29.753 13.705-29.753 30.795 0 18.261 12.533 31.054 30.404 31.054 9.342 0 16.536-3.19 22.558-8.919l-4.687-5.892c-4.525 4.688-9.733 7.227-18.001 7.227-11.068 0-20.671-7.487-22.006-20.02h47.201c.293-1.986.423-3.874.423-5.729 0-17.188-9.733-28.516-26.139-28.516m-.13 7.585c10.807 0 18.001 6.933 18.261 19.466h-39.323c1.595-11.719 10.124-19.466 21.062-19.466m60.93 53.875c6.12 0 11.589-2.279 15.983-5.599l-3.581-6.153c-3.743 2.67-7.487 4.004-11.621 4.004-5.175 0-8.268-2.539-8.268-9.993v-35.059h21.061v-7.194h-21.061v-19.629h-8.138v19.629h-11.458v6.641l11.458.553v35.059c0 12.142 6.022 17.741 15.625 17.741m98.77-60v29.33c0 12.532-6.934 23.046-18.653 23.046-10.547 0-14.258-6.803-14.258-16.406v-35.97h-8.138v35.84c0 14.421 6.804 24.154 21.452 24.154 9.733 0 16.406-5.079 19.889-11.329l1.596 10.254h6.25v-58.919zm57.62-1.2c-9.994 0-17.188 4.915-20.671 11.198l-1.855-9.994h-6.152v58.919h8.138v-31.738c0-12.272 7.877-20.801 19.759-20.801 9.863 0 13.574 6.413 13.574 16.407v36.132h8.138v-36.002c0-15.332-7.194-24.121-20.931-24.121m45.21 60.12h8.105v-51.725h19.336v-7.194h-19.336v-16.96c0-9.049 4.687-13.737 11.881-13.737 4.265 0 7.195 1.205 10.547 3.484l3.711-5.86c-4.524-3.353-8.919-5.208-15.202-5.208-13.053 0-19.042 9.733-19.042 21.321v16.96h-12.273v7.194h12.273zm58.26-59.6c-7.455 0-15.072 1.855-23.08 5.598l2.8 6.934c6.543-3.06 13.086-4.915 19.466-4.915 9.082 0 14.941 4.134 14.941 12.369v4.004c-3.06-.39-6.38-.52-10.807-.52-17.318 0-29.46 7.584-29.46 20.8 0 10.124 7.325 16.407 18.815 16.407 10.385 0 18.002-4.688 22.266-11.752l1.465 10.677h5.989v-39.192c0-13.347-8.919-20.41-22.395-20.41m-5.99 53.059c-7.357 0-11.621-3.45-11.621-9.309 0-8.692 8.268-13.477 22.135-13.477 3.874 0 6.413.13 9.603.521-.39 13.476-8.008 22.265-20.117 22.265m86.53-52.379-16.927 37.728c-1.205 2.669-2.279 5.339-3.223 8.398-.911-3.059-1.986-5.729-3.19-8.398l-17.057-37.728h-8.822v.261l27.604 59.309h2.93l27.474-59.309v-.261zm44.91 60.38c18.001 0 30.664-12.793 30.664-30.924 0-18.132-12.663-30.925-30.664-30.925-17.709 0-30.404 12.793-30.404 30.925 0 18.131 12.695 30.924 30.404 30.924m0-7.584c-13.054 0-22.136-9.603-22.136-23.34 0-13.607 9.082-23.34 22.136-23.34 13.346 0 22.395 9.733 22.395 23.34 0 13.737-9.179 23.34-22.395 23.34m72.13-53.996c-8.269 0-13.868 3.711-17.188 9.863l-1.595-8.659h-6.152v58.919h8.138v-34.147c0-11.458 6.543-18.261 16.145-18.261 3.321 0 5.599.683 7.878 1.464l2.376-7.194c-2.669-1.204-5.859-1.985-9.602-1.985m41.22.52c-7.455 0-15.072 1.855-23.08 5.598l2.8 6.934c6.543-3.06 13.086-4.915 19.466-4.915 9.082 0 14.941 4.134 14.941 12.369v4.004c-3.06-.39-6.38-.52-10.807-.52-17.318 0-29.46 7.584-29.46 20.8 0 10.124 7.325 16.407 18.815 16.407 10.385 0 18.002-4.688 22.266-11.752l1.465 10.677h5.99v-39.192c0-13.347-8.92-20.41-22.396-20.41m-5.99 53.059c-7.357 0-11.621-3.45-11.621-9.309 0-8.692 8.268-13.477 22.135-13.477 3.874 0 6.413.13 9.603.521-.39 13.476-8.008 22.265-20.117 22.265m79.07-53.579c-9.603 0-18.002 4.264-22.819 11.458.13-5.208.26-10.677.26-16.276v-30.664h-8.138v95.605h6.283l1.204-10.254c4.915 7.194 13.184 11.589 23.21 11.589 17.448 0 29.589-13.053 29.589-31.055 0-17.48-12.272-30.403-29.589-30.403m-.554 53.711c-13.607 0-22.396-9.733-22.396-23.047 0-13.347 9.082-23.08 22.396-23.08 13.086 0 22.005 9.603 22.005 23.08 0 13.444-8.919 23.047-22.005 23.047m46.814 6.409h8.105l-.13-95.605h-8.138zm54.4-60.38c-17.48 0-29.753 13.705-29.753 30.795 0 18.261 12.533 31.054 30.404 31.054 9.343 0 16.537-3.19 22.559-8.919l-4.688-5.892c-4.525 4.688-9.733 7.227-18.001 7.227-11.068 0-20.671-7.487-22.005-20.02h47.2c.293-1.986.423-3.874.423-5.729 0-17.188-9.733-28.516-26.139-28.516m-.13 7.585c10.807 0 18.001 6.933 18.262 19.466h-39.323c1.595-11.719 10.123-19.466 21.061-19.466m103.33-7.325c-9.993 0-18.001 4.264-23.079 11.067l-1.726-9.863h-6.152v88.249h8.138v-23.21c0-5.859-.13-11.328-.26-15.853 4.948 6.673 13.216 11.068 22.949 11.068 16.927 0 29.199-12.923 29.199-31.055 0-17.61-12.272-30.403-29.069-30.403m-.684 53.841c-13.053 0-22.526-9.44-22.526-23.438 0-13.476 9.343-22.819 22.526-22.819 12.663 0 21.615 9.603 21.615 23.21 0 13.477-8.952 23.047-21.615 23.047m71.324-53.841c-8.269 0-13.868 3.711-17.188 9.863l-1.595-8.659h-6.152v58.919h8.138v-34.147c0-11.458 6.543-18.261 16.146-18.261 3.32 0 5.598.683 7.877 1.464l2.376-7.194c-2.669-1.204-5.859-1.985-9.602-1.985m25.87-14.29c3.613 0 6.152-2.506 6.152-5.859 0-3.451-2.409-6.12-6.152-6.12-3.711 0-6.12 2.669-6.12 6.12 0 3.223 2.409 5.859 6.12 5.859m-4.135 74.414h8.138v-58.919h-8.138zm54.025 1.456c10.254 0 16.667-3.06 22.787-8.789l-4.525-5.892c-4.818 4.558-9.603 7.097-17.611 7.097-12.272 0-21.744-9.343-21.744-23.47 0-13.868 9.603-23.08 21.875-23.08 6.933 0 11.588 1.856 16.406 5.99l4.655-5.599c-5.99-5.306-12.533-7.976-21.061-7.976-15.983 0-30.144 11.198-30.144 30.665 0 20.247 14.681 31.054 29.362 31.054m40.37-75.87c3.613 0 6.153-2.506 6.153-5.859 0-3.451-2.409-6.12-6.153-6.12-3.711 0-6.12 2.669-6.12 6.12 0 3.223 2.409 5.859 6.12 5.859m-4.134 74.414h8.138v-58.919h-8.138zm57.614-60.124c-9.994 0-17.188 4.915-20.671 11.198l-1.855-9.994h-6.153v58.919h8.138v-31.738c0-12.272 7.878-20.801 19.76-20.801 9.863 0 13.574 6.413 13.574 16.407v36.132h8.138v-36.002c0-15.332-7.194-24.121-20.931-24.121m90.92 1.2-1.855 9.733c-5.208-7.226-13.607-10.937-23.21-10.937-18.001 0-29.199 13.737-29.199 30.664 0 16.797 11.491 30.534 29.623 30.534 8.658 0 17.187-3.614 22.656-10.677-.13 4.394-.13 8.789-.13 13.346 0 13.053-9.343 19.336-21.322 19.336-8.822 0-15.495-3.093-21.224-8.692l-5.046 5.73c6.804 6.673 15.202 10.546 26.661 10.546 15.592 0 29.069-8.658 29.069-26.79v-62.793zm-24.251 52.376c-13.346 0-21.745-9.993-21.745-23.046 0-12.826 8.008-22.95 21.875-22.95 14.942 0 22.266 10.677 22.266 23.08s-7.585 22.916-22.396 22.916m101.211 7.624c6.119 0 11.588-2.279 15.983-5.599l-3.581-6.153c-3.744 2.67-7.487 4.004-11.621 4.004-5.176 0-8.268-2.539-8.268-9.993v-35.059h21.061v-7.194h-21.061v-19.629h-8.138v19.629h-11.459v6.641l11.459.553v35.059c0 12.142 6.022 17.741 15.625 17.741m53.05.38c18.002 0 30.665-12.793 30.665-30.924 0-18.132-12.663-30.925-30.665-30.925-17.708 0-30.403 12.793-30.403 30.925 0 18.131 12.695 30.924 30.403 30.924m0-7.584c-13.053 0-22.135-9.603-22.135-23.34 0-13.607 9.082-23.34 22.135-23.34 13.347 0 22.396 9.733 22.396 23.34 0 13.737-9.179 23.34-22.396 23.34m97.35 7.204c6.119 0 11.588-2.279 15.983-5.599l-3.581-6.153c-3.744 2.67-7.487 4.004-11.621 4.004-5.176 0-8.268-2.539-8.268-9.993v-35.059h21.061v-7.194h-21.061v-19.629h-8.138v19.629h-11.459v6.641l11.459.553v35.059c0 12.142 6.022 17.741 15.625 17.741m56.53-61.2c-9.993 0-16.797 4.915-20.41 11.849.13-3.451.13-6.25.13-9.18v-38.151h-8.138v95.605h8.138v-29.069c0-12.793 6.934-23.47 19.466-23.47 9.864 0 13.868 6.413 13.868 16.276v36.263h8.138v-36.002c0-15.072-6.804-24.121-21.192-24.121m66.67-.26c-17.48 0-29.752 13.705-29.752 30.795 0 18.261 12.532 31.054 30.404 31.054 9.342 0 16.536-3.19 22.558-8.919l-4.687-5.892c-4.525 4.688-9.733 7.227-18.002 7.227-11.067 0-20.67-7.487-22.005-20.02h47.201c.293-1.986.423-3.874.423-5.729 0-17.188-9.733-28.516-26.14-28.516m-.13 7.585c10.808 0 18.002 6.933 18.262 19.466h-39.323c1.595-11.719 10.124-19.466 21.061-19.466m103.33-7.325c-9.994 0-18.002 4.264-23.08 11.067l-1.725-9.863h-6.152v88.249h8.138v-23.21c0-5.859-.131-11.328-.261-15.853 4.948 6.673 13.216 11.068 22.949 11.068 16.927 0 29.2-12.923 29.2-31.055 0-17.61-12.273-30.403-29.069-30.403m-.684 53.841c-13.053 0-22.526-9.44-22.526-23.438 0-13.476 9.342-22.819 22.526-22.819 12.663 0 21.615 9.603 21.615 23.21 0 13.477-8.952 23.047-21.615 23.047m46.554 6.279h8.105l-.13-95.605h-8.138zm50.39-59.6c-7.454 0-15.071 1.855-23.079 5.598l2.799 6.934c6.543-3.06 13.086-4.915 19.466-4.915 9.082 0 14.942 4.134 14.942 12.369v4.004c-3.06-.39-6.38-.52-10.807-.52-17.318 0-29.46 7.584-29.46 20.8 0 10.124 7.324 16.407 18.815 16.407 10.384 0 18.001-4.688 22.266-11.752l1.465 10.677h5.989v-39.192c0-13.347-8.919-20.41-22.396-20.41m-5.989 53.059c-7.357 0-11.621-3.45-11.621-9.309 0-8.692 8.268-13.477 22.135-13.477 3.874 0 6.413.13 9.603.521-.391 13.476-8.008 22.265-20.117 22.265m77.049-53.579c-9.993 0-17.187 4.915-20.671 11.198l-1.855-9.994h-6.152v58.919h8.138v-31.738c0-12.272 7.877-20.801 19.759-20.801 9.863 0 13.574 6.413 13.574 16.407v36.132h8.138v-36.002c0-15.332-7.194-24.121-20.931-24.121" style="fill:#2f2f2f;fill-rule:nonzero"/><path d="M4375.27 1048.6h666.666a82.3 82.3 0 0 1 16.244 1.595 85 85 0 0 1 15.657 4.753c5.046 2.083 9.831 4.655 14.388 7.682a84.2 84.2 0 0 1 23.015 23.014c3.027 4.558 5.599 9.343 7.682 14.388a85 85 0 0 1 4.753 15.658 82.3 82.3 0 0 1 1.595 16.243v383.334a82.3 82.3 0 0 1-1.595 16.243 85.3 85.3 0 0 1-4.753 15.658c-2.083 5.045-4.655 9.83-7.682 14.388a84.1 84.1 0 0 1-23.015 23.014c-4.557 3.027-9.342 5.599-14.388 7.682a85 85 0 0 1-15.657 4.753 82.3 82.3 0 0 1-16.244 1.595H4375.27a82.3 82.3 0 0 1-16.244-1.595 85 85 0 0 1-15.657-4.753c-5.046-2.083-9.831-4.655-14.388-7.682a84.1 84.1 0 0 1-23.015-23.014c-3.027-4.558-5.599-9.343-7.682-14.388a85 85 0 0 1-4.753-15.658 82.3 82.3 0 0 1-1.595-16.243v-383.334a82.3 82.3 0 0 1 1.595-16.243 85 85 0 0 1 4.753-15.658c2.083-5.045 4.655-9.83 7.682-14.388a84.1 84.1 0 0 1 23.015-23.014c4.557-3.027 9.342-5.599 14.388-7.682a85 85 0 0 1 15.657-4.753 82.3 82.3 0 0 1 16.244-1.595Z" style="fill:#f9f9f9;fill-rule:nonzero;stroke:#bdbdbd;stroke-width:4.17px"/><path d="M4847.86 1217.87h-17.806v-90.365h21.94l26.465 69.043 26.334-69.043h21.941v90.365h-17.839v-59.766l-22.949 59.766h-15.104l-22.982-59.636zm-94.531 0h-18.457l36.783-90.365h17.676l36.914 90.365h-18.457l-8.268-20.541h-37.923zm27.213-67.123-12.5 30.957h25.033zm-96.712 69.174c-8.496 0-16.048-1.954-22.591-5.795-6.511-3.873-11.654-9.407-15.332-16.536-3.646-7.227-5.437-15.625-5.437-25.163 0-9.212 1.856-17.35 5.534-24.414 3.809-7.129 9.18-12.695 16.146-16.634 6.966-3.971 15.104-5.957 24.382-5.957 11.881 0 21.712 3.288 29.459 9.831 7.748 6.543 12.598 15.56 14.584 27.083h-18.327c-1.302-6.445-4.264-11.556-8.919-15.332-4.558-3.809-10.157-5.697-16.797-5.697-8.496 0-15.267 2.832-20.248 8.529-4.98 5.599-7.487 13.118-7.487 22.591 0 6.348 1.107 11.947 3.353 16.764 2.344 4.753 5.567 8.399 9.701 10.971 4.101 2.604 8.919 3.873 14.453 3.873 6.185 0 11.23-1.79 15.071-5.403 3.907-3.614 5.827-8.236 5.827-13.835h-25.553v-14.974h30.338c6.348 0 11.231 1.595 14.584 4.785 3.353 3.093 5.013 7.617 5.013 13.574v29.688h-15.462v-26.107h-.261c-.944 8.724-4.264 15.593-9.961 20.671-5.664 4.98-13.021 7.487-22.07 7.487m-97.949-58.269h.021c3.077 0 5.61-2.533 5.61-5.61v-24.649c0-3.08-2.534-5.613-5.613-5.613h-16.987c-2.156 0-3.93-1.774-3.93-3.93v-13.974c-.001-3.089-2.543-5.63-5.631-5.631h-15.43c-3.092 0-5.599 2.539-5.599 5.631v14.258c0 3.093 2.507 5.632 5.599 5.632h13.713c2.156 0 3.93 1.774 3.93 3.93v24.325c.001 3.089 2.543 5.63 5.632 5.631zm-49.447-23.958v-.021c0-3.078-2.533-5.61-5.61-5.61h-24.652c-3.078 0-5.61 2.532-5.61 5.61v16.981c0 2.181-1.791 3.938-3.939 3.938h-13.965c-3.089.001-5.631 2.543-5.632 5.632v15.397c0 3.125 2.54 5.664 5.632 5.664h14.258c3.092 0 5.631-2.539 5.631-5.664v-13.681c0-2.156 1.774-3.93 3.93-3.93h24.326c3.088-.001 5.63-2.543 5.631-5.631zm-23.958 49.414h-.019c-3.08 0-5.613 2.533-5.613 5.613v24.628c.001 3.089 2.543 5.63 5.632 5.632h16.968c2.156 0 3.93 1.774 3.93 3.93v13.973c0 3.093 2.539 5.599 5.632 5.599h15.429c3.093 0 5.632-2.506 5.632-5.599v-14.258c0-3.092-2.539-5.631-5.632-5.631h-13.713c-2.156 0-3.93-1.774-3.93-3.93v-24.325c-.001-3.089-2.542-5.631-5.631-5.632zm49.414 23.991c0 3.092 2.506 5.632 5.599 5.632h24.642c3.092 0 5.631-2.54 5.631-5.632v-16.968c0-2.156 1.774-3.93 3.93-3.93h13.941c3.089-.001 5.631-2.543 5.632-5.632v-15.43c-.002-3.089-2.543-5.63-5.632-5.631h-14.225c-3.089.001-5.631 2.542-5.632 5.631v13.714c0 2.156-1.774 3.93-3.93 3.93h-24.357c-3.093 0-5.599 2.506-5.599 5.631z" style="fill:#1f1f1f;fill-rule:nonzero"/><path d="M4586.7 1442.97v-148.502h-5.371l-120.019 161.816v5.046h105.761v45.605h19.629v-45.605h24.707v-18.36zm-19.303 0h-74.74c4.753-5.371 8.854-10.774 12.989-16.471l49.088-66.829c4.102-5.99 8.529-11.394 13.281-18.034-.618 8.561-.618 15.202-.618 22.786z" style="fill-rule:nonzero"/><path d="M4655.34 1509.73c6.413 0 13.119-4.199 13.119-12.826 0-8.919-6.706-13.118-13.119-13.118-6.673 0-13.086 4.199-13.086 13.118 0 8.627 6.413 12.826 13.086 12.826m100.89 0c40.104 0 64.909-23.698 64.909-54.362 0-19.206-10.84-39.844-36.784-47.07 18.946-8.366 27.604-25.944 27.604-41.537 0-26.465-21.191-46.81-53.515-46.81-22.559 0-39.844 10.026-52.67 25.065l11.166 10.612c10.579-10.612 23.405-18.978 40.95-18.978 21.745 0 35.384 13.672 35.384 31.511 0 15.885-11.686 32.877-38.736 32.877h-21.159v16.732h23.665c22.038 0 45.703 8.919 45.703 36.491 0 22.005-17.838 38.444-46.517 38.444-17.838 0-32.064-8.626-43.489-22.005l-12.793 10.319c12.793 17.545 33.431 28.711 56.282 28.711m140.46-115.65c-6.966 0-13.932.847-21.191 2.214l7.519-57.129h70.215v-16.439h-84.993l-11.687 89.453 3.06 3.093c9.213-3.353 20.638-5.599 32.617-5.599 24.805 0 49.024 10.058 49.024 40.983 0 25.358-18.392 42.35-42.904 42.35-18.685 0-32.877-6.966-42.09-19.792l-12.239 11.166c11.979 16.146 30.371 25.618 53.223 25.618 35.384 0 62.141-23.958 62.141-59.342 0-36.231-27.05-56.576-62.695-56.576" style="fill:#202020;fill-rule:nonzero"/><path d="M108.597 2540.27v-641.667c0-8.203.814-16.341 2.409-24.382a126 126 0 0 1 7.096-23.47c3.158-7.552 6.999-14.778 11.556-21.582a122.3 122.3 0 0 1 15.56-18.945 122.3 122.3 0 0 1 18.945-15.56c6.804-4.557 14.03-8.398 21.582-11.556a126 126 0 0 1 23.47-7.096 125 125 0 0 1 24.382-2.409h4875c8.203 0 16.341.814 24.382 2.409a125 125 0 0 1 23.437 7.096c7.585 3.158 14.811 6.999 21.615 11.556a122.3 122.3 0 0 1 18.945 15.56 122.3 122.3 0 0 1 15.56 18.945c4.557 6.804 8.398 14.03 11.556 21.582a126 126 0 0 1 7.096 23.47 125 125 0 0 1 2.409 24.382v641.667c0 8.203-.814 16.341-2.409 24.381a125 125 0 0 1-7.096 23.438c-3.158 7.584-6.999 14.811-11.556 21.614a122.4 122.4 0 0 1-15.56 18.946 122.4 122.4 0 0 1-18.945 15.559c-6.804 4.558-14.03 8.399-21.615 11.556a125 125 0 0 1-23.437 7.097 125 125 0 0 1-24.382 2.409h-4875a125.9 125.9 0 0 1-47.852-9.506c-7.552-3.157-14.778-6.998-21.582-11.556a122.4 122.4 0 0 1-18.945-15.559 122.4 122.4 0 0 1-15.56-18.946c-4.557-6.803-8.398-14.03-11.556-21.582a126 126 0 0 1-7.096-23.47 125 125 0 0 1-2.409-24.381Z" style="fill:#f6f6f6;fill-rule:nonzero;stroke:#bdbdbd;stroke-width:4.17px"/><path d="M619.028 2091.5c-7.096 0-13.769.423-21.256 1.269l7.91-60.84h98.763v-42.09H566.522l-16.244 140.853 7.487 4.981c12.5-4.59 27.507-7.487 45.02-7.487 34.147 0 62.077 13.737 62.077 49.153 0 30.014-21.257 49.187-53.353 49.187-24.577 0-44.141-10.026-57.064-25l-24.577 33.724c20.834 22.526 49.154 35.416 83.724 35.416 59.18 0 100.423-37.5 100.423-92.057 0-55.013-39.16-87.109-94.987-87.109m215.398-106.64c-54.981 0-91.667 37.5-91.667 91.244 0 55.826 38.346 85.416 83.333 85.416 22.103 0 41.276-5.436 55.86-19.596-9.18 49.577-45.834 82.91-110.417 87.5l5.827 40.853c107.91-8.334 153.743-77.507 153.743-174.187 0-60.839-29.59-111.23-96.679-111.23m1.269 137.077c-25 0-45.833-15.43-45.833-46.68 0-29.167 19.987-47.493 45.833-47.493 27.507 0 47.07 18.75 47.07 46.679 0 30.404-19.173 47.494-47.07 47.494m173.792 21.423c32.292 0 49.414-24.088 49.414-48.763 0-24.381-17.122-48.47-49.414-48.47-32.617 0-49.381 24.089-49.381 48.47 0 24.675 16.764 48.763 49.381 48.763m-13.281 121.908h30.078l123.796-215.332h-29.753zm13.281-145.996c-16.471 0-22.168-13.607-22.168-24.675 0-11.1 5.697-24.707 22.168-24.707 16.472 0 22.168 13.607 22.168 24.707 0 11.068-5.696 24.675-22.168 24.675m125.716 149.804c32.618 0 49.414-24.088 49.414-48.47 0-24.674-16.796-48.763-49.414-48.763-32.617 0-49.088 24.089-49.088 48.763 0 24.382 16.471 48.47 49.088 48.47m0-23.763c-16.471 0-22.168-13.607-22.168-24.707 0-11.067 5.697-24.674 22.168-24.674 16.797 0 22.168 13.607 22.168 24.674 0 11.1-5.371 24.707-22.168 24.707" style="fill-rule:nonzero"/><path d="M475.264 2377.6h278.092v50H475.264c-3.321 0-6.511-.619-9.571-1.888a24.9 24.9 0 0 1-8.105-5.436 24.8 24.8 0 0 1-7.324-17.676c0-3.32.618-6.511 1.888-9.57a24.8 24.8 0 0 1 5.436-8.106 24.7 24.7 0 0 1 8.105-5.404 24.8 24.8 0 0 1 9.571-1.92" style="fill:#a71f0c;fill-opacity:.8;fill-rule:nonzero"/><path d="M770.023 2377.6h413.574c3.32 0 6.51.651 9.57 1.92a24.8 24.8 0 0 1 8.106 5.404 24.8 24.8 0 0 1 5.436 8.106c1.27 3.059 1.888 6.25 1.888 9.57s-.618 6.51-1.888 9.57a24.8 24.8 0 0 1-5.436 8.106 24.9 24.9 0 0 1-8.106 5.436c-3.06 1.269-6.25 1.888-9.57 1.888H770.023z" style="fill:#098312;fill-opacity:.8;fill-rule:nonzero"/><path d="m1792.81 2038.28-58.138 127.214c-3.222 6.933-7.487 16.276-10.156 23.73-2.376-6.673-5.306-13.053-9.863-22.917l-58.92-128.027h-18.392v.553l84.245 182.129h5.892l84.245-182.129v-.553zm122.38 184.54c31.999 0 56.803-14.909 71.745-36.524l-12.533-9.863c-13.346 17.871-33.593 30.143-59.212 30.143-43.978 0-74.381-34.961-74.381-77.864 0-44.011 30.664-77.344 74.381-77.344 25.879 0 43.457 9.049 57.878 23.991l10.384-10.677c-19.173-19.466-39.714-29.59-68.262-29.59-53.874 0-91.992 40.006-91.992 93.62 0 51.725 37.337 94.108 91.992 94.108m105.87-184.54h17.611v181.348h-17.611zm182.68 184.54c33.333 0 59.993-18.913 59.993-50.651 0-30.664-25.879-44.011-55.729-54.688-21.875-7.715-43.75-15.722-43.75-37.858 0-18.913 18.945-28.255 38.411-28.255 17.058 0 31.478 4.785 46.127 15.202l8.007-13.347c-17.317-12.793-34.668-18.131-54.915-18.131-29.362 0-55.469 16.797-55.469 45.345 0 30.404 28.516 43.717 55.176 53.06 23.731 8.268 44.531 17.057 44.531 39.453 0 21.615-19.726 33.626-42.382 33.626-20.801 0-39.747-7.226-53.353-19.466l-9.05 13.867c15.462 13.054 37.858 21.843 62.403 21.843m156.28-123.47c-20.02 0-36.003 8.561-46.159 22.135l-3.451-19.726h-12.272v176.53h16.276v-46.387c0-11.751-.293-22.656-.553-31.738 9.863 13.346 26.4 22.135 45.866 22.135 33.886 0 58.398-25.879 58.398-62.142 0-35.189-24.512-60.807-58.105-60.807m-1.335 107.747c-26.139 0-45.085-18.945-45.085-46.94 0-26.921 18.685-45.605 45.085-45.605 25.326 0 43.197 19.205 43.197 46.419 0 26.92-17.871 46.126-43.197 46.126m142.655-107.747c-16.536 0-27.734 7.487-34.407 19.759l-3.19-17.35h-12.273v117.871h16.276v-68.262c0-22.949 13.054-36.523 32.26-36.523 6.673 0 11.197 1.334 15.722 2.929l4.818-14.42c-5.339-2.377-11.751-4.004-19.206-4.004m88.27-.52c-34.96 0-59.472 27.474-59.472 61.588 0 36.556 25.065 62.142 60.807 62.142 18.652 0 33.04-6.38 45.052-17.871l-9.342-11.718c-9.05 9.342-19.466 14.388-36.003 14.388-22.135 0-41.308-14.942-43.978-40.007h94.401c.521-4.004.782-7.715.782-11.458 0-34.408-19.467-57.064-52.247-57.064m-.293 15.202c21.615 0 36.003 13.867 36.556 38.932h-78.678c3.19-23.47 20.28-38.932 42.122-38.932m125.883-13.602c-14.942 0-30.144 3.743-46.127 11.198l5.599 13.867c13.054-6.12 26.14-9.863 38.933-9.863 18.131 0 29.85 8.268 29.85 24.804v8.008c-6.12-.813-12.793-1.074-21.582-1.074-34.668 0-58.952 15.202-58.952 41.602 0 20.28 14.681 32.812 37.598 32.812 20.8 0 36.002-9.342 44.531-23.47l2.962 21.322h11.979v-78.386c0-26.692-17.871-40.82-44.791-40.82m-12.012 106.152c-14.649 0-23.177-6.933-23.177-18.685 0-17.317 16.504-26.92 44.238-26.92 7.747 0 12.826.26 19.206 1.074-.781 26.921-15.983 44.531-40.267 44.531m192.552-178.162v61.328c0 11.23.261 21.875.521 32.031-9.603-13.867-26.399-22.428-45.605-22.428-34.668 0-59.18 25.879-59.18 60.807 0 36.003 24.251 62.142 59.18 62.142 20.54 0 36.816-9.082 46.419-23.73l2.409 21.061h12.533V2028.42zm-44.01 178.418c-26.139 0-43.978-19.206-43.978-46.127 0-26.953 17.839-46.158 43.978-46.158 26.66 0 44.531 19.466 44.531 46.158 0 26.661-17.317 46.127-44.531 46.127m124.36-192.748-24.121 15.722 3.483 6.12 12.24-7.682c1.204-.814 2.051-1.302 2.995-1.921-.228 1.465-.228 2.897-.228 4.33v63.965h7.682v-80.534z" style="fill-rule:nonzero"/><path d="M1674.68 2367.58c-9.603 0-18.002 4.265-22.819 11.459.13-5.209.26-10.677.26-16.276v-30.664h-8.138v95.605h6.283l1.204-10.254c4.915 7.194 13.184 11.589 23.21 11.589 17.448 0 29.589-13.054 29.589-31.055 0-17.481-12.272-30.404-29.589-30.404m-.554 53.711c-13.607 0-22.396-9.733-22.396-23.047 0-13.346 9.082-23.079 22.396-23.079 13.086 0 22.005 9.603 22.005 23.079 0 13.444-8.919 23.047-22.005 23.047m72.144-53.971c-17.48 0-29.752 13.704-29.752 30.794 0 18.262 12.532 31.055 30.403 31.055 9.343 0 16.537-3.19 22.559-8.919l-4.688-5.892c-4.524 4.687-9.733 7.226-18.001 7.226-11.068 0-20.67-7.487-22.005-20.019h47.2c.293-1.986.424-3.874.424-5.729 0-17.188-9.733-28.516-26.14-28.516m-.13 7.585c10.807 0 18.001 6.933 18.262 19.466h-39.323c1.595-11.719 10.124-19.466 21.061-19.466m60.94 53.865c6.119 0 11.588-2.278 15.983-5.599l-3.581-6.152c-3.744 2.669-7.487 4.004-11.621 4.004-5.176 0-8.268-2.539-8.268-9.994v-35.058h21.061v-7.194h-21.061v-19.629h-8.138v19.629h-11.459v6.64l11.459.554v35.058c0 12.142 6.022 17.741 15.625 17.741m95.32-59.99-12.142 35.189c-.944 2.539-1.595 4.915-2.409 7.714a52 52 0 0 0-3.059-7.454l-14.649-32.259h-2.018l-14.779 32.389c-1.074 2.409-2.018 4.525-2.962 7.324-.781-2.929-1.465-5.045-2.246-7.584l-12.272-35.319h-8.269v.26l20.671 59.31h2.409l18.522-40.788 18.262 40.788h2.539l20.67-59.31v-.26zm44.27-1.46c-17.48 0-29.752 13.704-29.752 30.794 0 18.262 12.532 31.055 30.403 31.055 9.343 0 16.537-3.19 22.559-8.919l-4.688-5.892c-4.524 4.687-9.733 7.226-18.001 7.226-11.068 0-20.67-7.487-22.005-20.019h47.2c.293-1.986.424-3.874.424-5.729 0-17.188-9.733-28.516-26.14-28.516m-.13 7.585c10.807 0 18.001 6.933 18.262 19.466h-39.323c1.595-11.719 10.124-19.466 21.061-19.466m67.47-7.585c-17.481 0-29.753 13.704-29.753 30.794 0 18.262 12.533 31.055 30.404 31.055 9.342 0 16.536-3.19 22.558-8.919l-4.687-5.892c-4.525 4.687-9.733 7.226-18.001 7.226-11.068 0-20.671-7.487-22.006-20.019h47.201c.293-1.986.423-3.874.423-5.729 0-17.188-9.733-28.516-26.139-28.516m-.131 7.585c10.808 0 18.002 6.933 18.262 19.466h-39.323c1.595-11.719 10.124-19.466 21.061-19.466m70.651-7.325c-9.993 0-17.187 4.916-20.67 11.198l-1.856-9.993h-6.152v58.919h8.138v-31.738c0-12.272 7.877-20.801 19.759-20.801 9.863 0 13.574 6.413 13.574 16.406v36.133h8.138v-36.003c0-15.332-7.194-24.121-20.931-24.121m108.01 61.72c18.945 0 34.538-11.328 34.538-32.65v-59.603h-8.822v59.473c0 16.667-10.644 24.772-25.716 24.772-15.332 0-26.009-8.105-26.009-24.772v-59.473h-8.789v59.603c0 21.322 15.592 32.65 34.798 32.65m84.52-61.72c-9.994 0-17.188 4.916-20.671 11.198l-1.856-9.993h-6.152v58.919h8.138v-31.738c0-12.272 7.878-20.801 19.759-20.801 9.864 0 13.574 6.413 13.574 16.406v36.133h8.138v-36.003c0-15.332-7.194-24.121-20.93-24.121m45.22 60.12h8.106v-51.725h19.335v-7.194h-19.335v-16.96c0-9.049 4.687-13.737 11.881-13.737 4.264 0 7.194 1.205 10.547 3.483l3.711-5.859c-4.525-3.353-8.919-5.209-15.202-5.209-13.053 0-19.043 9.734-19.043 21.322v16.96h-12.272v7.194h12.272zm58.25-59.6c-7.454 0-15.071 1.856-23.079 5.599l2.799 6.934c6.543-3.06 13.086-4.916 19.466-4.916 9.082 0 14.942 4.134 14.942 12.37v4.004c-3.06-.391-6.38-.521-10.808-.521-17.317 0-29.459 7.585-29.459 20.801 0 10.124 7.324 16.406 18.815 16.406 10.384 0 18.001-4.687 22.266-11.751l1.464 10.677h5.99v-39.193c0-13.346-8.919-20.41-22.396-20.41m-5.989 53.06c-7.357 0-11.622-3.45-11.622-9.31 0-8.691 8.269-13.476 22.136-13.476 3.874 0 6.413.13 9.603.52-.391 13.477-8.008 22.266-20.117 22.266m86.529-52.38-16.927 37.728c-1.204 2.669-2.279 5.338-3.223 8.398-.911-3.06-1.985-5.729-3.19-8.398l-17.057-37.728h-8.822v.26l27.605 59.31h2.929l27.474-59.31v-.26zm44.92 60.39c18.001 0 30.664-12.793 30.664-30.925 0-18.131-12.663-30.924-30.664-30.924-17.708 0-30.404 12.793-30.404 30.924 0 18.132 12.696 30.925 30.404 30.925m0-7.585c-13.053 0-22.135-9.603-22.135-23.34 0-13.606 9.082-23.339 22.135-23.339 13.346 0 22.396 9.733 22.396 23.339 0 13.737-9.18 23.34-22.396 23.34m72.13-54.005c-8.268 0-13.867 3.711-17.187 9.864l-1.596-8.659h-6.152v58.919h8.138v-34.147c0-11.458 6.543-18.262 16.146-18.262 3.32 0 5.599.684 7.878 1.465l2.376-7.194c-2.669-1.204-5.859-1.986-9.603-1.986m41.22.52c-7.454 0-15.071 1.856-23.079 5.599l2.799 6.934c6.543-3.06 13.086-4.916 19.466-4.916 9.082 0 14.942 4.134 14.942 12.37v4.004c-3.06-.391-6.38-.521-10.807-.521-17.318 0-29.46 7.585-29.46 20.801 0 10.124 7.324 16.406 18.815 16.406 10.384 0 18.001-4.687 22.266-11.751l1.464 10.677h5.99v-39.193c0-13.346-8.919-20.41-22.396-20.41m-5.989 53.06c-7.357 0-11.621-3.45-11.621-9.31 0-8.691 8.268-13.476 22.135-13.476 3.874 0 6.413.13 9.603.52-.391 13.477-8.008 22.266-20.117 22.266m79.059-53.58c-9.603 0-18.001 4.265-22.819 11.459.13-5.209.261-10.677.261-16.276v-30.664h-8.138v95.605h6.282l1.204-10.254c4.916 7.194 13.184 11.589 23.21 11.589 17.448 0 29.59-13.054 29.59-31.055 0-17.481-12.272-30.404-29.59-30.404m-.553 53.711c-13.607 0-22.396-9.733-22.396-23.047 0-13.346 9.082-23.079 22.396-23.079 13.086 0 22.005 9.603 22.005 23.079 0 13.444-8.919 23.047-22.005 23.047m46.823 6.409h8.106l-.13-95.605h-8.138zm54.39-60.38c-17.481 0-29.753 13.704-29.753 30.794 0 18.262 12.532 31.055 30.404 31.055 9.342 0 16.536-3.19 22.558-8.919l-4.687-5.892c-4.525 4.687-9.733 7.226-18.002 7.226-11.067 0-20.67-7.487-22.005-20.019h47.201c.293-1.986.423-3.874.423-5.729 0-17.188-9.733-28.516-26.139-28.516m-.131 7.585c10.808 0 18.002 6.933 18.262 19.466h-39.323c1.595-11.719 10.124-19.466 21.061-19.466m47.721 54.125 34.928-93.327h-8.105l-34.961 93.327zm53.09-1.33h8.789v-40.137h41.08v-8.008h-41.08v-34.537h45.735v-7.976h-54.524zm86.25-59.6c-7.454 0-15.072 1.856-23.079 5.599l2.799 6.934c6.543-3.06 13.086-4.916 19.466-4.916 9.082 0 14.942 4.134 14.942 12.37v4.004c-3.06-.391-6.38-.521-10.808-.521-17.317 0-29.459 7.585-29.459 20.801 0 10.124 7.324 16.406 18.815 16.406 10.384 0 18.001-4.687 22.266-11.751l1.464 10.677h5.99v-39.193c0-13.346-8.919-20.41-22.396-20.41m-5.989 53.06c-7.357 0-11.622-3.45-11.622-9.31 0-8.691 8.269-13.476 22.136-13.476 3.874 0 6.413.13 9.603.52-.391 13.477-8.008 22.266-20.117 22.266m86.529-52.38-16.927 37.728c-1.204 2.669-2.279 5.338-3.223 8.398-.911-3.06-1.985-5.729-3.19-8.398l-17.057-37.728h-8.822v.26l27.605 59.31h2.929l27.474-59.31v-.26zm44.92 60.39c18.001 0 30.664-12.793 30.664-30.925 0-18.131-12.663-30.924-30.664-30.924-17.708 0-30.404 12.793-30.404 30.924 0 18.132 12.696 30.925 30.404 30.925m0-7.585c-13.053 0-22.135-9.603-22.135-23.34 0-13.606 9.082-23.339 22.135-23.339 13.346 0 22.396 9.733 22.396 23.339 0 13.737-9.18 23.34-22.396 23.34m72.13-54.005c-8.268 0-13.867 3.711-17.187 9.864l-1.596-8.659h-6.152v58.919h8.138v-34.147c0-11.458 6.543-18.262 16.146-18.262 3.32 0 5.599.684 7.878 1.465l2.376-7.194c-2.669-1.204-5.86-1.986-9.603-1.986m41.21.52c-7.454 0-15.071 1.856-23.079 5.599l2.799 6.934c6.543-3.06 13.086-4.916 19.466-4.916 9.082 0 14.942 4.134 14.942 12.37v4.004c-3.06-.391-6.38-.521-10.808-.521-17.317 0-29.459 7.585-29.459 20.801 0 10.124 7.324 16.406 18.815 16.406 10.384 0 18.001-4.687 22.266-11.751l1.464 10.677h5.99v-39.193c0-13.346-8.919-20.41-22.396-20.41m-5.989 53.06c-7.357 0-11.622-3.45-11.622-9.31 0-8.691 8.269-13.476 22.136-13.476 3.874 0 6.413.13 9.603.52-.391 13.477-8.008 22.266-20.117 22.266m79.069-53.58c-9.603 0-18.001 4.265-22.819 11.459.13-5.209.26-10.677.26-16.276v-30.664h-8.138v95.605h6.283l1.204-10.254c4.916 7.194 13.184 11.589 23.21 11.589 17.448 0 29.59-13.054 29.59-31.055 0-17.481-12.272-30.404-29.59-30.404m-.553 53.711c-13.607 0-22.396-9.733-22.396-23.047 0-13.346 9.082-23.079 22.396-23.079 13.086 0 22.005 9.603 22.005 23.079 0 13.444-8.919 23.047-22.005 23.047m46.823 6.409h8.106l-.13-95.605h-8.139zm54.39-60.38c-17.48 0-29.752 13.704-29.752 30.794 0 18.262 12.532 31.055 30.404 31.055 9.342 0 16.536-3.19 22.558-8.919l-4.687-5.892c-4.525 4.687-9.733 7.226-18.002 7.226-11.067 0-20.67-7.487-22.005-20.019h47.201c.293-1.986.423-3.874.423-5.729 0-17.188-9.733-28.516-26.14-28.516m-.13 7.585c10.808 0 18.002 6.933 18.262 19.466h-39.323c1.595-11.719 10.124-19.466 21.061-19.466m75.34 52.795h8.789v-36.393h24.121c20.019 0 29.069-13.998 29.069-26.66 0-12.826-9.603-27.605-28.516-27.605h-33.463zm8.789-44.401v-38.281h24.544c11.979 0 19.857 9.082 19.857 19.466 0 9.473-6.543 18.815-20.41 18.815zm90.651-15.719c-8.268 0-13.867 3.711-17.188 9.864l-1.595-8.659h-6.152v58.919h8.138v-34.147c0-11.458 6.543-18.262 16.146-18.262 3.32 0 5.599.684 7.878 1.465l2.376-7.194c-2.669-1.204-5.86-1.986-9.603-1.986m44.8 61.59c18.001 0 30.664-12.793 30.664-30.925 0-18.131-12.663-30.924-30.664-30.924-17.709 0-30.404 12.793-30.404 30.924 0 18.132 12.695 30.925 30.404 30.925m0-7.585c-13.054 0-22.136-9.603-22.136-23.34 0-13.606 9.082-23.339 22.136-23.339 13.346 0 22.395 9.733 22.395 23.339 0 13.737-9.179 23.34-22.395 23.34m85.49-52.805-16.927 37.728c-1.205 2.669-2.279 5.338-3.223 8.398-.912-3.06-1.986-5.729-3.19-8.398l-17.057-37.728h-8.822v.26l27.604 59.31h2.93l27.474-59.31v-.26zm25.3-15.49c3.614 0 6.153-2.507 6.153-5.859 0-3.451-2.409-6.12-6.153-6.12-3.711 0-6.119 2.669-6.119 6.12 0 3.222 2.408 5.859 6.119 5.859m-4.134 74.414h8.138v-58.919h-8.138zm76.824-95.614v30.664c0 5.599.13 10.937.26 16.015-4.785-6.933-13.184-11.198-22.786-11.198-17.351 0-29.623 12.923-29.623 30.404 0 18.001 12.142 31.055 29.623 31.055 10.254 0 18.392-4.525 23.177-11.882l1.204 10.547h6.283v-95.605zm-22.006 89.192c-13.053 0-22.005-9.603-22.005-23.047 0-13.476 8.952-23.079 22.005-23.079 13.347 0 22.266 9.733 22.266 23.079 0 13.314-8.659 23.047-22.266 23.047m76.406-53.962c-17.481 0-29.753 13.704-29.753 30.794 0 18.262 12.533 31.055 30.404 31.055 9.342 0 16.536-3.19 22.559-8.919l-4.688-5.892c-4.525 4.687-9.733 7.226-18.001 7.226-11.068 0-20.671-7.487-22.006-20.019h47.201c.293-1.986.423-3.874.423-5.729 0-17.188-9.733-28.516-26.139-28.516m-.13 7.585c10.807 0 18.001 6.933 18.261 19.466h-39.323c1.596-11.719 10.124-19.466 21.062-19.466m66.91-7.325c-8.268 0-13.867 3.711-17.188 9.864l-1.595-8.659h-6.152v58.919h8.138v-34.147c0-11.458 6.543-18.262 16.146-18.262 3.32 0 5.599.684 7.878 1.465l2.376-7.194c-2.669-1.204-5.86-1.986-9.603-1.986m37.76 61.19c11.589 0 19.987-6.673 19.987-16.536s-8.138-14.551-18.815-18.522c-6.933-2.67-12.37-5.339-12.37-10.677 0-5.469 5.306-7.487 11.329-7.487 4.785 0 9.602 1.334 13.867 3.743l3.581-5.859c-5.339-3.483-11.459-5.339-17.872-5.339-9.993 0-19.043 5.078-19.043 14.942 0 9.472 7.976 13.997 17.579 17.74 7.063 2.8 13.606 5.73 13.606 11.459 0 5.338-4.655 8.919-11.849 8.919-6.543 0-12.142-1.595-17.35-5.339l-4.134 6.413c6.283 4.265 13.216 6.543 21.484 6.543" style="fill:#2f2f2f;fill-rule:nonzero"/><defs><linearGradient id="a" x1="0" x2="1" y1="0" y2="0" gradientTransform="rotate(90 1900.83 -1858.9)scale(6491.67)" gradientUnits="userSpaceOnUse"><stop offset="0" style="stop-color:#5db5bc;stop-opacity:1"/><stop offset=".03" style="stop-color:#56b5b4;stop-opacity:1"/><stop offset=".05" style="stop-color:#55b5b2;stop-opacity:1"/><stop offset=".08" style="stop-color:#57b5b4;stop-opacity:1"/><stop offset=".11" style="stop-color:#5ab5b7;stop-opacity:1"/><stop offset=".15" style="stop-color:#5eb5bb;stop-opacity:1"/><stop offset=".16" style="stop-color:#5eb5bc;stop-opacity:1"/><stop offset=".18" style="stop-color:#61b5bf;stop-opacity:1"/><stop offset=".19" style="stop-color:#61b5bf;stop-opacity:1"/><stop offset=".23" style="stop-color:#65b5c4;stop-opacity:1"/><stop offset=".23" style="stop-color:#66b5c5;stop-opacity:1"/><stop offset=".24" style="stop-color:#67b5c7;stop-opacity:1"/><stop offset=".25" style="stop-color:#68b5c7;stop-opacity:1"/><stop offset=".25" style="stop-color:#68b5c8;stop-opacity:1"/><stop offset=".25" style="stop-color:#69b5c8;stop-opacity:1"/><stop offset=".26" style="stop-color:#69b5c9;stop-opacity:1"/><stop offset=".26" style="stop-color:#6ab5c9;stop-opacity:1"/><stop offset=".27" style="stop-color:#6ab5ca;stop-opacity:1"/><stop offset=".27" style="stop-color:#6bb5ca;stop-opacity:1"/><stop offset=".27" style="stop-color:#6bb5cb;stop-opacity:1"/><stop offset=".28" style="stop-color:#6cb5cb;stop-opacity:1"/><stop offset=".28" style="stop-color:#6cb5cc;stop-opacity:1"/><stop offset=".29" style="stop-color:#6db5cc;stop-opacity:1"/><stop offset=".29" style="stop-color:#6db5cd;stop-opacity:1"/><stop offset=".31" style="stop-color:#6eb5ce;stop-opacity:1"/><stop offset="1" style="stop-color:#6eb5cf;stop-opacity:1"/></linearGradient></defs></svg>